G04 MADE WITH FRITZING*
G04 WWW.FRITZING.ORG*
G04 DOUBLE SIDED*
G04 HOLES PLATED*
G04 CONTOUR ON CENTER OF CONTOUR VECTOR*
%FSLAX26Y26*%
%MOIN*%
%ADD10C,0.138425*%
%ADD11C,0.070000*%
%ADD12C,0.066000*%
%ADD13C,0.053528*%
%ADD14C,0.078000*%
%ADD15C,0.075000*%
%ADD16C,0.074000*%
%ADD17C,0.039370*%
%ADD18R,0.023625X0.039361*%
%ADD19R,0.023611X0.039361*%
%ADD20R,0.023570X0.039361*%
%ADD21R,0.023597X0.039361*%
%ADD22R,0.023639X0.039361*%
%ADD23R,0.023681X0.039361*%
%ADD24R,0.023667X0.039361*%
%ADD25R,0.023653X0.039361*%
%ADD26R,0.039361X0.023639*%
%ADD27R,0.039361X0.023625*%
%ADD28R,0.039361X0.023611*%
%ADD29R,0.039361X0.023653*%
%ADD30R,0.023708X0.039361*%
%ADD31R,0.236972X0.236959*%
%ADD32R,0.061024X0.023622*%
%ADD33R,0.153543X0.070866*%
%ADD34R,0.177165X0.051181*%
%ADD35R,0.078000X0.078000*%
%ADD36R,0.075000X0.075000*%
%ADD37R,0.047244X0.078740*%
%ADD38R,0.023622X0.053150*%
%ADD39R,0.035433X0.031496*%
%ADD40R,0.047244X0.070866*%
%ADD41R,0.023622X0.061024*%
%ADD42C,0.012000*%
%ADD43C,0.024000*%
%ADD44R,0.001000X0.001000*%
G04 COPPER1*
%FSLAX26Y26*%
%MOIN*%
D10*
X2905800Y2589690D03*
D11*
X2805800Y2089690D03*
X2705800Y2089690D03*
D10*
X2105800Y2589690D03*
D11*
X2605800Y2089690D03*
X2505800Y2089690D03*
X2405800Y2089690D03*
X2305800Y2089690D03*
X2205800Y2089690D03*
D10*
X2905800Y2589690D03*
D11*
X2805800Y2089690D03*
X2705800Y2089690D03*
D10*
X2105800Y2589690D03*
D11*
X2605800Y2089690D03*
X2505800Y2089690D03*
X2405800Y2089690D03*
X2305800Y2089690D03*
X2205800Y2089690D03*
D10*
X1373770Y1672760D03*
D11*
X1273770Y1172760D03*
X1173770Y1172760D03*
D10*
X573767Y1672760D03*
D11*
X1073770Y1172760D03*
X973767Y1172760D03*
X873767Y1172760D03*
X773767Y1172760D03*
X673767Y1172760D03*
D10*
X1373770Y1672760D03*
D11*
X1273770Y1172760D03*
X1173770Y1172760D03*
D10*
X573767Y1672760D03*
D11*
X1073770Y1172760D03*
X973767Y1172760D03*
X873767Y1172760D03*
X773767Y1172760D03*
X673767Y1172760D03*
D10*
X2236540Y1667750D03*
X2236540Y1167750D03*
D12*
X2886540Y1667750D03*
X2786540Y1667750D03*
D10*
X3036540Y1667750D03*
D12*
X2686540Y1667750D03*
D10*
X3036540Y1167750D03*
D12*
X2586540Y1667750D03*
X2486540Y1667750D03*
X2386540Y1667750D03*
D11*
X2886540Y1167750D03*
X2786540Y1167750D03*
X2686540Y1167750D03*
X2586540Y1167750D03*
X2486540Y1167750D03*
X2386540Y1167750D03*
D10*
X2236540Y1667750D03*
X2236540Y1167750D03*
D12*
X2886540Y1667750D03*
X2786540Y1667750D03*
D10*
X3036540Y1667750D03*
D12*
X2686540Y1667750D03*
D10*
X3036540Y1167750D03*
D12*
X2586540Y1667750D03*
X2486540Y1667750D03*
X2386540Y1667750D03*
D11*
X2886540Y1167750D03*
X2786540Y1167750D03*
X2686540Y1167750D03*
X2586540Y1167750D03*
X2486540Y1167750D03*
X2386540Y1167750D03*
D10*
X640833Y2493296D03*
X640833Y1993300D03*
D12*
X1290830Y2493296D03*
X1190830Y2493296D03*
D10*
X1440830Y2493296D03*
D12*
X1090830Y2493296D03*
D10*
X1440830Y1993300D03*
D12*
X990833Y2493296D03*
X890833Y2493296D03*
X790833Y2493296D03*
D11*
X1290830Y1993300D03*
X1190830Y1993300D03*
X1090830Y1993300D03*
X990833Y1993300D03*
X890833Y1993300D03*
X790833Y1993300D03*
D10*
X640833Y2493296D03*
X640833Y1993300D03*
D12*
X1290830Y2493296D03*
X1190830Y2493296D03*
D10*
X1440830Y2493296D03*
D12*
X1090830Y2493296D03*
D10*
X1440830Y1993300D03*
D12*
X990833Y2493296D03*
X890833Y2493296D03*
X790833Y2493296D03*
D11*
X1290830Y1993300D03*
X1190830Y1993300D03*
X1090830Y1993300D03*
X990833Y1993300D03*
X890833Y1993300D03*
X790833Y1993300D03*
D13*
X1695690Y1171910D03*
X1795690Y1171910D03*
X1895670Y1171910D03*
D14*
X1430770Y862510D03*
X1430770Y762510D03*
X1430770Y662510D03*
D15*
X1929420Y2753741D03*
X1929420Y3153741D03*
X1929420Y2753741D03*
X1929420Y3153741D03*
X1596090Y3255118D03*
X1596090Y2855118D03*
X2381430Y3007933D03*
X2281430Y3007933D03*
X2381430Y3007933D03*
X2281430Y3007933D03*
X1350770Y3015250D03*
X1250770Y3015250D03*
X1350770Y3015250D03*
X1250770Y3015250D03*
D16*
X1131930Y1691090D03*
X1387930Y1691090D03*
X1131930Y1513090D03*
X1387930Y1513090D03*
X1131930Y1691090D03*
X1387930Y1691090D03*
X1131930Y1513090D03*
X1387930Y1513090D03*
X2656090Y1660420D03*
X2912090Y1660420D03*
X2656090Y1482420D03*
X2912090Y1482420D03*
X2656090Y1660420D03*
X2912090Y1660420D03*
X2656090Y1482420D03*
X2912090Y1482420D03*
X2220320Y1655310D03*
X2476320Y1655310D03*
X2220320Y1477310D03*
X2476320Y1477310D03*
X2220320Y1655310D03*
X2476320Y1655310D03*
X2220320Y1477310D03*
X2476320Y1477310D03*
X547956Y1691090D03*
X803956Y1691090D03*
X547956Y1513090D03*
X803956Y1513090D03*
X547956Y1691090D03*
X803956Y1691090D03*
X547956Y1513090D03*
X803956Y1513090D03*
D17*
X2166200Y1043680D03*
X1971410Y2649343D03*
X2503550Y3006336D03*
X1327210Y2715019D03*
X1398910Y1371990D03*
X1086200Y1859680D03*
X1278200Y2579680D03*
X3071220Y2721750D03*
X2672770Y2756229D03*
X2958200Y2651680D03*
X2694200Y2555680D03*
X1782200Y491680D03*
X798196Y2123680D03*
X1542200Y2387680D03*
X2598200Y2099680D03*
X606196Y2315680D03*
X1621750Y2147680D03*
X2310200Y1811680D03*
X726196Y2819680D03*
D15*
X2019090Y2401390D03*
X2302870Y550500D03*
X1941190Y2471156D03*
X1922590Y1659220D03*
X2417680Y2063760D03*
X2466040Y1402520D03*
X2320770Y2047060D03*
X2828890Y2744675D03*
X2171620Y2205930D03*
X2589010Y2752241D03*
X2775860Y2006820D03*
X3075860Y2006820D03*
X1425030Y1843920D03*
X1521920Y2186850D03*
X799067Y3009395D03*
X1205240Y2208570D03*
D18*
X1385953Y2647319D03*
D19*
X1335806Y2647319D03*
X1285646Y2647319D03*
D18*
X1235493Y2647319D03*
D20*
X1185325Y2647319D03*
D19*
X1135126Y2647319D03*
D21*
X1084979Y2647319D03*
D22*
X1034879Y2647319D03*
D23*
X984660Y2647319D03*
D24*
X934513Y2647319D03*
D25*
X884386Y2647319D03*
X834186Y2647319D03*
D22*
X784069Y2647319D03*
D21*
X733929Y2647319D03*
D26*
X675081Y2517569D03*
X675081Y2467416D03*
X675081Y2417231D03*
D27*
X675081Y2367087D03*
D28*
X675081Y2316944D03*
D26*
X675081Y2266761D03*
D29*
X675081Y2216604D03*
D26*
X675081Y2166471D03*
D29*
X675081Y2116314D03*
X675081Y2066144D03*
D21*
X733929Y1936389D03*
D22*
X784069Y1936389D03*
D25*
X834186Y1936389D03*
X884386Y1936389D03*
D24*
X934513Y1936389D03*
D30*
X984664Y1936389D03*
D22*
X1034879Y1936389D03*
D21*
X1084979Y1936389D03*
D19*
X1135126Y1936389D03*
D21*
X1185329Y1936389D03*
D18*
X1235493Y1936389D03*
D22*
X1285639Y1936389D03*
D19*
X1335806Y1936389D03*
D25*
X1385966Y1936389D03*
D31*
X1083886Y2280691D03*
D18*
X2797683Y2637099D03*
D19*
X2747536Y2637099D03*
X2697376Y2637099D03*
D18*
X2647223Y2637099D03*
D20*
X2597055Y2637099D03*
D19*
X2546856Y2637099D03*
D21*
X2496709Y2637099D03*
D22*
X2446609Y2637099D03*
D23*
X2396390Y2637099D03*
D24*
X2346243Y2637099D03*
D25*
X2296116Y2637099D03*
X2245916Y2637099D03*
D22*
X2195799Y2637099D03*
D21*
X2145659Y2637099D03*
D26*
X2086811Y2507349D03*
X2086811Y2457196D03*
X2086811Y2407011D03*
D27*
X2086811Y2356867D03*
D28*
X2086811Y2306724D03*
D26*
X2086811Y2256541D03*
D29*
X2086811Y2206384D03*
D26*
X2086811Y2156251D03*
D29*
X2086811Y2106094D03*
X2086811Y2055924D03*
D21*
X2145659Y1926169D03*
D22*
X2195799Y1926169D03*
D25*
X2245916Y1926169D03*
X2296116Y1926169D03*
D24*
X2346243Y1926169D03*
D30*
X2396394Y1926169D03*
D22*
X2446609Y1926169D03*
D21*
X2496709Y1926169D03*
D19*
X2546856Y1926169D03*
D21*
X2597059Y1926169D03*
D18*
X2647223Y1926169D03*
D22*
X2697369Y1926169D03*
D19*
X2747536Y1926169D03*
D25*
X2797696Y1926169D03*
D31*
X2495616Y2270461D03*
D32*
X2204762Y2280639D03*
X2204762Y2320009D03*
X2204762Y2359379D03*
X2204762Y2398749D03*
X2806822Y2398749D03*
X2806822Y2359379D03*
X2806822Y2320009D03*
X2806822Y2280639D03*
X2204762Y2280639D03*
X2204762Y2320009D03*
X2204762Y2359379D03*
X2204762Y2398749D03*
X2806822Y2398749D03*
X2806822Y2359379D03*
X2806822Y2320009D03*
X2806822Y2280639D03*
X672732Y1363709D03*
X672732Y1403079D03*
X672732Y1442439D03*
X672732Y1481819D03*
X1274792Y1481819D03*
X1274792Y1442449D03*
X1274792Y1403079D03*
X1274792Y1363709D03*
X672732Y1363709D03*
X672732Y1403079D03*
X672732Y1442439D03*
X672732Y1481819D03*
X1274792Y1481819D03*
X1274792Y1442449D03*
X1274792Y1403079D03*
X1274792Y1363709D03*
X2335502Y1358699D03*
X2335502Y1398069D03*
X2335502Y1437439D03*
X2335502Y1476809D03*
X2937562Y1476809D03*
X2937562Y1437439D03*
X2937562Y1398069D03*
X2937562Y1358699D03*
X2335502Y1358699D03*
X2335502Y1398069D03*
X2335502Y1437439D03*
X2335502Y1476809D03*
X2937562Y1476809D03*
X2937562Y1437439D03*
X2937562Y1398069D03*
X2937562Y1358699D03*
X739798Y2184239D03*
X739798Y2223609D03*
X739798Y2262979D03*
X739798Y2302349D03*
X1341852Y2302349D03*
X1341852Y2262979D03*
X1341852Y2223609D03*
X1341852Y2184239D03*
X739798Y2184239D03*
X739798Y2223609D03*
X739798Y2262979D03*
X739798Y2302349D03*
X1341852Y2302349D03*
X1341852Y2262979D03*
X1341852Y2223609D03*
X1341852Y2184239D03*
D33*
X904878Y705767D03*
X904878Y426247D03*
D34*
X1172983Y615219D03*
X1172983Y516799D03*
D35*
X1430770Y862510D03*
D36*
X2381430Y3007933D03*
X2381430Y3007933D03*
X1350770Y3015250D03*
X1350770Y3015250D03*
D37*
X2077002Y367800D03*
X2258102Y367800D03*
D38*
X2128181Y512485D03*
X2167551Y512485D03*
X2206921Y512485D03*
D37*
X1604582Y390500D03*
X1785682Y390500D03*
D38*
X1655761Y535185D03*
X1695131Y535185D03*
X1734501Y535185D03*
D39*
X2607307Y744622D03*
X2524627Y707222D03*
X2524627Y782022D03*
D40*
X2604562Y2740662D03*
X2903772Y2740662D03*
D41*
X2655741Y2828261D03*
X2695111Y2828261D03*
X2734481Y2828261D03*
X2773851Y2828261D03*
X2813221Y2828261D03*
X2852591Y2828261D03*
D40*
X644052Y2814630D03*
X943264Y2814630D03*
D41*
X695233Y2902229D03*
X734603Y2902229D03*
X773973Y2902229D03*
X813343Y2902229D03*
X852713Y2902229D03*
X892083Y2902229D03*
D42*
X2731330Y2803304D02*
X2718200Y2699679D01*
D02*
X2718200Y2699679D02*
X2838200Y2699679D01*
D02*
X2838200Y2699679D02*
X2838200Y2531679D01*
D02*
X2838200Y2531679D02*
X2814200Y2531679D01*
D02*
X2814200Y2531679D02*
X2814200Y2315680D01*
D02*
X2814200Y2315680D02*
X2742200Y2315680D01*
D02*
X2742200Y2315680D02*
X2760540Y2061920D01*
D02*
X2760540Y2061920D02*
X2863400Y2045390D01*
D02*
X2863400Y2045390D02*
X2862200Y1883680D01*
D02*
X2862200Y1883680D02*
X2646200Y1883680D01*
D02*
X2646200Y1883680D02*
X2646200Y1907680D01*
D02*
X2646200Y1907680D02*
X2647220Y1926170D01*
D43*
D02*
X2770840Y2853217D02*
X2766200Y2891679D01*
D02*
X2766200Y2891679D02*
X2622200Y2891679D01*
D02*
X2622200Y2891679D02*
X2550200Y2795679D01*
D02*
X2550200Y2795679D02*
X2094200Y2675679D01*
D02*
X2094200Y2675679D02*
X2094200Y2555679D01*
D02*
X2094200Y2555679D02*
X2166200Y2555679D01*
D02*
X2166200Y2555679D02*
X2334200Y2099680D01*
D02*
X2334200Y2099680D02*
X2094200Y1979680D01*
D02*
X2094200Y1979680D02*
X2094200Y1883680D01*
D02*
X2094200Y1883680D02*
X2598200Y1883680D01*
D02*
X2598200Y1883680D02*
X2598200Y1907680D01*
D02*
X2598200Y1907680D02*
X2597060Y1926170D01*
D02*
X1417060Y849360D02*
X1193870Y635250D01*
D02*
X2121930Y513420D02*
X1782200Y563680D01*
D02*
X1782200Y563680D02*
X1782200Y587680D01*
D02*
X1782200Y587680D02*
X1638200Y587680D01*
D02*
X1638200Y587680D02*
X1638200Y563680D01*
D02*
X1638200Y563680D02*
X1649500Y545340D01*
D02*
X1891420Y1149070D02*
X1782210Y563680D01*
D02*
X2603240Y754820D02*
X2574200Y827680D01*
D02*
X2574200Y827680D02*
X2310200Y1043680D01*
D02*
X2310200Y1043680D02*
X2174070Y1043680D01*
D42*
D02*
X814435Y2877273D02*
X822198Y2699679D01*
D02*
X1001470Y2706341D02*
X1369260Y2837214D01*
D02*
X822200Y2699679D02*
X1001460Y2706342D01*
D02*
X1369260Y2837214D02*
X1431350Y2611684D01*
D02*
X1431360Y2611684D02*
X1380970Y2550497D01*
D02*
X1380970Y2550497D02*
X1350200Y2339680D01*
D02*
X1350200Y2339680D02*
X1278200Y2339680D01*
D02*
X1278200Y2339680D02*
X1278200Y2099680D01*
D02*
X1278200Y2099680D02*
X1494200Y2099680D01*
D02*
X1494200Y2099680D02*
X1542200Y2051680D01*
D02*
X1542200Y2051680D02*
X1519480Y1789460D01*
D02*
X1519480Y1789460D02*
X1245720Y1783570D01*
D02*
X1157410Y1857160D02*
X1177910Y1915320D01*
D02*
X1245720Y1783570D02*
X1157410Y1857160D01*
D43*
D02*
X1114370Y1700650D02*
X822204Y1859680D01*
D02*
X822200Y1859680D02*
X750200Y1883680D01*
D02*
X750200Y1883680D02*
X740430Y1915320D01*
D42*
D02*
X893497Y2927186D02*
X894203Y2939679D01*
D02*
X894200Y2939679D02*
X902273Y3147964D01*
D02*
X709711Y3045387D02*
X608934Y2946409D01*
D02*
X902278Y3147964D02*
X709721Y3045387D01*
D02*
X608933Y2946409D02*
X542348Y2833035D01*
D02*
X542356Y2833034D02*
X417324Y2520706D01*
D02*
X319656Y2261390D02*
X413954Y1904400D01*
D02*
X417322Y2520706D02*
X319656Y2261380D01*
D02*
X413956Y1904400D02*
X558201Y1883680D01*
D02*
X558200Y1883680D02*
X750200Y1883680D01*
D02*
X750200Y1883680D02*
X740430Y1915320D01*
D43*
D02*
X1090430Y1866320D02*
X1121930Y1915700D01*
D02*
X1279060Y2587506D02*
X1283320Y2626249D01*
D02*
X858969Y2889862D02*
X870195Y2867679D01*
D02*
X870200Y2867679D02*
X870200Y2855679D01*
D02*
X870200Y2855679D02*
X882200Y2843679D01*
D02*
X882200Y2843679D02*
X894200Y2747679D01*
D02*
X894200Y2747679D02*
X990200Y2747679D01*
D02*
X990200Y2747679D02*
X1238560Y3002713D01*
D02*
X2813620Y2853217D02*
X2814200Y2891679D01*
D02*
X2814200Y2891679D02*
X2886200Y2891679D01*
D02*
X2886200Y2891679D02*
X2886200Y2795679D01*
D02*
X2886200Y2795679D02*
X2958200Y2795679D01*
D02*
X2958200Y2795679D02*
X2958200Y2659553D01*
D42*
D02*
X2694510Y2563547D02*
X2696550Y2616029D01*
D43*
D02*
X2282910Y2990495D02*
X2286200Y2951680D01*
D02*
X2286200Y2951679D02*
X2814200Y2927679D01*
D02*
X2814200Y2927679D02*
X2813470Y2853217D01*
D02*
X1927270Y3171108D02*
X1926200Y3179679D01*
D02*
X1926200Y3179679D02*
X2118200Y3179679D01*
D02*
X2118200Y3179679D02*
X2269370Y3020617D01*
D02*
X1740750Y529490D02*
X1776380Y496990D01*
D02*
X798200Y2131550D02*
X798200Y2339680D01*
D02*
X798200Y2339680D02*
X726200Y2339680D01*
D02*
X726200Y2339680D02*
X726200Y2459680D01*
D02*
X726200Y2459680D02*
X702200Y2459680D01*
D02*
X702200Y2459680D02*
X696150Y2461410D01*
D02*
X1357050Y2308610D02*
X1374200Y2315670D01*
D02*
X1374200Y2315680D02*
X1398200Y2315680D01*
D02*
X1398200Y2315680D02*
X1398200Y2387680D01*
D02*
X1398200Y2387680D02*
X1534330Y2387680D01*
D02*
X1427410Y1437360D02*
X2262200Y1403680D01*
D02*
X1299750Y1408670D02*
X1427420Y1437360D01*
D02*
X2262200Y1403680D02*
X2262200Y1427680D01*
D02*
X2262200Y1427680D02*
X2335510Y1437430D01*
D02*
X2789710Y2616029D02*
X2694200Y2363680D01*
D02*
X2694200Y2363680D02*
X2655980Y2162200D01*
D02*
X2655980Y2162200D02*
X2603540Y2105460D01*
D02*
X1249830Y1479580D02*
X1206200Y1475680D01*
D02*
X1206200Y1475680D02*
X1206200Y1331680D01*
D02*
X1417830Y1310900D02*
X2310560Y1357390D01*
D02*
X1206200Y1331680D02*
X1417840Y1310900D01*
D02*
X880402Y1154220D02*
X894201Y1115680D01*
D02*
X894200Y1115680D02*
X1038200Y1115680D01*
D02*
X1038200Y1115680D02*
X1063350Y1156050D01*
D02*
X2512460Y779320D02*
X2406200Y755680D01*
D02*
X2406200Y755680D02*
X2166200Y563680D01*
D02*
X2166200Y563680D02*
X2167000Y533500D01*
D02*
X1699020Y514160D02*
X1734210Y323680D01*
D02*
X1734200Y323680D02*
X1830200Y323680D01*
D02*
X1830200Y323680D02*
X2022200Y443680D01*
D02*
X2022200Y443680D02*
X2166200Y443680D01*
D02*
X2166200Y443680D02*
X2167140Y491460D01*
D02*
X1256020Y516570D02*
X1590200Y515680D01*
D02*
X1590200Y515680D02*
X1686200Y467680D01*
D02*
X1686200Y467680D02*
X1692350Y514160D01*
D02*
X1786560Y1193280D02*
X1758200Y1259680D01*
D02*
X1758200Y1259680D02*
X1638200Y1259680D01*
D02*
X1638200Y1259680D02*
X1590200Y515680D01*
D02*
X2653080Y1462650D02*
X2622200Y1259680D01*
D02*
X2622200Y1259680D02*
X2166200Y1259680D01*
D02*
X2166200Y1259680D02*
X2118200Y1091680D01*
D02*
X2118200Y1091680D02*
X2118200Y971680D01*
D02*
X2118200Y971680D02*
X2406200Y755680D01*
D02*
X1134210Y1493220D02*
X1158200Y1283680D01*
D02*
X1158200Y1283680D02*
X1638200Y1259680D01*
D42*
D02*
X531197Y1702010D02*
X510201Y1715680D01*
D02*
X510200Y1715680D02*
X510200Y1763680D01*
D02*
X510200Y1763680D02*
X582200Y1835680D01*
D02*
X582200Y1835680D02*
X774200Y1835680D01*
D02*
X774200Y1835680D02*
X1117080Y1526480D01*
D43*
D02*
X654011Y2316560D02*
X614068Y2315830D01*
D42*
D02*
X1621400Y2155550D02*
X1614200Y2315680D01*
D02*
X1614200Y2315680D02*
X1614200Y2435680D01*
D02*
X1614200Y2435680D02*
X1326200Y3059679D01*
D02*
X1326200Y3059679D02*
X1302200Y3083679D01*
D02*
X893278Y3183956D02*
X700721Y3074180D01*
D02*
X1302200Y3083679D02*
X893276Y3183956D01*
D02*
X569900Y2960707D02*
X500692Y2848909D01*
D02*
X700722Y3074180D02*
X569901Y2960707D01*
D02*
X215256Y2298430D02*
X373542Y1796630D01*
D02*
X500689Y2848909D02*
X215254Y2298430D01*
D02*
X373544Y1796620D02*
X582203Y1835670D01*
D02*
X1342300Y3030565D02*
X1326200Y3059679D01*
D02*
X2065740Y2307120D02*
X1614210Y2315680D01*
D43*
D02*
X1922630Y2769869D02*
X1798860Y3063664D01*
D02*
X1798860Y3063664D02*
X1714490Y3131806D01*
D02*
X1805340Y3170745D02*
X1961100Y3271336D01*
D02*
X1961100Y3271335D02*
X2033030Y3337162D01*
D02*
X1714490Y3131806D02*
X1805350Y3170744D01*
D02*
X2033020Y3337163D02*
X2934200Y2939679D01*
D02*
X2934200Y2939679D02*
X3006200Y2843679D01*
D02*
X3006200Y2843679D02*
X3006200Y2579679D01*
D02*
X3006200Y2579679D02*
X2982200Y2363680D01*
D02*
X2982200Y2363680D02*
X2910200Y1811680D01*
D02*
X2910200Y1811680D02*
X2318070Y1811680D01*
D02*
X1608210Y3242495D02*
X1714490Y3131807D01*
D02*
X697339Y2877273D02*
X702197Y2819679D01*
D02*
X702200Y2819679D02*
X718326Y2819679D01*
D02*
X2800910Y1181210D02*
X2910200Y1283680D01*
D02*
X2910200Y1283680D02*
X3006200Y1283680D01*
D02*
X3006200Y1283680D02*
X3126200Y1475680D01*
D02*
X3126200Y1475680D02*
X3126200Y1739680D01*
D02*
X3126200Y1739680D02*
X2910200Y1811680D01*
D02*
X2536790Y707440D02*
X2550200Y707680D01*
D02*
X2550200Y707680D02*
X2646200Y707680D01*
D02*
X2646200Y707680D02*
X2780800Y1148920D01*
D02*
X686600Y1157830D02*
X702201Y1139680D01*
D02*
X702200Y1139680D02*
X846200Y1067680D01*
D02*
X846200Y1067680D02*
X1110200Y1067680D01*
D02*
X1110200Y1067680D02*
X1163580Y1155910D01*
D42*
D02*
X2065740Y2502110D02*
X1958170Y2475377D01*
D02*
X2200320Y1655580D02*
X1940090Y1658990D01*
D02*
X1391040Y1371470D02*
X1299750Y1365370D01*
D02*
X2200320Y1655580D02*
X1940090Y1658990D01*
D02*
X2315360Y1734420D02*
X2158840Y1911270D01*
D02*
X2636540Y1664670D02*
X2315350Y1734420D01*
D02*
X2286600Y544050D02*
X2213180Y514960D01*
D02*
X2032590Y2412510D02*
X2070790Y2443990D01*
D02*
X2415860Y2066250D02*
X2533660Y1940280D01*
D02*
X2449140Y1407050D02*
X2358910Y1431180D01*
D02*
X1328190Y2707208D02*
X1333120Y2668388D01*
D02*
X2495680Y3006439D02*
X2398930Y3007704D01*
D02*
X2086820Y2507348D02*
X1976380Y2643232D01*
D02*
X2600560Y2765393D02*
X2649490Y2821134D01*
D02*
X2833670Y2761510D02*
X2846340Y2806185D01*
D02*
X2306370Y2037130D02*
X2158840Y1935280D01*
D02*
X2200250Y2108580D02*
X2176570Y2189140D01*
D02*
X2734340Y2646688D02*
X2603180Y2741957D01*
D02*
X2675090Y2763748D02*
X2688860Y2808106D01*
D02*
X3133410Y2590919D02*
X3074600Y2714639D01*
D02*
X3077570Y2024240D02*
X3133410Y2590921D01*
D02*
X2780430Y1989930D02*
X2792000Y1947240D01*
D02*
X1504440Y2175970D02*
X1366810Y2182980D01*
D02*
X1398790Y1845390D02*
X1298840Y1925770D01*
D02*
X1407560Y1844890D02*
X1398790Y1845380D01*
D02*
X979933Y2050380D02*
X899859Y2228500D01*
D02*
X1228320Y2009530D02*
X979928Y2050390D01*
D02*
X852467Y2395190D02*
X795271Y2401730D01*
D02*
X795267Y2401730D02*
X765852Y2726936D01*
D02*
X899856Y2228510D02*
X852464Y2395200D01*
D02*
X765856Y2726934D02*
X772822Y2877273D01*
D02*
X1233420Y1957460D02*
X1228320Y2009530D01*
D02*
X1377370Y2644076D02*
X1300630Y2510368D01*
D02*
X1385950Y2647319D02*
X1377370Y2644076D01*
D02*
X790047Y2994398D02*
X740859Y2912619D01*
D02*
X1262190Y2064600D02*
X1211670Y2192300D01*
D02*
X1353980Y2028610D02*
X1262200Y2064600D01*
D02*
X1378660Y1957460D02*
X1353970Y2028620D01*
D02*
X2704790Y2070030D02*
X2698460Y1947240D01*
D44*
X1692500Y1232070D02*
X1698500Y1232070D01*
X1792500Y1232070D02*
X1798500Y1232070D01*
X1892500Y1232070D02*
X1898500Y1232070D01*
X1687500Y1231070D02*
X1703500Y1231070D01*
X1787500Y1231070D02*
X1803500Y1231070D01*
X1887500Y1231070D02*
X1903500Y1231070D01*
X1684500Y1230070D02*
X1706500Y1230070D01*
X1784500Y1230070D02*
X1806500Y1230070D01*
X1884500Y1230070D02*
X1906500Y1230070D01*
X1682500Y1229070D02*
X1708500Y1229070D01*
X1782500Y1229070D02*
X1808500Y1229070D01*
X1882500Y1229070D02*
X1908500Y1229070D01*
X1680500Y1228070D02*
X1710500Y1228070D01*
X1780500Y1228070D02*
X1810500Y1228070D01*
X1880500Y1228070D02*
X1910500Y1228070D01*
X1679500Y1227070D02*
X1711500Y1227070D01*
X1779500Y1227070D02*
X1811500Y1227070D01*
X1879500Y1227070D02*
X1911500Y1227070D01*
X1677500Y1226070D02*
X1713500Y1226070D01*
X1777500Y1226070D02*
X1813500Y1226070D01*
X1877500Y1226070D02*
X1913500Y1226070D01*
X1676500Y1225070D02*
X1714500Y1225070D01*
X1776500Y1225070D02*
X1814500Y1225070D01*
X1876500Y1225070D02*
X1914500Y1225070D01*
X1675500Y1224070D02*
X1715500Y1224070D01*
X1775500Y1224070D02*
X1815500Y1224070D01*
X1875500Y1224070D02*
X1915500Y1224070D01*
X1674500Y1223070D02*
X1716500Y1223070D01*
X1774500Y1223070D02*
X1816500Y1223070D01*
X1874500Y1223070D02*
X1916500Y1223070D01*
X1673500Y1222070D02*
X1717500Y1222070D01*
X1773500Y1222070D02*
X1817500Y1222070D01*
X1873500Y1222070D02*
X1917500Y1222070D01*
X1672500Y1221070D02*
X1718500Y1221070D01*
X1772500Y1221070D02*
X1818500Y1221070D01*
X1872500Y1221070D02*
X1918500Y1221070D01*
X1671500Y1220070D02*
X1719500Y1220070D01*
X1771500Y1220070D02*
X1818500Y1220070D01*
X1871500Y1220070D02*
X1918500Y1220070D01*
X1671500Y1219070D02*
X1719500Y1219070D01*
X1771500Y1219070D02*
X1819500Y1219070D01*
X1871500Y1219070D02*
X1919500Y1219070D01*
X1670500Y1218070D02*
X1720500Y1218070D01*
X1770500Y1218070D02*
X1820500Y1218070D01*
X1870500Y1218070D02*
X1920500Y1218070D01*
X1669500Y1217070D02*
X1720500Y1217070D01*
X1769500Y1217070D02*
X1820500Y1217070D01*
X1869500Y1217070D02*
X1920500Y1217070D01*
X1669500Y1216070D02*
X1721500Y1216070D01*
X1769500Y1216070D02*
X1821500Y1216070D01*
X1869500Y1216070D02*
X1921500Y1216070D01*
X1668500Y1215070D02*
X1722500Y1215070D01*
X1768500Y1215070D02*
X1821500Y1215070D01*
X1868500Y1215070D02*
X1921500Y1215070D01*
X1668500Y1214070D02*
X1722500Y1214070D01*
X1768500Y1214070D02*
X1822500Y1214070D01*
X1868500Y1214070D02*
X1922500Y1214070D01*
X1667500Y1213070D02*
X1722500Y1213070D01*
X1767500Y1213070D02*
X1822500Y1213070D01*
X1867500Y1213070D02*
X1922500Y1213070D01*
X1667500Y1212070D02*
X1723500Y1212070D01*
X1767500Y1212070D02*
X1823500Y1212070D01*
X1867500Y1212070D02*
X1923500Y1212070D01*
X1667500Y1211070D02*
X1723500Y1211070D01*
X1767500Y1211070D02*
X1823500Y1211070D01*
X1867500Y1211070D02*
X1923500Y1211070D01*
X1666500Y1210070D02*
X1723500Y1210070D01*
X1766500Y1210070D02*
X1823500Y1210070D01*
X1866500Y1210070D02*
X1923500Y1210070D01*
X1666500Y1209070D02*
X1724500Y1209070D01*
X1766500Y1209070D02*
X1824500Y1209070D01*
X1866500Y1209070D02*
X1924500Y1209070D01*
X1666500Y1208070D02*
X1724500Y1208070D01*
X1766500Y1208070D02*
X1824500Y1208070D01*
X1866500Y1208070D02*
X1924500Y1208070D01*
X1666500Y1207070D02*
X1724500Y1207070D01*
X1766500Y1207070D02*
X1824500Y1207070D01*
X1866500Y1207070D02*
X1924500Y1207070D01*
X1666500Y1206070D02*
X1724500Y1206070D01*
X1766500Y1206070D02*
X1824500Y1206070D01*
X1866500Y1206070D02*
X1924500Y1206070D01*
X1666500Y1205070D02*
X1724500Y1205070D01*
X1766500Y1205070D02*
X1824500Y1205070D01*
X1866500Y1205070D02*
X1924500Y1205070D01*
X1665500Y1204070D02*
X1724500Y1204070D01*
X1765500Y1204070D02*
X1824500Y1204070D01*
X1865500Y1204070D02*
X1924500Y1204070D01*
X1665500Y1203070D02*
X1724500Y1203070D01*
X1765500Y1203070D02*
X1824500Y1203070D01*
X1865500Y1203070D02*
X1924500Y1203070D01*
X1665500Y1202070D02*
X1724500Y1202070D01*
X1765500Y1202070D02*
X1824500Y1202070D01*
X1865500Y1202070D02*
X1924500Y1202070D01*
X1665500Y1201070D02*
X1724500Y1201070D01*
X1765500Y1201070D02*
X1824500Y1201070D01*
X1865500Y1201070D02*
X1924500Y1201070D01*
X1665500Y1200070D02*
X1724500Y1200070D01*
X1765500Y1200070D02*
X1824500Y1200070D01*
X1865500Y1200070D02*
X1924500Y1200070D01*
X1665500Y1199070D02*
X1724500Y1199070D01*
X1765500Y1199070D02*
X1824500Y1199070D01*
X1865500Y1199070D02*
X1924500Y1199070D01*
X1665500Y1198070D02*
X1724500Y1198070D01*
X1765500Y1198070D02*
X1824500Y1198070D01*
X1865500Y1198070D02*
X1924500Y1198070D01*
X1665500Y1197070D02*
X1724500Y1197070D01*
X1765500Y1197070D02*
X1824500Y1197070D01*
X1865500Y1197070D02*
X1924500Y1197070D01*
X1665500Y1196070D02*
X1724500Y1196070D01*
X1765500Y1196070D02*
X1824500Y1196070D01*
X1865500Y1196070D02*
X1924500Y1196070D01*
X1665500Y1195070D02*
X1724500Y1195070D01*
X1765500Y1195070D02*
X1824500Y1195070D01*
X1865500Y1195070D02*
X1924500Y1195070D01*
X1665500Y1194070D02*
X1724500Y1194070D01*
X1765500Y1194070D02*
X1824500Y1194070D01*
X1865500Y1194070D02*
X1924500Y1194070D01*
X1665500Y1193070D02*
X1724500Y1193070D01*
X1765500Y1193070D02*
X1824500Y1193070D01*
X1865500Y1193070D02*
X1924500Y1193070D01*
X1665500Y1192070D02*
X1692500Y1192070D01*
X1697500Y1192070D02*
X1724500Y1192070D01*
X1765500Y1192070D02*
X1792500Y1192070D01*
X1797500Y1192070D02*
X1824500Y1192070D01*
X1865500Y1192070D02*
X1892500Y1192070D01*
X1897500Y1192070D02*
X1924500Y1192070D01*
X1665500Y1191070D02*
X1688500Y1191070D01*
X1702500Y1191070D02*
X1724500Y1191070D01*
X1765500Y1191070D02*
X1788500Y1191070D01*
X1802500Y1191070D02*
X1824500Y1191070D01*
X1865500Y1191070D02*
X1888500Y1191070D01*
X1902500Y1191070D02*
X1924500Y1191070D01*
X1665500Y1190070D02*
X1685500Y1190070D01*
X1704500Y1190070D02*
X1724500Y1190070D01*
X1765500Y1190070D02*
X1785500Y1190070D01*
X1804500Y1190070D02*
X1824500Y1190070D01*
X1865500Y1190070D02*
X1885500Y1190070D01*
X1904500Y1190070D02*
X1924500Y1190070D01*
X1665500Y1189070D02*
X1684500Y1189070D01*
X1706500Y1189070D02*
X1724500Y1189070D01*
X1765500Y1189070D02*
X1784500Y1189070D01*
X1806500Y1189070D02*
X1824500Y1189070D01*
X1865500Y1189070D02*
X1884500Y1189070D01*
X1906500Y1189070D02*
X1924500Y1189070D01*
X1665500Y1188070D02*
X1682500Y1188070D01*
X1708500Y1188070D02*
X1724500Y1188070D01*
X1765500Y1188070D02*
X1782500Y1188070D01*
X1808500Y1188070D02*
X1824500Y1188070D01*
X1865500Y1188070D02*
X1882500Y1188070D01*
X1907500Y1188070D02*
X1924500Y1188070D01*
X1665500Y1187070D02*
X1681500Y1187070D01*
X1709500Y1187070D02*
X1724500Y1187070D01*
X1765500Y1187070D02*
X1781500Y1187070D01*
X1809500Y1187070D02*
X1824500Y1187070D01*
X1865500Y1187070D02*
X1881500Y1187070D01*
X1909500Y1187070D02*
X1924500Y1187070D01*
X1665500Y1186070D02*
X1680500Y1186070D01*
X1710500Y1186070D02*
X1724500Y1186070D01*
X1765500Y1186070D02*
X1780500Y1186070D01*
X1810500Y1186070D02*
X1824500Y1186070D01*
X1865500Y1186070D02*
X1880500Y1186070D01*
X1910500Y1186070D02*
X1924500Y1186070D01*
X1665500Y1185070D02*
X1679500Y1185070D01*
X1711500Y1185070D02*
X1724500Y1185070D01*
X1765500Y1185070D02*
X1779500Y1185070D01*
X1811500Y1185070D02*
X1824500Y1185070D01*
X1865500Y1185070D02*
X1879500Y1185070D01*
X1911500Y1185070D02*
X1924500Y1185070D01*
X1665500Y1184070D02*
X1678500Y1184070D01*
X1711500Y1184070D02*
X1724500Y1184070D01*
X1765500Y1184070D02*
X1778500Y1184070D01*
X1811500Y1184070D02*
X1824500Y1184070D01*
X1865500Y1184070D02*
X1878500Y1184070D01*
X1911500Y1184070D02*
X1924500Y1184070D01*
X1665500Y1183070D02*
X1678500Y1183070D01*
X1712500Y1183070D02*
X1724500Y1183070D01*
X1765500Y1183070D02*
X1778500Y1183070D01*
X1812500Y1183070D02*
X1824500Y1183070D01*
X1865500Y1183070D02*
X1878500Y1183070D01*
X1912500Y1183070D02*
X1924500Y1183070D01*
X1665500Y1182070D02*
X1677500Y1182070D01*
X1713500Y1182070D02*
X1724500Y1182070D01*
X1765500Y1182070D02*
X1777500Y1182070D01*
X1813500Y1182070D02*
X1824500Y1182070D01*
X1865500Y1182070D02*
X1877500Y1182070D01*
X1913500Y1182070D02*
X1924500Y1182070D01*
X1665500Y1181070D02*
X1677500Y1181070D01*
X1713500Y1181070D02*
X1724500Y1181070D01*
X1765500Y1181070D02*
X1777500Y1181070D01*
X1813500Y1181070D02*
X1824500Y1181070D01*
X1865500Y1181070D02*
X1876500Y1181070D01*
X1913500Y1181070D02*
X1924500Y1181070D01*
X1665500Y1180070D02*
X1676500Y1180070D01*
X1714500Y1180070D02*
X1724500Y1180070D01*
X1765500Y1180070D02*
X1776500Y1180070D01*
X1814500Y1180070D02*
X1824500Y1180070D01*
X1865500Y1180070D02*
X1876500Y1180070D01*
X1914500Y1180070D02*
X1924500Y1180070D01*
X1665500Y1179070D02*
X1676500Y1179070D01*
X1714500Y1179070D02*
X1724500Y1179070D01*
X1765500Y1179070D02*
X1776500Y1179070D01*
X1814500Y1179070D02*
X1824500Y1179070D01*
X1865500Y1179070D02*
X1876500Y1179070D01*
X1914500Y1179070D02*
X1924500Y1179070D01*
X1665500Y1178070D02*
X1675500Y1178070D01*
X1714500Y1178070D02*
X1724500Y1178070D01*
X1765500Y1178070D02*
X1775500Y1178070D01*
X1814500Y1178070D02*
X1824500Y1178070D01*
X1865500Y1178070D02*
X1875500Y1178070D01*
X1914500Y1178070D02*
X1924500Y1178070D01*
X1665500Y1177070D02*
X1675500Y1177070D01*
X1715500Y1177070D02*
X1724500Y1177070D01*
X1765500Y1177070D02*
X1775500Y1177070D01*
X1815500Y1177070D02*
X1824500Y1177070D01*
X1865500Y1177070D02*
X1875500Y1177070D01*
X1915500Y1177070D02*
X1924500Y1177070D01*
X1665500Y1176070D02*
X1675500Y1176070D01*
X1715500Y1176070D02*
X1724500Y1176070D01*
X1765500Y1176070D02*
X1775500Y1176070D01*
X1815500Y1176070D02*
X1824500Y1176070D01*
X1865500Y1176070D02*
X1875500Y1176070D01*
X1915500Y1176070D02*
X1924500Y1176070D01*
X1665500Y1175070D02*
X1675500Y1175070D01*
X1715500Y1175070D02*
X1724500Y1175070D01*
X1765500Y1175070D02*
X1775500Y1175070D01*
X1815500Y1175070D02*
X1824500Y1175070D01*
X1865500Y1175070D02*
X1875500Y1175070D01*
X1915500Y1175070D02*
X1924500Y1175070D01*
X1665500Y1174070D02*
X1675500Y1174070D01*
X1715500Y1174070D02*
X1724500Y1174070D01*
X1765500Y1174070D02*
X1775500Y1174070D01*
X1815500Y1174070D02*
X1824500Y1174070D01*
X1865500Y1174070D02*
X1875500Y1174070D01*
X1915500Y1174070D02*
X1924500Y1174070D01*
X1665500Y1173070D02*
X1674500Y1173070D01*
X1715500Y1173070D02*
X1724500Y1173070D01*
X1765500Y1173070D02*
X1774500Y1173070D01*
X1815500Y1173070D02*
X1824500Y1173070D01*
X1865500Y1173070D02*
X1874500Y1173070D01*
X1915500Y1173070D02*
X1924500Y1173070D01*
X1665500Y1172070D02*
X1674500Y1172070D01*
X1715500Y1172070D02*
X1724500Y1172070D01*
X1765500Y1172070D02*
X1774500Y1172070D01*
X1815500Y1172070D02*
X1824500Y1172070D01*
X1865500Y1172070D02*
X1874500Y1172070D01*
X1915500Y1172070D02*
X1924500Y1172070D01*
X1665500Y1171070D02*
X1675500Y1171070D01*
X1715500Y1171070D02*
X1724500Y1171070D01*
X1765500Y1171070D02*
X1775500Y1171070D01*
X1815500Y1171070D02*
X1824500Y1171070D01*
X1865500Y1171070D02*
X1874500Y1171070D01*
X1915500Y1171070D02*
X1924500Y1171070D01*
X1665500Y1170070D02*
X1675500Y1170070D01*
X1715500Y1170070D02*
X1724500Y1170070D01*
X1765500Y1170070D02*
X1775500Y1170070D01*
X1815500Y1170070D02*
X1824500Y1170070D01*
X1865500Y1170070D02*
X1875500Y1170070D01*
X1915500Y1170070D02*
X1924500Y1170070D01*
X1665500Y1169070D02*
X1675500Y1169070D01*
X1715500Y1169070D02*
X1724500Y1169070D01*
X1765500Y1169070D02*
X1775500Y1169070D01*
X1815500Y1169070D02*
X1824500Y1169070D01*
X1865500Y1169070D02*
X1875500Y1169070D01*
X1915500Y1169070D02*
X1924500Y1169070D01*
X1665500Y1168070D02*
X1675500Y1168070D01*
X1715500Y1168070D02*
X1724500Y1168070D01*
X1765500Y1168070D02*
X1775500Y1168070D01*
X1815500Y1168070D02*
X1824500Y1168070D01*
X1865500Y1168070D02*
X1875500Y1168070D01*
X1915500Y1168070D02*
X1924500Y1168070D01*
X1665500Y1167070D02*
X1675500Y1167070D01*
X1715500Y1167070D02*
X1724500Y1167070D01*
X1765500Y1167070D02*
X1775500Y1167070D01*
X1815500Y1167070D02*
X1824500Y1167070D01*
X1865500Y1167070D02*
X1875500Y1167070D01*
X1915500Y1167070D02*
X1924500Y1167070D01*
X1665500Y1166070D02*
X1675500Y1166070D01*
X1714500Y1166070D02*
X1724500Y1166070D01*
X1765500Y1166070D02*
X1775500Y1166070D01*
X1814500Y1166070D02*
X1824500Y1166070D01*
X1865500Y1166070D02*
X1875500Y1166070D01*
X1914500Y1166070D02*
X1924500Y1166070D01*
X1665500Y1165070D02*
X1676500Y1165070D01*
X1714500Y1165070D02*
X1724500Y1165070D01*
X1765500Y1165070D02*
X1776500Y1165070D01*
X1814500Y1165070D02*
X1824500Y1165070D01*
X1865500Y1165070D02*
X1876500Y1165070D01*
X1914500Y1165070D02*
X1924500Y1165070D01*
X1665500Y1164070D02*
X1676500Y1164070D01*
X1714500Y1164070D02*
X1724500Y1164070D01*
X1765500Y1164070D02*
X1776500Y1164070D01*
X1814500Y1164070D02*
X1824500Y1164070D01*
X1865500Y1164070D02*
X1876500Y1164070D01*
X1914500Y1164070D02*
X1924500Y1164070D01*
X1665500Y1163070D02*
X1677500Y1163070D01*
X1713500Y1163070D02*
X1724500Y1163070D01*
X1765500Y1163070D02*
X1777500Y1163070D01*
X1813500Y1163070D02*
X1824500Y1163070D01*
X1865500Y1163070D02*
X1877500Y1163070D01*
X1913500Y1163070D02*
X1924500Y1163070D01*
X1665500Y1162070D02*
X1677500Y1162070D01*
X1712500Y1162070D02*
X1724500Y1162070D01*
X1765500Y1162070D02*
X1777500Y1162070D01*
X1812500Y1162070D02*
X1824500Y1162070D01*
X1865500Y1162070D02*
X1877500Y1162070D01*
X1912500Y1162070D02*
X1924500Y1162070D01*
X1665500Y1161070D02*
X1678500Y1161070D01*
X1712500Y1161070D02*
X1724500Y1161070D01*
X1765500Y1161070D02*
X1778500Y1161070D01*
X1812500Y1161070D02*
X1824500Y1161070D01*
X1865500Y1161070D02*
X1878500Y1161070D01*
X1912500Y1161070D02*
X1924500Y1161070D01*
X1665500Y1160070D02*
X1679500Y1160070D01*
X1711500Y1160070D02*
X1724500Y1160070D01*
X1765500Y1160070D02*
X1779500Y1160070D01*
X1811500Y1160070D02*
X1824500Y1160070D01*
X1865500Y1160070D02*
X1879500Y1160070D01*
X1911500Y1160070D02*
X1924500Y1160070D01*
X1665500Y1159070D02*
X1679500Y1159070D01*
X1710500Y1159070D02*
X1724500Y1159070D01*
X1765500Y1159070D02*
X1779500Y1159070D01*
X1810500Y1159070D02*
X1824500Y1159070D01*
X1865500Y1159070D02*
X1879500Y1159070D01*
X1910500Y1159070D02*
X1924500Y1159070D01*
X1665500Y1158070D02*
X1680500Y1158070D01*
X1709500Y1158070D02*
X1724500Y1158070D01*
X1765500Y1158070D02*
X1780500Y1158070D01*
X1809500Y1158070D02*
X1824500Y1158070D01*
X1865500Y1158070D02*
X1880500Y1158070D01*
X1909500Y1158070D02*
X1924500Y1158070D01*
X1665500Y1157070D02*
X1682500Y1157070D01*
X1708500Y1157070D02*
X1724500Y1157070D01*
X1765500Y1157070D02*
X1782500Y1157070D01*
X1808500Y1157070D02*
X1824500Y1157070D01*
X1865500Y1157070D02*
X1882500Y1157070D01*
X1908500Y1157070D02*
X1924500Y1157070D01*
X1665500Y1156070D02*
X1683500Y1156070D01*
X1707500Y1156070D02*
X1724500Y1156070D01*
X1765500Y1156070D02*
X1783500Y1156070D01*
X1807500Y1156070D02*
X1824500Y1156070D01*
X1865500Y1156070D02*
X1883500Y1156070D01*
X1907500Y1156070D02*
X1924500Y1156070D01*
X1665500Y1155070D02*
X1684500Y1155070D01*
X1705500Y1155070D02*
X1724500Y1155070D01*
X1765500Y1155070D02*
X1784500Y1155070D01*
X1805500Y1155070D02*
X1824500Y1155070D01*
X1865500Y1155070D02*
X1884500Y1155070D01*
X1905500Y1155070D02*
X1924500Y1155070D01*
X1665500Y1154070D02*
X1686500Y1154070D01*
X1704500Y1154070D02*
X1724500Y1154070D01*
X1765500Y1154070D02*
X1786500Y1154070D01*
X1804500Y1154070D02*
X1824500Y1154070D01*
X1865500Y1154070D02*
X1886500Y1154070D01*
X1904500Y1154070D02*
X1924500Y1154070D01*
X1665500Y1153070D02*
X1689500Y1153070D01*
X1701500Y1153070D02*
X1724500Y1153070D01*
X1765500Y1153070D02*
X1789500Y1153070D01*
X1801500Y1153070D02*
X1824500Y1153070D01*
X1865500Y1153070D02*
X1889500Y1153070D01*
X1901500Y1153070D02*
X1924500Y1153070D01*
X1665500Y1152070D02*
X1724500Y1152070D01*
X1765500Y1152070D02*
X1824500Y1152070D01*
X1865500Y1152070D02*
X1924500Y1152070D01*
X1665500Y1151070D02*
X1724500Y1151070D01*
X1765500Y1151070D02*
X1824500Y1151070D01*
X1865500Y1151070D02*
X1924500Y1151070D01*
X1665500Y1150070D02*
X1724500Y1150070D01*
X1765500Y1150070D02*
X1824500Y1150070D01*
X1865500Y1150070D02*
X1924500Y1150070D01*
X1665500Y1149070D02*
X1724500Y1149070D01*
X1765500Y1149070D02*
X1824500Y1149070D01*
X1865500Y1149070D02*
X1924500Y1149070D01*
X1665500Y1148070D02*
X1724500Y1148070D01*
X1765500Y1148070D02*
X1824500Y1148070D01*
X1865500Y1148070D02*
X1924500Y1148070D01*
X1665500Y1147070D02*
X1724500Y1147070D01*
X1765500Y1147070D02*
X1824500Y1147070D01*
X1865500Y1147070D02*
X1924500Y1147070D01*
X1665500Y1146070D02*
X1724500Y1146070D01*
X1765500Y1146070D02*
X1824500Y1146070D01*
X1865500Y1146070D02*
X1924500Y1146070D01*
X1665500Y1145070D02*
X1724500Y1145070D01*
X1765500Y1145070D02*
X1824500Y1145070D01*
X1865500Y1145070D02*
X1924500Y1145070D01*
X1665500Y1144070D02*
X1724500Y1144070D01*
X1765500Y1144070D02*
X1824500Y1144070D01*
X1865500Y1144070D02*
X1924500Y1144070D01*
X1665500Y1143070D02*
X1724500Y1143070D01*
X1765500Y1143070D02*
X1824500Y1143070D01*
X1865500Y1143070D02*
X1924500Y1143070D01*
X1665500Y1142070D02*
X1724500Y1142070D01*
X1765500Y1142070D02*
X1824500Y1142070D01*
X1865500Y1142070D02*
X1924500Y1142070D01*
X1665500Y1141070D02*
X1724500Y1141070D01*
X1765500Y1141070D02*
X1824500Y1141070D01*
X1865500Y1141070D02*
X1924500Y1141070D01*
X1666500Y1140070D02*
X1724500Y1140070D01*
X1765500Y1140070D02*
X1824500Y1140070D01*
X1865500Y1140070D02*
X1924500Y1140070D01*
X1666500Y1139070D02*
X1724500Y1139070D01*
X1766500Y1139070D02*
X1824500Y1139070D01*
X1866500Y1139070D02*
X1924500Y1139070D01*
X1666500Y1138070D02*
X1724500Y1138070D01*
X1766500Y1138070D02*
X1824500Y1138070D01*
X1866500Y1138070D02*
X1924500Y1138070D01*
X1666500Y1137070D02*
X1724500Y1137070D01*
X1766500Y1137070D02*
X1824500Y1137070D01*
X1866500Y1137070D02*
X1924500Y1137070D01*
X1666500Y1136070D02*
X1724500Y1136070D01*
X1766500Y1136070D02*
X1824500Y1136070D01*
X1866500Y1136070D02*
X1924500Y1136070D01*
X1666500Y1135070D02*
X1723500Y1135070D01*
X1766500Y1135070D02*
X1823500Y1135070D01*
X1866500Y1135070D02*
X1923500Y1135070D01*
X1667500Y1134070D02*
X1723500Y1134070D01*
X1767500Y1134070D02*
X1823500Y1134070D01*
X1867500Y1134070D02*
X1923500Y1134070D01*
X1667500Y1133070D02*
X1723500Y1133070D01*
X1767500Y1133070D02*
X1823500Y1133070D01*
X1867500Y1133070D02*
X1923500Y1133070D01*
X1667500Y1132070D02*
X1723500Y1132070D01*
X1767500Y1132070D02*
X1823500Y1132070D01*
X1867500Y1132070D02*
X1923500Y1132070D01*
X1668500Y1131070D02*
X1722500Y1131070D01*
X1768500Y1131070D02*
X1822500Y1131070D01*
X1868500Y1131070D02*
X1922500Y1131070D01*
X1668500Y1130070D02*
X1722500Y1130070D01*
X1768500Y1130070D02*
X1822500Y1130070D01*
X1868500Y1130070D02*
X1922500Y1130070D01*
X1669500Y1129070D02*
X1721500Y1129070D01*
X1769500Y1129070D02*
X1821500Y1129070D01*
X1869500Y1129070D02*
X1921500Y1129070D01*
X1669500Y1128070D02*
X1721500Y1128070D01*
X1769500Y1128070D02*
X1821500Y1128070D01*
X1869500Y1128070D02*
X1921500Y1128070D01*
X1670500Y1127070D02*
X1720500Y1127070D01*
X1770500Y1127070D02*
X1820500Y1127070D01*
X1870500Y1127070D02*
X1920500Y1127070D01*
X1670500Y1126070D02*
X1720500Y1126070D01*
X1770500Y1126070D02*
X1820500Y1126070D01*
X1870500Y1126070D02*
X1920500Y1126070D01*
X1671500Y1125070D02*
X1719500Y1125070D01*
X1771500Y1125070D02*
X1819500Y1125070D01*
X1871500Y1125070D02*
X1919500Y1125070D01*
X1672500Y1124070D02*
X1718500Y1124070D01*
X1772500Y1124070D02*
X1818500Y1124070D01*
X1872500Y1124070D02*
X1918500Y1124070D01*
X1672500Y1123070D02*
X1717500Y1123070D01*
X1772500Y1123070D02*
X1817500Y1123070D01*
X1872500Y1123070D02*
X1917500Y1123070D01*
X1673500Y1122070D02*
X1716500Y1122070D01*
X1773500Y1122070D02*
X1816500Y1122070D01*
X1873500Y1122070D02*
X1916500Y1122070D01*
X1674500Y1121070D02*
X1716500Y1121070D01*
X1774500Y1121070D02*
X1816500Y1121070D01*
X1874500Y1121070D02*
X1916500Y1121070D01*
X1675500Y1120070D02*
X1714500Y1120070D01*
X1775500Y1120070D02*
X1814500Y1120070D01*
X1875500Y1120070D02*
X1914500Y1120070D01*
X1676500Y1119070D02*
X1713500Y1119070D01*
X1776500Y1119070D02*
X1813500Y1119070D01*
X1876500Y1119070D02*
X1913500Y1119070D01*
X1678500Y1118070D02*
X1712500Y1118070D01*
X1778500Y1118070D02*
X1812500Y1118070D01*
X1878500Y1118070D02*
X1912500Y1118070D01*
X1679500Y1117070D02*
X1711500Y1117070D01*
X1779500Y1117070D02*
X1811500Y1117070D01*
X1879500Y1117070D02*
X1911500Y1117070D01*
X1681500Y1116070D02*
X1709500Y1116070D01*
X1781500Y1116070D02*
X1809500Y1116070D01*
X1881500Y1116070D02*
X1909500Y1116070D01*
X1683500Y1115070D02*
X1707500Y1115070D01*
X1783500Y1115070D02*
X1807500Y1115070D01*
X1883500Y1115070D02*
X1907500Y1115070D01*
X1685500Y1114070D02*
X1704500Y1114070D01*
X1785500Y1114070D02*
X1804500Y1114070D01*
X1885500Y1114070D02*
X1904500Y1114070D01*
X1689500Y1113070D02*
X1701500Y1113070D01*
X1789500Y1113070D02*
X1801500Y1113070D01*
X1889500Y1113070D02*
X1901500Y1113070D01*
D02*
G04 End of Copper1*
M02*