G04 MADE WITH FRITZING*
G04 WWW.FRITZING.ORG*
G04 DOUBLE SIDED*
G04 HOLES PLATED*
G04 CONTOUR ON CENTER OF CONTOUR VECTOR*
%FSLAX26Y26*%
%MOIN*%
%ADD10C,0.005000*%
%ADD10C,0.008*%
G04 CONTOUR*
%FSLAX26Y26*%
%MOIN*%
D10*
D10*
X1690000Y3464570D02*
X1691000Y3464570D01*
X1692000Y3464570D01*
X1693000Y3464570D01*
X1694000Y3464570D01*
X1695000Y3464570D01*
X1696000Y3464570D01*
X1697000Y3464570D01*
X1698000Y3464570D01*
X1699000Y3464570D01*
X1700000Y3464570D01*
X1701000Y3464570D01*
X1702000Y3464570D01*
X1703000Y3464570D01*
X1704000Y3464570D01*
X1705000Y3464570D01*
X1706000Y3464570D01*
X1707000Y3464570D01*
X1708000Y3464570D01*
X1709000Y3464570D01*
X1710000Y3464570D01*
X1711000Y3464570D01*
X1712000Y3464570D01*
X1713000Y3464570D01*
X1714000Y3464570D01*
X1715000Y3464570D01*
X1716000Y3464570D01*
X1717000Y3464570D01*
X1718000Y3464570D01*
X1719000Y3464570D01*
X1720000Y3464570D01*
X1721000Y3464570D01*
X1722000Y3464570D01*
X1723000Y3464570D01*
X1724000Y3464570D01*
X1725000Y3464570D01*
X1726000Y3464570D01*
X1727000Y3464570D01*
X1728000Y3464570D01*
X1729000Y3464570D01*
X1730000Y3464570D01*
X1731000Y3464570D01*
X1732000Y3464570D01*
X1733000Y3464570D01*
X1734000Y3464570D01*
X1735000Y3464570D01*
X1736000Y3464570D01*
X1737000Y3464570D01*
X1738000Y3464570D01*
X1739000Y3464570D01*
X1740000Y3464570D01*
X1741000Y3464570D01*
X1742000Y3464570D01*
X1743000Y3464570D01*
X1744000Y3464570D01*
X1745000Y3464570D01*
X1746000Y3464570D01*
X1747000Y3464570D01*
X1748000Y3464570D01*
X1749000Y3464570D01*
X1750000Y3464570D01*
X1751000Y3464570D01*
X1752000Y3464570D01*
X1753000Y3464570D01*
X1754000Y3464570D01*
X1755000Y3464570D01*
X1756000Y3464570D01*
X1757000Y3464570D01*
X1758000Y3464570D01*
X1759000Y3464570D01*
X1760000Y3464570D01*
X1761000Y3464570D01*
X1762000Y3464570D01*
X1763000Y3464570D01*
X1764000Y3464570D01*
X1765000Y3464570D01*
X1766000Y3464570D01*
X1767000Y3464570D01*
X1768000Y3464570D01*
X1769000Y3464570D01*
X1770000Y3464570D01*
X1771000Y3464570D01*
X1772000Y3464570D01*
X1773000Y3464570D01*
X1774000Y3463570D01*
X1775000Y3463570D01*
X1776000Y3463570D01*
X1777000Y3463570D01*
X1778000Y3463570D01*
X1779000Y3463570D01*
X1780000Y3463570D01*
X1781000Y3463570D01*
X1782000Y3463570D01*
X1783000Y3463570D01*
X1784000Y3463570D01*
X1785000Y3463570D01*
X1786000Y3463570D01*
X1787000Y3463570D01*
X1788000Y3463570D01*
X1789000Y3463570D01*
X1790000Y3463570D01*
X1791000Y3463570D01*
X1792000Y3463570D01*
X1793000Y3463570D01*
X1794000Y3463570D01*
X1795000Y3463570D01*
X1796000Y3463570D01*
X1797000Y3463570D01*
X1798000Y3463570D01*
X1799000Y3463570D01*
X1800000Y3463570D01*
X1801000Y3463570D01*
X1802000Y3463570D01*
X1803000Y3463570D01*
X1804000Y3462570D01*
X1805000Y3462570D01*
X1806000Y3462570D01*
X1807000Y3462570D01*
X1808000Y3462570D01*
X1809000Y3462570D01*
X1810000Y3462570D01*
X1811000Y3462570D01*
X1812000Y3462570D01*
X1813000Y3462570D01*
X1814000Y3462570D01*
X1815000Y3462570D01*
X1816000Y3462570D01*
X1817000Y3462570D01*
X1818000Y3462570D01*
X1819000Y3462570D01*
X1820000Y3462570D01*
X1821000Y3462570D01*
X1822000Y3462570D01*
X1823000Y3462570D01*
X1824000Y3462570D01*
X1825000Y3462570D01*
X1826000Y3461570D01*
X1827000Y3461570D01*
X1828000Y3461570D01*
X1829000Y3461570D01*
X1830000Y3461570D01*
X1831000Y3461570D01*
X1832000Y3461570D01*
X1833000Y3461570D01*
X1834000Y3461570D01*
X1835000Y3461570D01*
X1836000Y3461570D01*
X1837000Y3461570D01*
X1838000Y3461570D01*
X1839000Y3461570D01*
X1840000Y3461570D01*
X1841000Y3461570D01*
X1842000Y3461570D01*
X1843000Y3460570D01*
X1844000Y3460570D01*
X1845000Y3460570D01*
X1846000Y3460570D01*
X1847000Y3460570D01*
X1848000Y3460570D01*
X1849000Y3460570D01*
X1850000Y3460570D01*
X1851000Y3460570D01*
X1852000Y3460570D01*
X1853000Y3460570D01*
X1854000Y3460570D01*
X1855000Y3460570D01*
X1856000Y3460570D01*
X1857000Y3459570D01*
X1858000Y3459570D01*
X1859000Y3459570D01*
X1860000Y3459570D01*
X1861000Y3459570D01*
X1862000Y3459570D01*
X1863000Y3459570D01*
X1864000Y3459570D01*
X1865000Y3459570D01*
X1866000Y3459570D01*
X1867000Y3459570D01*
X1868000Y3459570D01*
X1869000Y3459570D01*
X1870000Y3459570D01*
X1871000Y3458570D01*
X1872000Y3458570D01*
X1873000Y3458570D01*
X1874000Y3458570D01*
X1875000Y3458570D01*
X1876000Y3458570D01*
X1877000Y3458570D01*
X1878000Y3458570D01*
X1879000Y3458570D01*
X1880000Y3458570D01*
X1881000Y3458570D01*
X1882000Y3458570D01*
X1883000Y3457570D01*
X1884000Y3457570D01*
X1885000Y3457570D01*
X1886000Y3457570D01*
X1887000Y3457570D01*
X1888000Y3457570D01*
X1889000Y3457570D01*
X1890000Y3457570D01*
X1891000Y3457570D01*
X1892000Y3457570D01*
X1893000Y3457570D01*
X1894000Y3456570D01*
X1895000Y3456570D01*
X1896000Y3456570D01*
X1897000Y3456570D01*
X1898000Y3456570D01*
X1899000Y3456570D01*
X1900000Y3456570D01*
X1901000Y3456570D01*
X1902000Y3456570D01*
X1903000Y3456570D01*
X1904000Y3455570D01*
X1905000Y3455570D01*
X1906000Y3455570D01*
X1907000Y3455570D01*
X1908000Y3455570D01*
X1909000Y3455570D01*
X1910000Y3455570D01*
X1911000Y3455570D01*
X1912000Y3455570D01*
X1913000Y3455570D01*
X1914000Y3454570D01*
X1915000Y3454570D01*
X1916000Y3454570D01*
X1917000Y3454570D01*
X1918000Y3454570D01*
X1919000Y3454570D01*
X1920000Y3454570D01*
X1921000Y3454570D01*
X1922000Y3454570D01*
X1923000Y3453570D01*
X1924000Y3453570D01*
X1925000Y3453570D01*
X1926000Y3453570D01*
X1927000Y3453570D01*
X1928000Y3453570D01*
X1929000Y3453570D01*
X1930000Y3453570D01*
X1931000Y3453570D01*
X1932000Y3452570D01*
X1933000Y3452570D01*
X1934000Y3452570D01*
X1935000Y3452570D01*
X1936000Y3452570D01*
X1937000Y3452570D01*
X1938000Y3452570D01*
X1939000Y3452570D01*
X1940000Y3452570D01*
X1941000Y3451570D01*
X1942000Y3451570D01*
X1943000Y3451570D01*
X1944000Y3451570D01*
X1945000Y3451570D01*
X1946000Y3451570D01*
X1947000Y3451570D01*
X1948000Y3451570D01*
X1949000Y3450570D01*
X1950000Y3450570D01*
X1951000Y3450570D01*
X1952000Y3450570D01*
X1953000Y3450570D01*
X1954000Y3450570D01*
X1955000Y3450570D01*
X1956000Y3450570D01*
X1957000Y3449570D01*
X1958000Y3449570D01*
X1959000Y3449570D01*
X1960000Y3449570D01*
X1961000Y3449570D01*
X1962000Y3449570D01*
X1963000Y3449570D01*
X1964000Y3448570D01*
X1965000Y3448570D01*
X1966000Y3448570D01*
X1967000Y3448570D01*
X1968000Y3448570D01*
X1969000Y3448570D01*
X1970000Y3448570D01*
X1971000Y3448570D01*
X1972000Y3447570D01*
X1973000Y3447570D01*
X1974000Y3447570D01*
X1975000Y3447570D01*
X1976000Y3447570D01*
X1977000Y3447570D01*
X1978000Y3447570D01*
X1979000Y3446570D01*
X1980000Y3446570D01*
X1981000Y3446570D01*
X1982000Y3446570D01*
X1983000Y3446570D01*
X1984000Y3446570D01*
X1985000Y3446570D01*
X1986000Y3445570D01*
X1987000Y3445570D01*
X1988000Y3445570D01*
X1989000Y3445570D01*
X1990000Y3445570D01*
X1991000Y3445570D01*
X1992000Y3445570D01*
X1993000Y3444570D01*
X1994000Y3444570D01*
X1995000Y3444570D01*
X1996000Y3444570D01*
X1997000Y3444570D01*
X1998000Y3444570D01*
X1999000Y3443570D01*
X2000000Y3443570D01*
X2001000Y3443570D01*
X2002000Y3443570D01*
X2003000Y3443570D01*
X2004000Y3443570D01*
X2005000Y3442570D01*
X2006000Y3442570D01*
X2007000Y3442570D01*
X2008000Y3442570D01*
X2009000Y3442570D01*
X2010000Y3442570D01*
X2011000Y3442570D01*
X2012000Y3441570D01*
X2013000Y3441570D01*
X2014000Y3441570D01*
X2015000Y3441570D01*
X2016000Y3441570D01*
X2017000Y3441570D01*
X2018000Y3440570D01*
X2019000Y3440570D01*
X2020000Y3440570D01*
X2021000Y3440570D01*
X2022000Y3440570D01*
X2023000Y3440570D01*
X2024000Y3439570D01*
X2025000Y3439570D01*
X2026000Y3439570D01*
X2027000Y3439570D01*
X2028000Y3439570D01*
X2029000Y3438570D01*
X2030000Y3438570D01*
X2031000Y3438570D01*
X2032000Y3438570D01*
X2033000Y3438570D01*
X2034000Y3438570D01*
X2035000Y3437570D01*
X2036000Y3437570D01*
X2037000Y3437570D01*
X2038000Y3437570D01*
X2039000Y3437570D01*
X2040000Y3437570D01*
X2041000Y3436570D01*
X2042000Y3436570D01*
X2043000Y3436570D01*
X2044000Y3436570D01*
X2045000Y3436570D01*
X2046000Y3435570D01*
X2047000Y3435570D01*
X2048000Y3435570D01*
X2049000Y3435570D01*
X2050000Y3435570D01*
X2051000Y3435570D01*
X2052000Y3434570D01*
X2053000Y3434570D01*
X2054000Y3434570D01*
X2055000Y3434570D01*
X2056000Y3434570D01*
X2057000Y3433570D01*
X2058000Y3433570D01*
X2059000Y3433570D01*
X2060000Y3433570D01*
X2061000Y3433570D01*
X2062000Y3432570D01*
X2063000Y3432570D01*
X2064000Y3432570D01*
X2065000Y3432570D01*
X2066000Y3432570D01*
X2067000Y3431570D01*
X2068000Y3431570D01*
X2069000Y3431570D01*
X2070000Y3431570D01*
X2071000Y3431570D01*
X2072000Y3430570D01*
X2073000Y3430570D01*
X2074000Y3430570D01*
X2075000Y3430570D01*
X2076000Y3430570D01*
X2077000Y3429570D01*
X2078000Y3429570D01*
X2079000Y3429570D01*
X2080000Y3429570D01*
X2081000Y3429570D01*
X2082000Y3428570D01*
X2083000Y3428570D01*
X2084000Y3428570D01*
X2085000Y3428570D01*
X2086000Y3428570D01*
X2087000Y3427570D01*
X2088000Y3427570D01*
X2089000Y3427570D01*
X2090000Y3427570D01*
X2091000Y3427570D01*
X2092000Y3426570D01*
X2093000Y3426570D01*
X2094000Y3426570D01*
X2095000Y3426570D01*
X2096000Y3426570D01*
X2097000Y3425570D01*
X2098000Y3425570D01*
X2099000Y3425570D01*
X2100000Y3425570D01*
X2101000Y3424570D01*
X2102000Y3424570D01*
X2103000Y3424570D01*
X2104000Y3424570D01*
X2105000Y3424570D01*
X2106000Y3423570D01*
X2107000Y3423570D01*
X2108000Y3423570D01*
X2109000Y3423570D01*
X2110000Y3422570D01*
X2111000Y3422570D01*
X2112000Y3422570D01*
X2113000Y3422570D01*
X2114000Y3422570D01*
X2115000Y3421570D01*
X2116000Y3421570D01*
X2117000Y3421570D01*
X2118000Y3421570D01*
X2119000Y3420570D01*
X2120000Y3420570D01*
X2121000Y3420570D01*
X2122000Y3420570D01*
X2123000Y3420570D01*
X2124000Y3419570D01*
X2125000Y3419570D01*
X2126000Y3419570D01*
X2127000Y3419570D01*
X2128000Y3418570D01*
X2129000Y3418570D01*
X2130000Y3418570D01*
X2131000Y3418570D01*
X2132000Y3417570D01*
X2133000Y3417570D01*
X2134000Y3417570D01*
X2135000Y3417570D01*
X2136000Y3416570D01*
X2137000Y3416570D01*
X2138000Y3416570D01*
X2139000Y3416570D01*
X2140000Y3415570D01*
X2141000Y3415570D01*
X2142000Y3415570D01*
X2143000Y3415570D01*
X2144000Y3415570D01*
X2145000Y3414570D01*
X2146000Y3414570D01*
X2147000Y3414570D01*
X2148000Y3414570D01*
X2149000Y3413570D01*
X2150000Y3413570D01*
X2151000Y3413570D01*
X2152000Y3413570D01*
X2153000Y3412570D01*
X2154000Y3412570D01*
X2155000Y3412570D01*
X2156000Y3412570D01*
X2157000Y3411570D01*
X2158000Y3411570D01*
X2159000Y3411570D01*
X2160000Y3411570D01*
X2161000Y3410570D01*
X2162000Y3410570D01*
X2163000Y3410570D01*
X2164000Y3410570D01*
X2165000Y3409570D01*
X2166000Y3409570D01*
X2167000Y3409570D01*
X2168000Y3408570D01*
X2169000Y3408570D01*
X2170000Y3408570D01*
X2171000Y3408570D01*
X2172000Y3407570D01*
X2173000Y3407570D01*
X2174000Y3407570D01*
X2175000Y3407570D01*
X2176000Y3406570D01*
X2177000Y3406570D01*
X2178000Y3406570D01*
X2179000Y3406570D01*
X2180000Y3405570D01*
X2181000Y3405570D01*
X2182000Y3405570D01*
X2183000Y3404570D01*
X2184000Y3404570D01*
X2185000Y3404570D01*
X2186000Y3404570D01*
X2187000Y3403570D01*
X2188000Y3403570D01*
X2189000Y3403570D01*
X2190000Y3403570D01*
X2191000Y3402570D01*
X2192000Y3402570D01*
X2193000Y3402570D01*
X2194000Y3401570D01*
X2195000Y3401570D01*
X2196000Y3401570D01*
X2197000Y3401570D01*
X2198000Y3400570D01*
X2199000Y3400570D01*
X2200000Y3400570D01*
X2201000Y3400570D01*
X2202000Y3399570D01*
X2203000Y3399570D01*
X2204000Y3399570D01*
X2205000Y3398570D01*
X2206000Y3398570D01*
X2207000Y3398570D01*
X2208000Y3398570D01*
X2209000Y3397570D01*
X2210000Y3397570D01*
X2211000Y3397570D01*
X2212000Y3396570D01*
X2213000Y3396570D01*
X2214000Y3396570D01*
X2215000Y3396570D01*
X2216000Y3395570D01*
X2217000Y3395570D01*
X2218000Y3395570D01*
X2219000Y3394570D01*
X2220000Y3394570D01*
X2221000Y3394570D01*
X2222000Y3393570D01*
X2223000Y3393570D01*
X2224000Y3393570D01*
X2225000Y3393570D01*
X2226000Y3392570D01*
X2227000Y3392570D01*
X2228000Y3392570D01*
X2229000Y3391570D01*
X2230000Y3391570D01*
X2231000Y3391570D01*
X2232000Y3390570D01*
X2233000Y3390570D01*
X2234000Y3390570D01*
X2235000Y3390570D01*
X2236000Y3389570D01*
X2237000Y3389570D01*
X2238000Y3389570D01*
X2239000Y3388570D01*
X2240000Y3388570D01*
X2241000Y3388570D01*
X2242000Y3387570D01*
X2243000Y3387570D01*
X2244000Y3387570D01*
X2245000Y3387570D01*
X2246000Y3386570D01*
X2247000Y3386570D01*
X2248000Y3386570D01*
X2249000Y3385570D01*
X2250000Y3385570D01*
X2251000Y3385570D01*
X2252000Y3384570D01*
X2253000Y3384570D01*
X2254000Y3384570D01*
X2255000Y3383570D01*
X2256000Y3383570D01*
X2257000Y3383570D01*
X2258000Y3382570D01*
X2259000Y3382570D01*
X2260000Y3382570D01*
X2261000Y3381570D01*
X2262000Y3381570D01*
X2263000Y3381570D01*
X2264000Y3381570D01*
X2265000Y3380570D01*
X2266000Y3380570D01*
X2267000Y3380570D01*
X2268000Y3379570D01*
X2269000Y3379570D01*
X2270000Y3379570D01*
X2271000Y3378570D01*
X2272000Y3378570D01*
X2273000Y3378570D01*
X2274000Y3377570D01*
X2275000Y3377570D01*
X2276000Y3377570D01*
X2277000Y3376570D01*
X2278000Y3376570D01*
X2279000Y3376570D01*
X2280000Y3375570D01*
X2281000Y3375570D01*
X2282000Y3375570D01*
X2283000Y3374570D01*
X2284000Y3374570D01*
X2285000Y3374570D01*
X2286000Y3373570D01*
X2287000Y3373570D01*
X2288000Y3373570D01*
X2289000Y3372570D01*
X2290000Y3372570D01*
X2291000Y3372570D01*
X2292000Y3371570D01*
X2293000Y3371570D01*
X2294000Y3371570D01*
X2295000Y3370570D01*
X2296000Y3370570D01*
X2297000Y3369570D01*
X2298000Y3369570D01*
X2299000Y3369570D01*
X2300000Y3368570D01*
X2301000Y3368570D01*
X2302000Y3368570D01*
X2303000Y3367570D01*
X2304000Y3367570D01*
X2305000Y3367570D01*
X2306000Y3366570D01*
X2307000Y3366570D01*
X2308000Y3366570D01*
X2309000Y3365570D01*
X2310000Y3365570D01*
X2311000Y3365570D01*
X2312000Y3364570D01*
X2313000Y3364570D01*
X2314000Y3363570D01*
X2315000Y3363570D01*
X2316000Y3363570D01*
X2317000Y3362570D01*
X2318000Y3362570D01*
X2319000Y3362570D01*
X2320000Y3361570D01*
X2321000Y3361570D01*
X2322000Y3361570D01*
X2323000Y3360570D01*
X2324000Y3360570D01*
X2325000Y3360570D01*
X2326000Y3359570D01*
X2327000Y3359570D01*
X2328000Y3358570D01*
X2329000Y3358570D01*
X2330000Y3358570D01*
X2331000Y3357570D01*
X2332000Y3357570D01*
X2333000Y3357570D01*
X2334000Y3356570D01*
X2335000Y3356570D01*
X2336000Y3355570D01*
X2337000Y3355570D01*
X2338000Y3355570D01*
X2339000Y3354570D01*
X2340000Y3354570D01*
X2341000Y3354570D01*
X2342000Y3353570D01*
X2343000Y3353570D01*
X2344000Y3352570D01*
X2345000Y3352570D01*
X2346000Y3352570D01*
X2347000Y3351570D01*
X2348000Y3351570D01*
X2349000Y3351570D01*
X2350000Y3350570D01*
X2351000Y3350570D01*
X2352000Y3349570D01*
X2353000Y3349570D01*
X2354000Y3349570D01*
X2355000Y3348570D01*
X2356000Y3348570D01*
X2357000Y3347570D01*
X2358000Y3347570D01*
X2359000Y3347570D01*
X2360000Y3346570D01*
X2361000Y3346570D01*
X2362000Y3346570D01*
X2363000Y3345570D01*
X2364000Y3345570D01*
X2365000Y3344570D01*
X2366000Y3344570D01*
X2367000Y3344570D01*
X2368000Y3343570D01*
X2369000Y3343570D01*
X2370000Y3342570D01*
X2371000Y3342570D01*
X2372000Y3342570D01*
X2373000Y3341570D01*
X2374000Y3341570D01*
X2375000Y3340570D01*
X2376000Y3340570D01*
X2377000Y3340570D01*
X2378000Y3339570D01*
X2379000Y3339570D01*
X2380000Y3338570D01*
X2381000Y3338570D01*
X2382000Y3338570D01*
X2383000Y3337570D01*
X2384000Y3337570D01*
X2385000Y3336570D01*
X2386000Y3336570D01*
X2387000Y3336570D01*
X2388000Y3335570D01*
X2389000Y3335570D01*
X2390000Y3334570D01*
X2391000Y3334570D01*
X2392000Y3333570D01*
X2393000Y3333570D01*
X2394000Y3333570D01*
X2395000Y3332570D01*
X2396000Y3332570D01*
X2397000Y3331570D01*
X2398000Y3331570D01*
X2399000Y3331570D01*
X2400000Y3330570D01*
X2401000Y3330570D01*
X2402000Y3329570D01*
X2403000Y3329570D01*
X2404000Y3328570D01*
X2405000Y3328570D01*
X2406000Y3328570D01*
X2407000Y3327570D01*
X2408000Y3327570D01*
X2409000Y3326570D01*
X2410000Y3326570D01*
X2411000Y3326570D01*
X2412000Y3325570D01*
X2413000Y3325570D01*
X2414000Y3324570D01*
X2415000Y3324570D01*
X2416000Y3323570D01*
X2417000Y3323570D01*
X2418000Y3323570D01*
X2419000Y3322570D01*
X2420000Y3322570D01*
X2421000Y3321570D01*
X2422000Y3321570D01*
X2423000Y3320570D01*
X2424000Y3320570D01*
X2425000Y3319570D01*
X2426000Y3319570D01*
X2427000Y3319570D01*
X2428000Y3318570D01*
X2429000Y3318570D01*
X2430000Y3317570D01*
X2431000Y3317570D01*
X2432000Y3316570D01*
X2433000Y3316570D01*
X2434000Y3315570D01*
X2435000Y3315570D01*
X2436000Y3315570D01*
X2437000Y3314570D01*
X2438000Y3314570D01*
X2439000Y3313570D01*
X2440000Y3313570D01*
X2441000Y3312570D01*
X2442000Y3312570D01*
X2443000Y3311570D01*
X2444000Y3311570D01*
X2445000Y3311570D01*
X2446000Y3310570D01*
X2447000Y3310570D01*
X2448000Y3309570D01*
X2449000Y3309570D01*
X2450000Y3308570D01*
X2451000Y3308570D01*
X2452000Y3307570D01*
X2453000Y3307570D01*
X2454000Y3306570D01*
X2455000Y3306570D01*
X2456000Y3306570D01*
X2457000Y3305570D01*
X2458000Y3305570D01*
X2459000Y3304570D01*
X2460000Y3304570D01*
X2461000Y3303570D01*
X2462000Y3303570D01*
X2463000Y3302570D01*
X2464000Y3302570D01*
X2465000Y3301570D01*
X2466000Y3301570D01*
X2467000Y3300570D01*
X2468000Y3300570D01*
X2469000Y3299570D01*
X2470000Y3299570D01*
X2471000Y3299570D01*
X2472000Y3298570D01*
X2473000Y3298570D01*
X2474000Y3297570D01*
X2475000Y3297570D01*
X2476000Y3296570D01*
X2477000Y3296570D01*
X2478000Y3295570D01*
X2479000Y3295570D01*
X2480000Y3294570D01*
X2481000Y3294570D01*
X2482000Y3293570D01*
X2483000Y3293570D01*
X2484000Y3292570D01*
X2485000Y3292570D01*
X2486000Y3291570D01*
X2487000Y3291570D01*
X2488000Y3290570D01*
X2489000Y3290570D01*
X2490000Y3289570D01*
X2491000Y3289570D01*
X2492000Y3288570D01*
X2493000Y3288570D01*
X2494000Y3287570D01*
X2495000Y3287570D01*
X2496000Y3286570D01*
X2497000Y3286570D01*
X2498000Y3285570D01*
X2499000Y3285570D01*
X2500000Y3285570D01*
X2501000Y3284570D01*
X2502000Y3284570D01*
X2503000Y3283570D01*
X2504000Y3283570D01*
X2505000Y3282570D01*
X2506000Y3282570D01*
X2507000Y3281570D01*
X2508000Y3280570D01*
X2509000Y3280570D01*
X2510000Y3279570D01*
X2511000Y3279570D01*
X2512000Y3278570D01*
X2513000Y3278570D01*
X2514000Y3277570D01*
X2515000Y3277570D01*
X2516000Y3276570D01*
X2517000Y3276570D01*
X2518000Y3275570D01*
X2519000Y3275570D01*
X2520000Y3274570D01*
X2521000Y3274570D01*
X2522000Y3273570D01*
X2523000Y3273570D01*
X2524000Y3272570D01*
X2525000Y3272570D01*
X2526000Y3271570D01*
X2527000Y3271570D01*
X2528000Y3270570D01*
X2529000Y3270570D01*
X2530000Y3269570D01*
X2531000Y3269570D01*
X2532000Y3268570D01*
X2533000Y3268570D01*
X2534000Y3267570D01*
X2535000Y3267570D01*
X2536000Y3266570D01*
X2537000Y3266570D01*
X2538000Y3265570D01*
X2539000Y3265570D01*
X2540000Y3264570D01*
X2541000Y3263570D01*
X2542000Y3263570D01*
X2543000Y3262570D01*
X2544000Y3262570D01*
X2545000Y3261570D01*
X2546000Y3261570D01*
X2547000Y3260570D01*
X2548000Y3260570D01*
X2549000Y3259570D01*
X2550000Y3259570D01*
X2551000Y3258570D01*
X2552000Y3258570D01*
X2553000Y3257570D01*
X2554000Y3257570D01*
X2555000Y3256570D01*
X2556000Y3255570D01*
X2557000Y3255570D01*
X2558000Y3254570D01*
X2559000Y3254570D01*
X2560000Y3253570D01*
X2561000Y3253570D01*
X2562000Y3252570D01*
X2563000Y3252570D01*
X2564000Y3251570D01*
X2565000Y3250570D01*
X2566000Y3250570D01*
X2567000Y3249570D01*
X2568000Y3249570D01*
X2569000Y3248570D01*
X2570000Y3248570D01*
X2571000Y3247570D01*
X2572000Y3247570D01*
X2573000Y3246570D01*
X2574000Y3245570D01*
X2575000Y3245570D01*
X2576000Y3244570D01*
X2577000Y3244570D01*
X2578000Y3243570D01*
X2579000Y3243570D01*
X2580000Y3242570D01*
X2581000Y3242570D01*
X2582000Y3241570D01*
X2583000Y3240570D01*
X2584000Y3240570D01*
X2585000Y3239570D01*
X2586000Y3239570D01*
X2587000Y3238570D01*
X2588000Y3238570D01*
X2589000Y3237570D01*
X2590000Y3236570D01*
X2591000Y3236570D01*
X2592000Y3235570D01*
X2593000Y3235570D01*
X2594000Y3234570D01*
X2595000Y3234570D01*
X2596000Y3233570D01*
X2597000Y3232570D01*
X2598000Y3232570D01*
X2599000Y3231570D01*
X2600000Y3231570D01*
X2601000Y3230570D01*
X2602000Y3229570D01*
X2603000Y3229570D01*
X2604000Y3228570D01*
X2605000Y3228570D01*
X2606000Y3227570D01*
X2607000Y3227570D01*
X2608000Y3226570D01*
X2609000Y3225570D01*
X2610000Y3225570D01*
X2611000Y3224570D01*
X2612000Y3224570D01*
X2613000Y3223570D01*
X2614000Y3222570D01*
X2615000Y3222570D01*
X2616000Y3221570D01*
X2617000Y3221570D01*
X2618000Y3220570D01*
X2619000Y3219570D01*
X2620000Y3219570D01*
X2621000Y3218570D01*
X2622000Y3218570D01*
X2623000Y3217570D01*
X2624000Y3216570D01*
X2625000Y3216570D01*
X2626000Y3215570D01*
X2627000Y3215570D01*
X2628000Y3214570D01*
X2629000Y3214570D01*
X2630000Y3213570D01*
X2631000Y3212570D01*
X2632000Y3212570D01*
X2633000Y3211570D01*
X2634000Y3210570D01*
X2635000Y3210570D01*
X2636000Y3209570D01*
X2637000Y3209570D01*
X2638000Y3208570D01*
X2639000Y3207570D01*
X2640000Y3207570D01*
X2641000Y3206570D01*
X2642000Y3205570D01*
X2643000Y3205570D01*
X2644000Y3204570D01*
X2645000Y3204570D01*
X2646000Y3203570D01*
X2647000Y3202570D01*
X2648000Y3202570D01*
X2649000Y3201570D01*
X2650000Y3200570D01*
X2651000Y3200570D01*
X2652000Y3199570D01*
X2653000Y3199570D01*
X2654000Y3198570D01*
X2655000Y3197570D01*
X2656000Y3197570D01*
X2657000Y3196570D01*
X2658000Y3195570D01*
X2659000Y3195570D01*
X2660000Y3194570D01*
X2661000Y3194570D01*
X2662000Y3193570D01*
X2663000Y3192570D01*
X2664000Y3192570D01*
X2665000Y3191570D01*
X2666000Y3190570D01*
X2667000Y3190570D01*
X2668000Y3189570D01*
X2669000Y3188570D01*
X2670000Y3188570D01*
X2671000Y3187570D01*
X2672000Y3186570D01*
X2673000Y3186570D01*
X2674000Y3185570D01*
X2675000Y3185570D01*
X2676000Y3184570D01*
X2677000Y3183570D01*
X2678000Y3183570D01*
X2679000Y3182570D01*
X2680000Y3181570D01*
X2681000Y3181570D01*
X2682000Y3180570D01*
X2683000Y3179570D01*
X2684000Y3179570D01*
X2685000Y3178570D01*
X2686000Y3177570D01*
X2687000Y3177570D01*
X2688000Y3176570D01*
X2689000Y3175570D01*
X2690000Y3175570D01*
X2691000Y3174570D01*
X2692000Y3173570D01*
X2693000Y3173570D01*
X2694000Y3172570D01*
X2695000Y3171570D01*
X2696000Y3171570D01*
X2697000Y3170570D01*
X2698000Y3169570D01*
X2699000Y3169570D01*
X2700000Y3168570D01*
X2701000Y3167570D01*
X2702000Y3167570D01*
X2703000Y3166570D01*
X2704000Y3165570D01*
X2705000Y3165570D01*
X2706000Y3164570D01*
X2707000Y3163570D01*
X2708000Y3163570D01*
X2709000Y3162570D01*
X2710000Y3161570D01*
X2711000Y3160570D01*
X2712000Y3160570D01*
X2713000Y3159570D01*
X2714000Y3158570D01*
X2715000Y3158570D01*
X2716000Y3157570D01*
X2717000Y3156570D01*
X2718000Y3156570D01*
X2719000Y3155570D01*
X2720000Y3154570D01*
X2721000Y3154570D01*
X2722000Y3153570D01*
X2723000Y3152570D01*
X2724000Y3151570D01*
X2725000Y3151570D01*
X2726000Y3150570D01*
X2727000Y3149570D01*
X2728000Y3149570D01*
X2729000Y3148570D01*
X2730000Y3147570D01*
X2731000Y3147570D01*
X2732000Y3146570D01*
X2733000Y3145570D01*
X2734000Y3144570D01*
X2735000Y3144570D01*
X2736000Y3143570D01*
X2737000Y3142570D01*
X2738000Y3142570D01*
X2739000Y3141570D01*
X2740000Y3140570D01*
X2741000Y3139570D01*
X2742000Y3139570D01*
X2743000Y3138570D01*
X2744000Y3137570D01*
X2745000Y3136570D01*
X2746000Y3136570D01*
X2747000Y3135570D01*
X2748000Y3134570D01*
X2749000Y3134570D01*
X2750000Y3133570D01*
X2751000Y3132570D01*
X2752000Y3131570D01*
X2753000Y3131570D01*
X2754000Y3130570D01*
X2755000Y3129570D01*
X2756000Y3128570D01*
X2757000Y3128570D01*
X2758000Y3127570D01*
X2759000Y3126570D01*
X2760000Y3126570D01*
X2761000Y3125570D01*
X2762000Y3124570D01*
X2763000Y3123570D01*
X2764000Y3123570D01*
X2765000Y3122570D01*
X2766000Y3121570D01*
X2767000Y3120570D01*
X2768000Y3120570D01*
X2769000Y3119570D01*
X2770000Y3118570D01*
X2771000Y3117570D01*
X2772000Y3117570D01*
X2773000Y3116570D01*
X2774000Y3115570D01*
X2775000Y3114570D01*
X2776000Y3114570D01*
X2777000Y3113570D01*
X2778000Y3112570D01*
X2779000Y3111570D01*
X2780000Y3111570D01*
X2781000Y3110570D01*
X2782000Y3109570D01*
X2783000Y3108570D01*
X2784000Y3107570D01*
X2785000Y3107570D01*
X2786000Y3106570D01*
X2787000Y3105570D01*
X2788000Y3104570D01*
X2789000Y3104570D01*
X2790000Y3103570D01*
X2791000Y3102570D01*
X2792000Y3101570D01*
X2793000Y3101570D01*
X2794000Y3100570D01*
X2795000Y3099570D01*
X2796000Y3098570D01*
X2797000Y3097570D01*
X2798000Y3097570D01*
X2799000Y3096570D01*
X2800000Y3095570D01*
X2801000Y3094570D01*
X2802000Y3094570D01*
X2803000Y3093570D01*
X2804000Y3092570D01*
X2805000Y3091570D01*
X2806000Y3090570D01*
X2807000Y3090570D01*
X2808000Y3089570D01*
X2809000Y3088570D01*
X2810000Y3087570D01*
X2811000Y3086570D01*
X2812000Y3086570D01*
X2813000Y3085570D01*
X2814000Y3084570D01*
X2815000Y3083570D01*
X2816000Y3082570D01*
X2817000Y3082570D01*
X2818000Y3081570D01*
X2819000Y3080570D01*
X2820000Y3079570D01*
X2821000Y3078570D01*
X2822000Y3077570D01*
X2823000Y3077570D01*
X2824000Y3076570D01*
X2825000Y3075570D01*
X2826000Y3074570D01*
X2827000Y3073570D01*
X2828000Y3073570D01*
X2829000Y3072570D01*
X2830000Y3071570D01*
X2831000Y3070570D01*
X2832000Y3069570D01*
X2833000Y3069570D01*
X2834000Y3068570D01*
X2835000Y3067570D01*
X2836000Y3066570D01*
X2837000Y3065570D01*
X2838000Y3064570D01*
X2839000Y3064570D01*
X2840000Y3063570D01*
X2841000Y3062570D01*
X2842000Y3061570D01*
X2843000Y3060570D01*
X2844000Y3059570D01*
X2845000Y3059570D01*
X2846000Y3058570D01*
X2847000Y3057570D01*
X2848000Y3056570D01*
X2849000Y3055570D01*
X2850000Y3054570D01*
X2851000Y3053570D01*
X2852000Y3053570D01*
X2853000Y3052570D01*
X2854000Y3051570D01*
X2855000Y3050570D01*
X2856000Y3049570D01*
X2857000Y3048570D01*
X2858000Y3048570D01*
X2859000Y3047570D01*
X2860000Y3046570D01*
X2861000Y3045570D01*
X2862000Y3044570D01*
X2863000Y3043570D01*
X2864000Y3042570D01*
X2865000Y3042570D01*
X2866000Y3041570D01*
X2867000Y3040570D01*
X2868000Y3039570D01*
X2869000Y3038570D01*
X2870000Y3037570D01*
X2871000Y3036570D01*
X2872000Y3035570D01*
X2873000Y3035570D01*
X2874000Y3034570D01*
X2875000Y3033570D01*
X2876000Y3032570D01*
X2877000Y3031570D01*
X2878000Y3030570D01*
X2879000Y3029570D01*
X2880000Y3028570D01*
X2881000Y3027570D01*
X2882000Y3027570D01*
X2883000Y3026570D01*
X2884000Y3025570D01*
X2885000Y3024570D01*
X2886000Y3023570D01*
X2887000Y3022570D01*
X2888000Y3021570D01*
X2889000Y3020570D01*
X2890000Y3019570D01*
X2891000Y3019570D01*
X2892000Y3018570D01*
X2893000Y3017570D01*
X2894000Y3016570D01*
X2895000Y3015570D01*
X2896000Y3014570D01*
X2897000Y3013570D01*
X2898000Y3012570D01*
X2899000Y3011570D01*
X2900000Y3010570D01*
X2901000Y3009570D01*
X2902000Y3009570D01*
X2903000Y3008570D01*
X2904000Y3007570D01*
X2905000Y3006570D01*
X2906000Y3005570D01*
X2907000Y3004570D01*
X2908000Y3003570D01*
X2909000Y3002570D01*
X2910000Y3001570D01*
X2911000Y3000570D01*
X2912000Y2999570D01*
X2913000Y2998570D01*
X2914000Y2997570D01*
X2915000Y2996570D01*
X2916000Y2995570D01*
X2917000Y2995570D01*
X2918000Y2994570D01*
X2919000Y2993570D01*
X2920000Y2992570D01*
X2921000Y2991570D01*
X2922000Y2990570D01*
X2923000Y2989570D01*
X2924000Y2988570D01*
X2925000Y2987570D01*
X2926000Y2986570D01*
X2927000Y2985570D01*
X2928000Y2984570D01*
X2929000Y2983570D01*
X2930000Y2982570D01*
X2931000Y2981570D01*
X2932000Y2980570D01*
X2933000Y2979570D01*
X2934000Y2978570D01*
X2935000Y2977570D01*
X2936000Y2976570D01*
X2937000Y2975570D01*
X2938000Y2974570D01*
X2939000Y2974570D01*
X2940000Y2973570D01*
X2941000Y2972570D01*
X2942000Y2971570D01*
X2943000Y2970570D01*
X2944000Y2969570D01*
X2945000Y2968570D01*
X2946000Y2967570D01*
X2947000Y2966570D01*
X2948000Y2965570D01*
X2949000Y2964570D01*
X2950000Y2963570D01*
X2951000Y2962570D01*
X2952000Y2961570D01*
X2953000Y2960570D01*
X2954000Y2959570D01*
X2955000Y2958570D01*
X2956000Y2957570D01*
X2957000Y2956570D01*
X2958000Y2955570D01*
X2959000Y2954570D01*
X2960000Y2953570D01*
X2961000Y2952570D01*
X2962000Y2951570D01*
X2963000Y2950570D01*
X2964000Y2949570D01*
X2965000Y2948570D01*
X2966000Y2947570D01*
X2967000Y2946570D01*
X2968000Y2945570D01*
X2969000Y2944570D01*
X2970000Y2943570D01*
X2971000Y2942570D01*
X2972000Y2941570D01*
X2973000Y2940570D01*
X2973000Y2939570D01*
X2974000Y2938570D01*
X2975000Y2937570D01*
X2976000Y2936570D01*
X2977000Y2935570D01*
X2978000Y2934570D01*
X2979000Y2933570D01*
X2980000Y2932570D01*
X2981000Y2931570D01*
X2982000Y2930570D01*
X2983000Y2929570D01*
X2984000Y2928570D01*
X2985000Y2927570D01*
X2986000Y2926570D01*
X2987000Y2925570D01*
X2988000Y2924570D01*
X2989000Y2923570D01*
X2990000Y2922570D01*
X2991000Y2921570D01*
X2992000Y2920570D01*
X2993000Y2919570D01*
X2994000Y2918570D01*
X2994000Y2917570D01*
X2995000Y2916570D01*
X2996000Y2915570D01*
X2997000Y2914570D01*
X2998000Y2913570D01*
X2999000Y2912570D01*
X3000000Y2911570D01*
X3001000Y2910570D01*
X3002000Y2909570D01*
X3003000Y2908570D01*
X3004000Y2907570D01*
X3005000Y2906570D01*
X3006000Y2905570D01*
X3007000Y2904570D01*
X3008000Y2903570D01*
X3008000Y2902570D01*
X3009000Y2901570D01*
X3010000Y2900570D01*
X3011000Y2899570D01*
X3012000Y2898570D01*
X3013000Y2897570D01*
X3014000Y2896570D01*
X3015000Y2895570D01*
X3016000Y2894570D01*
X3017000Y2893570D01*
X3018000Y2892570D01*
X3018000Y2891570D01*
X3019000Y2890570D01*
X3020000Y2889570D01*
X3021000Y2888570D01*
X3022000Y2887570D01*
X3023000Y2886570D01*
X3024000Y2885570D01*
X3025000Y2884570D01*
X3026000Y2883570D01*
X3026000Y2882570D01*
X3027000Y2881570D01*
X3028000Y2880570D01*
X3029000Y2879570D01*
X3030000Y2878570D01*
X3031000Y2877570D01*
X3032000Y2876570D01*
X3033000Y2875570D01*
X3034000Y2874570D01*
X3034000Y2873570D01*
X3035000Y2872570D01*
X3036000Y2871570D01*
X3037000Y2870570D01*
X3038000Y2869570D01*
X3039000Y2868570D01*
X3040000Y2867570D01*
X3041000Y2866570D01*
X3041000Y2865570D01*
X3042000Y2864570D01*
X3043000Y2863570D01*
X3044000Y2862570D01*
X3045000Y2861570D01*
X3046000Y2860570D01*
X3047000Y2859570D01*
X3047000Y2858570D01*
X3048000Y2857570D01*
X3049000Y2856570D01*
X3050000Y2855570D01*
X3051000Y2854570D01*
X3052000Y2853570D01*
X3052000Y2852570D01*
X3053000Y2851570D01*
X3054000Y2850570D01*
X3055000Y2849570D01*
X3056000Y2848570D01*
X3057000Y2847570D01*
X3058000Y2846570D01*
X3058000Y2845570D01*
X3059000Y2844570D01*
X3060000Y2843570D01*
X3061000Y2842570D01*
X3062000Y2841570D01*
X3063000Y2840570D01*
X3063000Y2839570D01*
X3064000Y2838570D01*
X3065000Y2837570D01*
X3066000Y2836570D01*
X3067000Y2835570D01*
X3068000Y2834570D01*
X3068000Y2833570D01*
X3069000Y2832570D01*
X3070000Y2831570D01*
X3071000Y2830570D01*
X3072000Y2829570D01*
X3072000Y2828570D01*
X3073000Y2827570D01*
X3074000Y2826570D01*
X3075000Y2825570D01*
X3076000Y2824570D01*
X3076000Y2823570D01*
X3077000Y2822570D01*
X3078000Y2821570D01*
X3079000Y2820570D01*
X3080000Y2819570D01*
X3081000Y2818570D01*
X3081000Y2817570D01*
X3082000Y2816570D01*
X3083000Y2815570D01*
X3084000Y2814570D01*
X3085000Y2813570D01*
X3085000Y2812570D01*
X3086000Y2811570D01*
X3087000Y2810570D01*
X3088000Y2809570D01*
X3089000Y2808570D01*
X3089000Y2807570D01*
X3090000Y2806570D01*
X3091000Y2805570D01*
X3092000Y2804570D01*
X3093000Y2803570D01*
X3093000Y2802570D01*
X3094000Y2801570D01*
X3095000Y2800570D01*
X3096000Y2799570D01*
X3096000Y2798570D01*
X3097000Y2797570D01*
X3098000Y2796570D01*
X3099000Y2795570D01*
X3100000Y2794570D01*
X3100000Y2793570D01*
X3101000Y2792570D01*
X3102000Y2791570D01*
X3103000Y2790570D01*
X3103000Y2789570D01*
X3104000Y2788570D01*
X3105000Y2787570D01*
X3106000Y2786570D01*
X3106000Y2785570D01*
X3107000Y2784570D01*
X3108000Y2783570D01*
X3109000Y2782570D01*
X3110000Y2781570D01*
X3110000Y2780570D01*
X3111000Y2779570D01*
X3112000Y2778570D01*
X3113000Y2777570D01*
X3113000Y2776570D01*
X3114000Y2775570D01*
X3115000Y2774570D01*
X3116000Y2773570D01*
X3116000Y2772570D01*
X3117000Y2771570D01*
X3118000Y2770570D01*
X3119000Y2769570D01*
X3119000Y2768570D01*
X3120000Y2767570D01*
X3121000Y2766570D01*
X3122000Y2765570D01*
X3122000Y2764570D01*
X3123000Y2763570D01*
X3124000Y2762570D01*
X3125000Y2761570D01*
X3125000Y2760570D01*
X3126000Y2759570D01*
X3127000Y2758570D01*
X3127000Y2757570D01*
X3128000Y2756570D01*
X3129000Y2755570D01*
X3130000Y2754570D01*
X3130000Y2753570D01*
X3131000Y2752570D01*
X3132000Y2751570D01*
X3133000Y2750570D01*
X3133000Y2749570D01*
X3134000Y2748570D01*
X3135000Y2747570D01*
X3135000Y2746570D01*
X3136000Y2745570D01*
X3137000Y2744570D01*
X3138000Y2743570D01*
X3138000Y2742570D01*
X3139000Y2741570D01*
X3140000Y2740570D01*
X3141000Y2739570D01*
X3141000Y2738570D01*
X3142000Y2737570D01*
X3143000Y2736570D01*
X3143000Y2735570D01*
X3144000Y2734570D01*
X3145000Y2733570D01*
X3146000Y2732570D01*
X3146000Y2731570D01*
X3147000Y2730570D01*
X3148000Y2729570D01*
X3148000Y2728570D01*
X3149000Y2727570D01*
X3150000Y2726570D01*
X3150000Y2725570D01*
X3151000Y2724570D01*
X3152000Y2723570D01*
X3153000Y2722570D01*
X3153000Y2721570D01*
X3154000Y2720570D01*
X3155000Y2719570D01*
X3155000Y2718570D01*
X3156000Y2717570D01*
X3157000Y2716570D01*
X3157000Y2715570D01*
X3158000Y2714570D01*
X3159000Y2713570D01*
X3159000Y2712570D01*
X3160000Y2711570D01*
X3161000Y2710570D01*
X3162000Y2709570D01*
X3162000Y2708570D01*
X3163000Y2707570D01*
X3164000Y2706570D01*
X3164000Y2705570D01*
X3165000Y2704570D01*
X3166000Y2703570D01*
X3166000Y2702570D01*
X3167000Y2701570D01*
X3168000Y2700570D01*
X3168000Y2699570D01*
X3169000Y2698570D01*
X3170000Y2697570D01*
X3170000Y2696570D01*
X3171000Y2695570D01*
X3172000Y2694570D01*
X3172000Y2693570D01*
X3173000Y2692570D01*
X3174000Y2691570D01*
X3174000Y2690570D01*
X3175000Y2689570D01*
X3176000Y2688570D01*
X3176000Y2687570D01*
X3177000Y2686570D01*
X3178000Y2685570D01*
X3178000Y2684570D01*
X3179000Y2683570D01*
X3180000Y2682570D01*
X3180000Y2681570D01*
X3181000Y2680570D01*
X3182000Y2679570D01*
X3182000Y2678570D01*
X3183000Y2677570D01*
X3184000Y2676570D01*
X3184000Y2675570D01*
X3185000Y2674570D01*
X3185000Y2673570D01*
X3186000Y2672570D01*
X3187000Y2671570D01*
X3187000Y2670570D01*
X3188000Y2669570D01*
X3189000Y2668570D01*
X3189000Y2667570D01*
X3190000Y2666570D01*
X3191000Y2665570D01*
X3191000Y2664570D01*
X3192000Y2663570D01*
X3193000Y2662570D01*
X3193000Y2661570D01*
X3194000Y2660570D01*
X3194000Y2659570D01*
X3195000Y2658570D01*
X3196000Y2657570D01*
X3196000Y2656570D01*
X3197000Y2655570D01*
X3198000Y2654570D01*
X3198000Y2653570D01*
X3199000Y2652570D01*
X3199000Y2651570D01*
X3200000Y2650570D01*
X3201000Y2649570D01*
X3201000Y2648570D01*
X3202000Y2647570D01*
X3203000Y2646570D01*
X3203000Y2645570D01*
X3204000Y2644570D01*
X3204000Y2643570D01*
X3205000Y2642570D01*
X3206000Y2641570D01*
X3206000Y2640570D01*
X3207000Y2639570D01*
X3208000Y2638570D01*
X3208000Y2637570D01*
X3209000Y2636570D01*
X3209000Y2635570D01*
X3210000Y2634570D01*
X3211000Y2633570D01*
X3211000Y2632570D01*
X3212000Y2631570D01*
X3213000Y2630570D01*
X3213000Y2629570D01*
X3214000Y2628570D01*
X3214000Y2627570D01*
X3215000Y2626570D01*
X3215000Y2625570D01*
X3216000Y2624570D01*
X3217000Y2623570D01*
X3217000Y2622570D01*
X3218000Y2621570D01*
X3218000Y2620570D01*
X3219000Y2619570D01*
X3220000Y2618570D01*
X3220000Y2617570D01*
X3221000Y2616570D01*
X3221000Y2615570D01*
X3222000Y2614570D01*
X3223000Y2613570D01*
X3223000Y2612570D01*
X3224000Y2611570D01*
X3224000Y2610570D01*
X3225000Y2609570D01*
X3226000Y2608570D01*
X3226000Y2607570D01*
X3227000Y2606570D01*
X3227000Y2605570D01*
X3228000Y2604570D01*
X3229000Y2603570D01*
X3229000Y2602570D01*
X3230000Y2601570D01*
X3230000Y2600570D01*
X3231000Y2599570D01*
X3231000Y2598570D01*
X3232000Y2597570D01*
X3233000Y2596570D01*
X3233000Y2595570D01*
X3234000Y2594570D01*
X3234000Y2593570D01*
X3235000Y2592570D01*
X3235000Y2591570D01*
X3236000Y2590570D01*
X3237000Y2589570D01*
X3237000Y2588570D01*
X3238000Y2587570D01*
X3238000Y2586570D01*
X3239000Y2585570D01*
X3239000Y2584570D01*
X3240000Y2583570D01*
X3241000Y2582570D01*
X3241000Y2581570D01*
X3242000Y2580570D01*
X3242000Y2579570D01*
X3243000Y2578570D01*
X3243000Y2577570D01*
X3244000Y2576570D01*
X3244000Y2575570D01*
X3245000Y2574570D01*
X3246000Y2573570D01*
X3246000Y2572570D01*
X3247000Y2571570D01*
X3247000Y2570570D01*
X3248000Y2569570D01*
X3248000Y2568570D01*
X3249000Y2567570D01*
X3249000Y2566570D01*
X3250000Y2565570D01*
X3251000Y2564570D01*
X3251000Y2563570D01*
X3252000Y2562570D01*
X3252000Y2561570D01*
X3253000Y2560570D01*
X3253000Y2559570D01*
X3254000Y2558570D01*
X3254000Y2557570D01*
X3255000Y2556570D01*
X3256000Y2555570D01*
X3256000Y2554570D01*
X3257000Y2553570D01*
X3257000Y2552570D01*
X3258000Y2551570D01*
X3258000Y2550570D01*
X3259000Y2549570D01*
X3259000Y2548570D01*
X3260000Y2547570D01*
X3260000Y2546570D01*
X3261000Y2545570D01*
X3261000Y2544570D01*
X3262000Y2543570D01*
X3262000Y2542570D01*
X3263000Y2541570D01*
X3264000Y2540570D01*
X3264000Y2539570D01*
X3265000Y2538570D01*
X3265000Y2537570D01*
X3266000Y2536570D01*
X3266000Y2535570D01*
X3267000Y2534570D01*
X3267000Y2533570D01*
X3268000Y2532570D01*
X3268000Y2531570D01*
X3269000Y2530570D01*
X3269000Y2529570D01*
X3270000Y2528570D01*
X3270000Y2527570D01*
X3271000Y2526570D01*
X3271000Y2525570D01*
X3272000Y2524570D01*
X3272000Y2523570D01*
X3273000Y2522570D01*
X3273000Y2521570D01*
X3274000Y2520570D01*
X3274000Y2519570D01*
X3275000Y2518570D01*
X3275000Y2517570D01*
X3276000Y2516570D01*
X3276000Y2515570D01*
X3277000Y2514570D01*
X3277000Y2513570D01*
X3278000Y2512570D01*
X3278000Y2511570D01*
X3279000Y2510570D01*
X3279000Y2509570D01*
X3280000Y2508570D01*
X3280000Y2507570D01*
X3281000Y2506570D01*
X3281000Y2505570D01*
X3282000Y2504570D01*
X3283000Y2503570D01*
X3283000Y2501570D01*
X3284000Y2500570D01*
X3284000Y2499570D01*
X3285000Y2498570D01*
X3285000Y2497570D01*
X3286000Y2496570D01*
X3286000Y2495570D01*
X3287000Y2494570D01*
X3287000Y2493570D01*
X3288000Y2492570D01*
X3288000Y2491570D01*
X3289000Y2490570D01*
X3289000Y2489570D01*
X3290000Y2488570D01*
X3290000Y2487570D01*
X3291000Y2486570D01*
X3291000Y2485570D01*
X3292000Y2484570D01*
X3292000Y2483570D01*
X3293000Y2482570D01*
X3293000Y2481570D01*
X3294000Y2480570D01*
X3294000Y2479570D01*
X3295000Y2478570D01*
X3295000Y2477570D01*
X3296000Y2476570D01*
X3296000Y2475570D01*
X3297000Y2474570D01*
X3297000Y2473570D01*
X3298000Y2472570D01*
X3298000Y2470570D01*
X3299000Y2469570D01*
X3299000Y2468570D01*
X3300000Y2467570D01*
X3300000Y2466570D01*
X3301000Y2465570D01*
X3301000Y2464570D01*
X3302000Y2463570D01*
X3302000Y2462570D01*
X3303000Y2461570D01*
X3303000Y2460570D01*
X3304000Y2459570D01*
X3304000Y2458570D01*
X3305000Y2457570D01*
X3305000Y2455570D01*
X3306000Y2454570D01*
X3306000Y2453570D01*
X3307000Y2452570D01*
X3307000Y2451570D01*
X3308000Y2450570D01*
X3308000Y2449570D01*
X3309000Y2448570D01*
X3309000Y2447570D01*
X3310000Y2446570D01*
X3310000Y2444570D01*
X3311000Y2443570D01*
X3311000Y2442570D01*
X3312000Y2441570D01*
X3312000Y2440570D01*
X3313000Y2439570D01*
X3313000Y2438570D01*
X3314000Y2437570D01*
X3314000Y2435570D01*
X3315000Y2434570D01*
X3315000Y2433570D01*
X3316000Y2432570D01*
X3316000Y2431570D01*
X3317000Y2430570D01*
X3317000Y2429570D01*
X3318000Y2428570D01*
X3318000Y2426570D01*
X3319000Y2425570D01*
X3319000Y2424570D01*
X3320000Y2423570D01*
X3320000Y2422570D01*
X3321000Y2421570D01*
X3321000Y2419570D01*
X3322000Y2418570D01*
X3322000Y2417570D01*
X3323000Y2416570D01*
X3323000Y2415570D01*
X3324000Y2414570D01*
X3324000Y2413570D01*
X3325000Y2412570D01*
X3325000Y2410570D01*
X3326000Y2409570D01*
X3326000Y2408570D01*
X3327000Y2407570D01*
X3327000Y2406570D01*
X3328000Y2405570D01*
X3328000Y2403570D01*
X3329000Y2402570D01*
X3329000Y2401570D01*
X3330000Y2400570D01*
X3330000Y2398570D01*
X3331000Y2397570D01*
X3331000Y2396570D01*
X3332000Y2395570D01*
X3332000Y2393570D01*
X3333000Y2392570D01*
X3333000Y2391570D01*
X3334000Y2390570D01*
X3334000Y2389570D01*
X3335000Y2388570D01*
X3335000Y2386570D01*
X3336000Y2385570D01*
X3336000Y2384570D01*
X3337000Y2383570D01*
X3337000Y2381570D01*
X3338000Y2380570D01*
X3338000Y2379570D01*
X3339000Y2378570D01*
X3339000Y2376570D01*
X3340000Y2375570D01*
X3340000Y2374570D01*
X3341000Y2373570D01*
X3341000Y2371570D01*
X3342000Y2370570D01*
X3342000Y2369570D01*
X3343000Y2368570D01*
X3343000Y2366570D01*
X3344000Y2365570D01*
X3344000Y2364570D01*
X3345000Y2363570D01*
X3345000Y2361570D01*
X3346000Y2360570D01*
X3346000Y2358570D01*
X3347000Y2357570D01*
X3347000Y2356570D01*
X3348000Y2355570D01*
X3348000Y2353570D01*
X3349000Y2352570D01*
X3349000Y2351570D01*
X3350000Y2350570D01*
X3350000Y2348570D01*
X3351000Y2347570D01*
X3351000Y2345570D01*
X3352000Y2344570D01*
X3352000Y2343570D01*
X3353000Y2342570D01*
X3353000Y2340570D01*
X3354000Y2339570D01*
X3354000Y2337570D01*
X3355000Y2336570D01*
X3355000Y2335570D01*
X3356000Y2334570D01*
X3356000Y2332570D01*
X3357000Y2331570D01*
X3357000Y2329570D01*
X3358000Y2328570D01*
X3358000Y2327570D01*
X3359000Y2326570D01*
X3359000Y2324570D01*
X3360000Y2323570D01*
X3360000Y2321570D01*
X3361000Y2320570D01*
X3361000Y2318570D01*
X3362000Y2317570D01*
X3362000Y2315570D01*
X3363000Y2314570D01*
X3363000Y2313570D01*
X3364000Y2312570D01*
X3364000Y2310570D01*
X3365000Y2309570D01*
X3365000Y2307570D01*
X3366000Y2306570D01*
X3366000Y2304570D01*
X3367000Y2303570D01*
X3367000Y2301570D01*
X3368000Y2300570D01*
X3368000Y2298570D01*
X3369000Y2297570D01*
X3369000Y2295570D01*
X3370000Y2294570D01*
X3370000Y2293570D01*
X3371000Y2292570D01*
X3371000Y2290570D01*
X3372000Y2289570D01*
X3372000Y2287570D01*
X3373000Y2286570D01*
X3373000Y2284570D01*
X3374000Y2283570D01*
X3374000Y2281570D01*
X3375000Y2280570D01*
X3375000Y2278570D01*
X3376000Y2277570D01*
X3376000Y2275570D01*
X3377000Y2274570D01*
X3377000Y2272570D01*
X3378000Y2271570D01*
X3378000Y2269570D01*
X3379000Y2268570D01*
X3379000Y2266570D01*
X3380000Y2265570D01*
X3380000Y2262570D01*
X3381000Y2261570D01*
X3381000Y2259570D01*
X3382000Y2258570D01*
X3382000Y2256570D01*
X3383000Y2255570D01*
X3383000Y2253570D01*
X3384000Y2252570D01*
X3384000Y2250570D01*
X3385000Y2249570D01*
X3385000Y2247570D01*
X3386000Y2246570D01*
X3386000Y2243570D01*
X3387000Y2242570D01*
X3387000Y2240570D01*
X3388000Y2239570D01*
X3388000Y2237570D01*
X3389000Y2236570D01*
X3389000Y2233570D01*
X3390000Y2232570D01*
X3390000Y2230570D01*
X3391000Y2229570D01*
X3391000Y2227570D01*
X3392000Y2226570D01*
X3392000Y2223570D01*
X3393000Y2222570D01*
X3393000Y2220570D01*
X3394000Y2219570D01*
X3394000Y2217570D01*
X3395000Y2216570D01*
X3395000Y2213570D01*
X3396000Y2212570D01*
X3396000Y2210570D01*
X3397000Y2209570D01*
X3397000Y2206570D01*
X3398000Y2205570D01*
X3398000Y2203570D01*
X3399000Y2202570D01*
X3399000Y2199570D01*
X3400000Y2198570D01*
X3400000Y2195570D01*
X3401000Y2194570D01*
X3401000Y2192570D01*
X3402000Y2191570D01*
X3402000Y2188570D01*
X3403000Y2187570D01*
X3403000Y2184570D01*
X3404000Y2183570D01*
X3404000Y2181570D01*
X3405000Y2180570D01*
X3405000Y2177570D01*
X3406000Y2176570D01*
X3406000Y2173570D01*
X3407000Y2172570D01*
X3407000Y2169570D01*
X3408000Y2168570D01*
X3408000Y2165570D01*
X3409000Y2164570D01*
X3409000Y2161570D01*
X3410000Y2160570D01*
X3410000Y2158570D01*
X3411000Y2157570D01*
X3411000Y2154570D01*
X3412000Y2153570D01*
X3412000Y2150570D01*
X3413000Y2149570D01*
X3413000Y2146570D01*
X3414000Y2145570D01*
X3414000Y2141570D01*
X3415000Y2140570D01*
X3415000Y2137570D01*
X3416000Y2136570D01*
X3416000Y2133570D01*
X3417000Y2132570D01*
X3417000Y2129570D01*
X3418000Y2128570D01*
X3418000Y2125570D01*
X3419000Y2124570D01*
X3419000Y2120570D01*
X3420000Y2119570D01*
X3420000Y2116570D01*
X3421000Y2115570D01*
X3421000Y2111570D01*
X3422000Y2110570D01*
X3422000Y2107570D01*
X3423000Y2106570D01*
X3423000Y2102570D01*
X3424000Y2101570D01*
X3424000Y2097570D01*
X3425000Y2096570D01*
X3425000Y2093570D01*
X3426000Y2092570D01*
X3426000Y2088570D01*
X3427000Y2087570D01*
X3427000Y2083570D01*
X3428000Y2082570D01*
X3428000Y2078570D01*
X3429000Y2077570D01*
X3429000Y2073570D01*
X3430000Y2072570D01*
X3430000Y2068570D01*
X3431000Y2067570D01*
X3431000Y2063570D01*
X3432000Y2062570D01*
X3432000Y2058570D01*
X3433000Y2057570D01*
X3433000Y2053570D01*
X3434000Y2052570D01*
X3434000Y2047570D01*
X3435000Y2046570D01*
X3435000Y2042570D01*
X3436000Y2041570D01*
X3436000Y2036570D01*
X3437000Y2035570D01*
X3437000Y2030570D01*
X3438000Y2029570D01*
X3438000Y2025570D01*
X3439000Y2024570D01*
X3439000Y2019570D01*
X3440000Y2018570D01*
X3440000Y2012570D01*
X3441000Y2011570D01*
X3441000Y2006570D01*
X3442000Y2005570D01*
X3442000Y2000570D01*
X3443000Y1999570D01*
X3443000Y1993570D01*
X3444000Y1992570D01*
X3444000Y1987570D01*
X3445000Y1986570D01*
X3445000Y1980570D01*
X3446000Y1979570D01*
X3446000Y1973570D01*
X3447000Y1972570D01*
X3447000Y1965570D01*
X3448000Y1964570D01*
X3448000Y1958570D01*
X3449000Y1957570D01*
X3449000Y1950570D01*
X3450000Y1949570D01*
X3450000Y1942570D01*
X3451000Y1941570D01*
X3451000Y1933570D01*
X3452000Y1932570D01*
X3452000Y1924570D01*
X3453000Y1923570D01*
X3453000Y1915570D01*
X3454000Y1914570D01*
X3454000Y1905570D01*
X3455000Y1904570D01*
X3455000Y1895570D01*
X3456000Y1894570D01*
X3456000Y1884570D01*
X3457000Y1883570D01*
X3457000Y1872570D01*
X3458000Y1871570D01*
X3458000Y1858570D01*
X3459000Y1857570D01*
X3459000Y1844570D01*
X3460000Y1843570D01*
X3460000Y1826570D01*
X3461000Y1825570D01*
X3461000Y1805570D01*
X3462000Y1804570D01*
X3462000Y1774570D01*
X3463000Y1773570D01*
X3463000Y1692570D01*
X3462000Y1691570D01*
X3462000Y1661570D01*
X3461000Y1660570D01*
X3461000Y1640570D01*
X3460000Y1639570D01*
X3460000Y1622570D01*
X3459000Y1621570D01*
X3459000Y1608570D01*
X3458000Y1607570D01*
X3458000Y1594570D01*
X3457000Y1593570D01*
X3457000Y1582570D01*
X3456000Y1581570D01*
X3456000Y1571570D01*
X3455000Y1570570D01*
X3455000Y1561570D01*
X3454000Y1560570D01*
X3454000Y1551570D01*
X3453000Y1550570D01*
X3453000Y1542570D01*
X3452000Y1541570D01*
X3452000Y1533570D01*
X3451000Y1532570D01*
X3451000Y1524570D01*
X3450000Y1523570D01*
X3450000Y1516570D01*
X3449000Y1515570D01*
X3449000Y1508570D01*
X3448000Y1507570D01*
X3448000Y1501570D01*
X3447000Y1500570D01*
X3447000Y1493570D01*
X3446000Y1492570D01*
X3446000Y1486570D01*
X3445000Y1485570D01*
X3445000Y1479570D01*
X3444000Y1478570D01*
X3444000Y1473570D01*
X3443000Y1472570D01*
X3443000Y1466570D01*
X3442000Y1465570D01*
X3442000Y1460570D01*
X3441000Y1459570D01*
X3441000Y1454570D01*
X3440000Y1453570D01*
X3440000Y1447570D01*
X3439000Y1446570D01*
X3439000Y1441570D01*
X3438000Y1440570D01*
X3438000Y1436570D01*
X3437000Y1435570D01*
X3437000Y1430570D01*
X3436000Y1429570D01*
X3436000Y1424570D01*
X3435000Y1423570D01*
X3435000Y1419570D01*
X3434000Y1418570D01*
X3434000Y1413570D01*
X3433000Y1412570D01*
X3433000Y1408570D01*
X3432000Y1407570D01*
X3432000Y1403570D01*
X3431000Y1402570D01*
X3431000Y1398570D01*
X3430000Y1397570D01*
X3430000Y1393570D01*
X3429000Y1392570D01*
X3429000Y1388570D01*
X3428000Y1387570D01*
X3428000Y1383570D01*
X3427000Y1382570D01*
X3427000Y1378570D01*
X3426000Y1377570D01*
X3426000Y1373570D01*
X3425000Y1372570D01*
X3425000Y1369570D01*
X3424000Y1368570D01*
X3424000Y1364570D01*
X3423000Y1363570D01*
X3423000Y1359570D01*
X3422000Y1358570D01*
X3422000Y1355570D01*
X3421000Y1354570D01*
X3421000Y1350570D01*
X3420000Y1349570D01*
X3420000Y1346570D01*
X3419000Y1345570D01*
X3419000Y1341570D01*
X3418000Y1340570D01*
X3418000Y1337570D01*
X3417000Y1336570D01*
X3417000Y1333570D01*
X3416000Y1332570D01*
X3416000Y1329570D01*
X3415000Y1328570D01*
X3415000Y1325570D01*
X3414000Y1324570D01*
X3414000Y1320570D01*
X3413000Y1319570D01*
X3413000Y1316570D01*
X3412000Y1315570D01*
X3412000Y1312570D01*
X3411000Y1311570D01*
X3411000Y1309570D01*
X3410000Y1308570D01*
X3410000Y1305570D01*
X3409000Y1304570D01*
X3409000Y1301570D01*
X3408000Y1300570D01*
X3408000Y1297570D01*
X3407000Y1296570D01*
X3407000Y1293570D01*
X3406000Y1292570D01*
X3406000Y1289570D01*
X3405000Y1288570D01*
X3405000Y1285570D01*
X3404000Y1284570D01*
X3404000Y1282570D01*
X3403000Y1281570D01*
X3403000Y1278570D01*
X3402000Y1277570D01*
X3402000Y1274570D01*
X3401000Y1273570D01*
X3401000Y1271570D01*
X3400000Y1270570D01*
X3400000Y1267570D01*
X3399000Y1266570D01*
X3399000Y1263570D01*
X3398000Y1262570D01*
X3398000Y1260570D01*
X3397000Y1259570D01*
X3397000Y1256570D01*
X3396000Y1255570D01*
X3396000Y1253570D01*
X3395000Y1252570D01*
X3395000Y1249570D01*
X3394000Y1248570D01*
X3394000Y1246570D01*
X3393000Y1245570D01*
X3393000Y1243570D01*
X3392000Y1242570D01*
X3392000Y1239570D01*
X3391000Y1238570D01*
X3391000Y1236570D01*
X3390000Y1235570D01*
X3390000Y1233570D01*
X3389000Y1232570D01*
X3389000Y1229570D01*
X3388000Y1228570D01*
X3388000Y1226570D01*
X3387000Y1225570D01*
X3387000Y1223570D01*
X3386000Y1222570D01*
X3386000Y1219570D01*
X3385000Y1218570D01*
X3385000Y1216570D01*
X3384000Y1215570D01*
X3384000Y1213570D01*
X3383000Y1212570D01*
X3383000Y1210570D01*
X3382000Y1209570D01*
X3382000Y1207570D01*
X3381000Y1206570D01*
X3381000Y1204570D01*
X3380000Y1203570D01*
X3380000Y1200570D01*
X3379000Y1199570D01*
X3379000Y1197570D01*
X3378000Y1196570D01*
X3378000Y1194570D01*
X3377000Y1193570D01*
X3377000Y1191570D01*
X3376000Y1190570D01*
X3376000Y1188570D01*
X3375000Y1187570D01*
X3375000Y1185570D01*
X3374000Y1184570D01*
X3374000Y1182570D01*
X3373000Y1181570D01*
X3373000Y1179570D01*
X3372000Y1178570D01*
X3372000Y1176570D01*
X3371000Y1175570D01*
X3371000Y1173570D01*
X3370000Y1172570D01*
X3370000Y1171570D01*
X3369000Y1170570D01*
X3369000Y1168570D01*
X3368000Y1167570D01*
X3368000Y1165570D01*
X3367000Y1164570D01*
X3367000Y1162570D01*
X3366000Y1161570D01*
X3366000Y1159570D01*
X3365000Y1158570D01*
X3365000Y1156570D01*
X3364000Y1155570D01*
X3364000Y1153570D01*
X3363000Y1152570D01*
X3363000Y1151570D01*
X3362000Y1150570D01*
X3362000Y1148570D01*
X3361000Y1147570D01*
X3361000Y1145570D01*
X3360000Y1144570D01*
X3360000Y1142570D01*
X3359000Y1141570D01*
X3359000Y1139570D01*
X3358000Y1138570D01*
X3358000Y1137570D01*
X3357000Y1136570D01*
X3357000Y1134570D01*
X3356000Y1133570D01*
X3356000Y1131570D01*
X3355000Y1130570D01*
X3355000Y1129570D01*
X3354000Y1128570D01*
X3354000Y1126570D01*
X3353000Y1125570D01*
X3353000Y1123570D01*
X3352000Y1122570D01*
X3352000Y1121570D01*
X3351000Y1120570D01*
X3351000Y1118570D01*
X3350000Y1117570D01*
X3350000Y1115570D01*
X3349000Y1114570D01*
X3349000Y1113570D01*
X3348000Y1112570D01*
X3348000Y1110570D01*
X3347000Y1109570D01*
X3347000Y1108570D01*
X3346000Y1107570D01*
X3346000Y1105570D01*
X3345000Y1104570D01*
X3345000Y1102570D01*
X3344000Y1101570D01*
X3344000Y1100570D01*
X3343000Y1099570D01*
X3343000Y1097570D01*
X3342000Y1096570D01*
X3342000Y1095570D01*
X3341000Y1094570D01*
X3341000Y1092570D01*
X3340000Y1091570D01*
X3340000Y1090570D01*
X3339000Y1089570D01*
X3339000Y1087570D01*
X3338000Y1086570D01*
X3338000Y1085570D01*
X3337000Y1084570D01*
X3337000Y1082570D01*
X3336000Y1081570D01*
X3336000Y1080570D01*
X3335000Y1079570D01*
X3335000Y1077570D01*
X3334000Y1076570D01*
X3334000Y1075570D01*
X3333000Y1074570D01*
X3333000Y1073570D01*
X3332000Y1072570D01*
X3332000Y1070570D01*
X3331000Y1069570D01*
X3331000Y1068570D01*
X3330000Y1067570D01*
X3330000Y1065570D01*
X3329000Y1064570D01*
X3329000Y1063570D01*
X3328000Y1062570D01*
X3328000Y1061570D01*
X3327000Y1060570D01*
X3327000Y1058570D01*
X3326000Y1057570D01*
X3326000Y1056570D01*
X3325000Y1055570D01*
X3325000Y1053570D01*
X3324000Y1052570D01*
X3324000Y1051570D01*
X3323000Y1050570D01*
X3323000Y1049570D01*
X3322000Y1048570D01*
X3322000Y1047570D01*
X3321000Y1046570D01*
X3321000Y1044570D01*
X3320000Y1043570D01*
X3320000Y1042570D01*
X3319000Y1041570D01*
X3319000Y1040570D01*
X3318000Y1039570D01*
X3318000Y1037570D01*
X3317000Y1036570D01*
X3317000Y1035570D01*
X3316000Y1034570D01*
X3316000Y1033570D01*
X3315000Y1032570D01*
X3315000Y1031570D01*
X3314000Y1030570D01*
X3314000Y1028570D01*
X3313000Y1027570D01*
X3313000Y1026570D01*
X3312000Y1025570D01*
X3312000Y1024570D01*
X3311000Y1023570D01*
X3311000Y1022570D01*
X3310000Y1021570D01*
X3310000Y1019570D01*
X3309000Y1018570D01*
X3309000Y1017570D01*
X3308000Y1016570D01*
X3308000Y1015570D01*
X3307000Y1014570D01*
X3307000Y1013570D01*
X3306000Y1012570D01*
X3306000Y1011570D01*
X3305000Y1010570D01*
X3305000Y1008570D01*
X3304000Y1007570D01*
X3304000Y1006570D01*
X3303000Y1005570D01*
X3303000Y1004570D01*
X3302000Y1003570D01*
X3302000Y1002570D01*
X3301000Y1001570D01*
X3301000Y1000570D01*
X3300000Y999570D01*
X3300000Y998570D01*
X3299000Y997570D01*
X3299000Y996570D01*
X3298000Y995570D01*
X3298000Y993570D01*
X3297000Y992570D01*
X3297000Y991570D01*
X3296000Y990570D01*
X3296000Y989570D01*
X3295000Y988570D01*
X3295000Y987570D01*
X3294000Y986570D01*
X3294000Y985570D01*
X3293000Y984570D01*
X3293000Y983570D01*
X3292000Y982570D01*
X3292000Y981570D01*
X3291000Y980570D01*
X3291000Y979570D01*
X3290000Y978570D01*
X3290000Y977570D01*
X3289000Y976570D01*
X3289000Y975570D01*
X3288000Y974570D01*
X3288000Y973570D01*
X3287000Y972570D01*
X3287000Y971570D01*
X3286000Y970570D01*
X3286000Y969570D01*
X3285000Y968570D01*
X3285000Y967570D01*
X3284000Y966570D01*
X3284000Y965570D01*
X3283000Y964570D01*
X3283000Y962570D01*
X3282000Y961570D01*
X3281000Y960570D01*
X3281000Y959570D01*
X3280000Y958570D01*
X3280000Y957570D01*
X3279000Y956570D01*
X3279000Y955570D01*
X3278000Y954570D01*
X3278000Y953570D01*
X3277000Y952570D01*
X3277000Y951570D01*
X3276000Y950570D01*
X3276000Y949570D01*
X3275000Y948570D01*
X3275000Y947570D01*
X3274000Y946570D01*
X3274000Y945570D01*
X3273000Y944570D01*
X3273000Y943570D01*
X3272000Y942570D01*
X3272000Y941570D01*
X3271000Y940570D01*
X3271000Y939570D01*
X3270000Y938570D01*
X3270000Y937570D01*
X3269000Y936570D01*
X3269000Y935570D01*
X3268000Y934570D01*
X3268000Y933570D01*
X3267000Y932570D01*
X3267000Y931570D01*
X3266000Y930570D01*
X3266000Y929570D01*
X3265000Y928570D01*
X3265000Y927570D01*
X3264000Y926570D01*
X3264000Y925570D01*
X3263000Y924570D01*
X3262000Y923570D01*
X3262000Y922570D01*
X3261000Y921570D01*
X3261000Y920570D01*
X3260000Y919570D01*
X3260000Y918570D01*
X3259000Y917570D01*
X3259000Y916570D01*
X3258000Y915570D01*
X3258000Y914570D01*
X3257000Y913570D01*
X3257000Y912570D01*
X3256000Y911570D01*
X3256000Y910570D01*
X3255000Y909570D01*
X3254000Y908570D01*
X3254000Y907570D01*
X3253000Y906570D01*
X3253000Y905570D01*
X3252000Y904570D01*
X3252000Y903570D01*
X3251000Y902570D01*
X3251000Y901570D01*
X3250000Y900570D01*
X3249000Y899570D01*
X3249000Y898570D01*
X3248000Y897570D01*
X3248000Y896570D01*
X3247000Y895570D01*
X3247000Y894570D01*
X3246000Y893570D01*
X3246000Y892570D01*
X3245000Y891570D01*
X3244000Y890570D01*
X3244000Y889570D01*
X3243000Y888570D01*
X3243000Y887570D01*
X3242000Y886570D01*
X3242000Y885570D01*
X3241000Y884570D01*
X3241000Y883570D01*
X3240000Y882570D01*
X3239000Y881570D01*
X3239000Y880570D01*
X3238000Y879570D01*
X3238000Y878570D01*
X3237000Y877570D01*
X3237000Y876570D01*
X3236000Y875570D01*
X3235000Y874570D01*
X3235000Y873570D01*
X3234000Y872570D01*
X3234000Y871570D01*
X3233000Y870570D01*
X3233000Y869570D01*
X3232000Y868570D01*
X3231000Y867570D01*
X3231000Y866570D01*
X3230000Y865570D01*
X3230000Y864570D01*
X3229000Y863570D01*
X3228000Y862570D01*
X3228000Y861570D01*
X3227000Y860570D01*
X3227000Y859570D01*
X3226000Y858570D01*
X3226000Y857570D01*
X3225000Y856570D01*
X3224000Y855570D01*
X3224000Y854570D01*
X3223000Y853570D01*
X3223000Y852570D01*
X3222000Y851570D01*
X3221000Y850570D01*
X3221000Y849570D01*
X3220000Y848570D01*
X3220000Y847570D01*
X3219000Y846570D01*
X3218000Y845570D01*
X3218000Y844570D01*
X3217000Y843570D01*
X3217000Y842570D01*
X3216000Y841570D01*
X3215000Y840570D01*
X3215000Y839570D01*
X3214000Y838570D01*
X3214000Y837570D01*
X3213000Y836570D01*
X3213000Y835570D01*
X3212000Y834570D01*
X3211000Y833570D01*
X3211000Y832570D01*
X3210000Y831570D01*
X3209000Y830570D01*
X3209000Y829570D01*
X3208000Y828570D01*
X3208000Y827570D01*
X3207000Y826570D01*
X3206000Y825570D01*
X3206000Y824570D01*
X3205000Y823570D01*
X3204000Y822570D01*
X3204000Y821570D01*
X3203000Y820570D01*
X3203000Y819570D01*
X3202000Y818570D01*
X3201000Y817570D01*
X3201000Y816570D01*
X3200000Y815570D01*
X3199000Y814570D01*
X3199000Y813570D01*
X3198000Y812570D01*
X3198000Y811570D01*
X3197000Y810570D01*
X3196000Y809570D01*
X3196000Y808570D01*
X3195000Y807570D01*
X3194000Y806570D01*
X3194000Y805570D01*
X3193000Y804570D01*
X3193000Y803570D01*
X3192000Y802570D01*
X3191000Y801570D01*
X3191000Y800570D01*
X3190000Y799570D01*
X3189000Y798570D01*
X3189000Y797570D01*
X3188000Y796570D01*
X3187000Y795570D01*
X3187000Y794570D01*
X3186000Y793570D01*
X3185000Y792570D01*
X3185000Y791570D01*
X3184000Y790570D01*
X3184000Y789570D01*
X3183000Y788570D01*
X3182000Y787570D01*
X3182000Y786570D01*
X3181000Y785570D01*
X3180000Y784570D01*
X3180000Y783570D01*
X3179000Y782570D01*
X3178000Y781570D01*
X3178000Y780570D01*
X3177000Y779570D01*
X3176000Y778570D01*
X3176000Y777570D01*
X3175000Y776570D01*
X3174000Y775570D01*
X3174000Y774570D01*
X3173000Y773570D01*
X3172000Y772570D01*
X3172000Y771570D01*
X3171000Y770570D01*
X3170000Y769570D01*
X3170000Y768570D01*
X3169000Y767570D01*
X3168000Y766570D01*
X3168000Y765570D01*
X3167000Y764570D01*
X3166000Y763570D01*
X3166000Y762570D01*
X3165000Y761570D01*
X3164000Y760570D01*
X3164000Y759570D01*
X3163000Y758570D01*
X3162000Y757570D01*
X3162000Y756570D01*
X3161000Y755570D01*
X3160000Y754570D01*
X3159000Y753570D01*
X3159000Y752570D01*
X3158000Y751570D01*
X3157000Y750570D01*
X3157000Y749570D01*
X3156000Y748570D01*
X3155000Y747570D01*
X3155000Y746570D01*
X3154000Y745570D01*
X3153000Y744570D01*
X3152000Y743570D01*
X3152000Y742570D01*
X3151000Y741570D01*
X3150000Y740570D01*
X3150000Y739570D01*
X3149000Y738570D01*
X3148000Y737570D01*
X3148000Y736570D01*
X3147000Y735570D01*
X3146000Y734570D01*
X3146000Y733570D01*
X3145000Y732570D01*
X3144000Y731570D01*
X3143000Y730570D01*
X3143000Y729570D01*
X3142000Y728570D01*
X3141000Y727570D01*
X3141000Y726570D01*
X3140000Y725570D01*
X3139000Y724570D01*
X3138000Y723570D01*
X3138000Y722570D01*
X3137000Y721570D01*
X3136000Y720570D01*
X3135000Y719570D01*
X3135000Y718570D01*
X3134000Y717570D01*
X3133000Y716570D01*
X3133000Y715570D01*
X3132000Y714570D01*
X3131000Y713570D01*
X3130000Y712570D01*
X3130000Y711570D01*
X3129000Y710570D01*
X3128000Y709570D01*
X3127000Y708570D01*
X3127000Y707570D01*
X3126000Y706570D01*
X3125000Y705570D01*
X3125000Y704570D01*
X3124000Y703570D01*
X3123000Y702570D01*
X3122000Y701570D01*
X3122000Y700570D01*
X3121000Y699570D01*
X3120000Y698570D01*
X3119000Y697570D01*
X3119000Y696570D01*
X3118000Y695570D01*
X3117000Y694570D01*
X3116000Y693570D01*
X3116000Y692570D01*
X3115000Y691570D01*
X3114000Y690570D01*
X3113000Y689570D01*
X3113000Y688570D01*
X3112000Y687570D01*
X3111000Y686570D01*
X3110000Y685570D01*
X3110000Y684570D01*
X3109000Y683570D01*
X3108000Y682570D01*
X3107000Y681570D01*
X3106000Y680570D01*
X3106000Y679570D01*
X3105000Y678570D01*
X3104000Y677570D01*
X3103000Y676570D01*
X3103000Y675570D01*
X3102000Y674570D01*
X3101000Y673570D01*
X3100000Y672570D01*
X3100000Y671570D01*
X3099000Y670570D01*
X3098000Y669570D01*
X3097000Y668570D01*
X3096000Y667570D01*
X3096000Y666570D01*
X3095000Y665570D01*
X3094000Y664570D01*
X3093000Y663570D01*
X3093000Y662570D01*
X3092000Y661570D01*
X3091000Y660570D01*
X3090000Y659570D01*
X3089000Y658570D01*
X3089000Y657570D01*
X3088000Y656570D01*
X3087000Y655570D01*
X3086000Y654570D01*
X3085000Y653570D01*
X3085000Y652570D01*
X3084000Y651570D01*
X3083000Y650570D01*
X3082000Y649570D01*
X3081000Y648570D01*
X3081000Y647570D01*
X3080000Y646570D01*
X3079000Y645570D01*
X3078000Y644570D01*
X3077000Y643570D01*
X3076000Y642570D01*
X3076000Y641570D01*
X3075000Y640570D01*
X3074000Y639570D01*
X3073000Y638570D01*
X3072000Y637570D01*
X3072000Y636570D01*
X3071000Y635570D01*
X3070000Y634570D01*
X3069000Y633570D01*
X3068000Y632570D01*
X3068000Y631570D01*
X3067000Y630570D01*
X3066000Y629570D01*
X3065000Y628570D01*
X3064000Y627570D01*
X3063000Y626570D01*
X3063000Y625570D01*
X3062000Y624570D01*
X3061000Y623570D01*
X3060000Y622570D01*
X3059000Y621570D01*
X3058000Y620570D01*
X3057000Y619570D01*
X3057000Y618570D01*
X3056000Y617570D01*
X3055000Y616570D01*
X3054000Y615570D01*
X3053000Y614570D01*
X3052000Y613570D01*
X3052000Y612570D01*
X3051000Y611570D01*
X3050000Y610570D01*
X3049000Y609570D01*
X3048000Y608570D01*
X3047000Y607570D01*
X3047000Y606570D01*
X3046000Y605570D01*
X3045000Y604570D01*
X3044000Y603570D01*
X3043000Y602570D01*
X3042000Y601570D01*
X3041000Y600570D01*
X3041000Y599570D01*
X3040000Y598570D01*
X3039000Y597570D01*
X3038000Y596570D01*
X3037000Y595570D01*
X3036000Y594570D01*
X3035000Y593570D01*
X3034000Y592570D01*
X3033000Y591570D01*
X3033000Y590570D01*
X3032000Y589570D01*
X3031000Y588570D01*
X3030000Y587570D01*
X3029000Y586570D01*
X3028000Y585570D01*
X3027000Y584570D01*
X3026000Y583570D01*
X3026000Y582570D01*
X3025000Y581570D01*
X3024000Y580570D01*
X3023000Y579570D01*
X3022000Y578570D01*
X3021000Y577570D01*
X3020000Y576570D01*
X3019000Y575570D01*
X3018000Y574570D01*
X3018000Y573570D01*
X3017000Y572570D01*
X3016000Y571570D01*
X3015000Y570570D01*
X3014000Y569570D01*
X3013000Y568570D01*
X3012000Y567570D01*
X3011000Y566570D01*
X3010000Y565570D01*
X3009000Y564570D01*
X3008000Y563570D01*
X3008000Y562570D01*
X3007000Y561570D01*
X3006000Y560570D01*
X3005000Y559570D01*
X3004000Y558570D01*
X3003000Y557570D01*
X3002000Y556570D01*
X3001000Y555570D01*
X3000000Y554570D01*
X2999000Y553570D01*
X2998000Y552570D01*
X2997000Y551570D01*
X2996000Y550570D01*
X2995000Y549570D01*
X2994000Y548570D01*
X2994000Y547570D01*
X2993000Y546570D01*
X2992000Y545570D01*
X2991000Y544570D01*
X2990000Y543570D01*
X2989000Y542570D01*
X2988000Y541570D01*
X2987000Y540570D01*
X2986000Y539570D01*
X2985000Y538570D01*
X2984000Y537570D01*
X2983000Y536570D01*
X2982000Y535570D01*
X2981000Y534570D01*
X2980000Y533570D01*
X2979000Y532570D01*
X2978000Y531570D01*
X2977000Y530570D01*
X2976000Y529570D01*
X2975000Y528570D01*
X2974000Y527570D01*
X2973000Y526570D01*
X2972000Y525570D01*
X2972000Y524570D01*
X2971000Y523570D01*
X2970000Y522570D01*
X2969000Y521570D01*
X2968000Y520570D01*
X2967000Y519570D01*
X2966000Y518570D01*
X2965000Y517570D01*
X2964000Y516570D01*
X2963000Y515570D01*
X2962000Y514570D01*
X2961000Y513570D01*
X2960000Y512570D01*
X2959000Y511570D01*
X2958000Y510570D01*
X2957000Y509570D01*
X2956000Y508570D01*
X2955000Y507570D01*
X2954000Y506570D01*
X2953000Y505570D01*
X2952000Y504570D01*
X2951000Y503570D01*
X2950000Y502570D01*
X2949000Y501570D01*
X2948000Y500570D01*
X2947000Y499570D01*
X2946000Y498570D01*
X2945000Y497570D01*
X2944000Y496570D01*
X2943000Y495570D01*
X2942000Y494570D01*
X2941000Y493570D01*
X2940000Y492570D01*
X2939000Y492570D01*
X2938000Y491570D01*
X2937000Y490570D01*
X2936000Y489570D01*
X2935000Y488570D01*
X2934000Y487570D01*
X2933000Y486570D01*
X2932000Y485570D01*
X2931000Y484570D01*
X2930000Y483570D01*
X2929000Y482570D01*
X2928000Y481570D01*
X2927000Y480570D01*
X2926000Y479570D01*
X2925000Y478570D01*
X2924000Y477570D01*
X2923000Y476570D01*
X2922000Y475570D01*
X2921000Y474570D01*
X2920000Y473570D01*
X2919000Y472570D01*
X2918000Y471570D01*
X2917000Y470570D01*
X2916000Y470570D01*
X2915000Y469570D01*
X2914000Y468570D01*
X2913000Y467570D01*
X2912000Y466570D01*
X2911000Y465570D01*
X2910000Y464570D01*
X2909000Y463570D01*
X2908000Y462570D01*
X2907000Y461570D01*
X2906000Y460570D01*
X2905000Y459570D01*
X2904000Y458570D01*
X2903000Y457570D01*
X2902000Y456570D01*
X2901000Y456570D01*
X2900000Y455570D01*
X2899000Y454570D01*
X2898000Y453570D01*
X2897000Y452570D01*
X2896000Y451570D01*
X2895000Y450570D01*
X2894000Y449570D01*
X2893000Y448570D01*
X2892000Y447570D01*
X2891000Y446570D01*
X2890000Y446570D01*
X2889000Y445570D01*
X2888000Y444570D01*
X2887000Y443570D01*
X2886000Y442570D01*
X2885000Y441570D01*
X2884000Y440570D01*
X2883000Y439570D01*
X2882000Y438570D01*
X2881000Y438570D01*
X2880000Y437570D01*
X2879000Y436570D01*
X2878000Y435570D01*
X2877000Y434570D01*
X2876000Y433570D01*
X2875000Y432570D01*
X2874000Y431570D01*
X2873000Y431570D01*
X2872000Y430570D01*
X2871000Y429570D01*
X2870000Y428570D01*
X2869000Y427570D01*
X2868000Y426570D01*
X2867000Y425570D01*
X2866000Y424570D01*
X2865000Y423570D01*
X2864000Y423570D01*
X2863000Y422570D01*
X2862000Y421570D01*
X2861000Y420570D01*
X2860000Y419570D01*
X2859000Y418570D01*
X2858000Y417570D01*
X2857000Y417570D01*
X2856000Y416570D01*
X2855000Y415570D01*
X2854000Y414570D01*
X2853000Y413570D01*
X2852000Y412570D01*
X2851000Y412570D01*
X2850000Y411570D01*
X2849000Y410570D01*
X2848000Y409570D01*
X2847000Y408570D01*
X2846000Y407570D01*
X2845000Y407570D01*
X2844000Y406570D01*
X2843000Y405570D01*
X2842000Y404570D01*
X2841000Y403570D01*
X2840000Y402570D01*
X2839000Y401570D01*
X2838000Y401570D01*
X2837000Y400570D01*
X2836000Y399570D01*
X2835000Y398570D01*
X2834000Y397570D01*
X2833000Y396570D01*
X2832000Y396570D01*
X2831000Y395570D01*
X2830000Y394570D01*
X2829000Y393570D01*
X2828000Y392570D01*
X2827000Y392570D01*
X2826000Y391570D01*
X2825000Y390570D01*
X2824000Y389570D01*
X2823000Y388570D01*
X2822000Y388570D01*
X2821000Y387570D01*
X2820000Y386570D01*
X2819000Y385570D01*
X2818000Y384570D01*
X2817000Y383570D01*
X2816000Y383570D01*
X2815000Y382570D01*
X2814000Y381570D01*
X2813000Y380570D01*
X2812000Y379570D01*
X2811000Y379570D01*
X2810000Y378570D01*
X2809000Y377570D01*
X2808000Y376570D01*
X2807000Y375570D01*
X2806000Y375570D01*
X2805000Y374570D01*
X2804000Y373570D01*
X2803000Y372570D01*
X2802000Y371570D01*
X2801000Y371570D01*
X2800000Y370570D01*
X2799000Y369570D01*
X2798000Y368570D01*
X2797000Y368570D01*
X2796000Y367570D01*
X2795000Y366570D01*
X2794000Y365570D01*
X2793000Y364570D01*
X2792000Y364570D01*
X2791000Y363570D01*
X2790000Y362570D01*
X2789000Y361570D01*
X2788000Y361570D01*
X2787000Y360570D01*
X2786000Y359570D01*
X2785000Y358570D01*
X2784000Y358570D01*
X2783000Y357570D01*
X2782000Y356570D01*
X2781000Y355570D01*
X2780000Y354570D01*
X2779000Y354570D01*
X2778000Y353570D01*
X2777000Y352570D01*
X2776000Y351570D01*
X2775000Y351570D01*
X2774000Y350570D01*
X2773000Y349570D01*
X2772000Y348570D01*
X2771000Y348570D01*
X2770000Y347570D01*
X2769000Y346570D01*
X2768000Y345570D01*
X2767000Y345570D01*
X2766000Y344570D01*
X2765000Y343570D01*
X2764000Y342570D01*
X2763000Y342570D01*
X2762000Y341570D01*
X2761000Y340570D01*
X2760000Y339570D01*
X2759000Y339570D01*
X2758000Y338570D01*
X2757000Y337570D01*
X2756000Y337570D01*
X2755000Y336570D01*
X2754000Y335570D01*
X2753000Y334570D01*
X2752000Y334570D01*
X2751000Y333570D01*
X2750000Y332570D01*
X2749000Y331570D01*
X2748000Y331570D01*
X2747000Y330570D01*
X2746000Y329570D01*
X2745000Y329570D01*
X2744000Y328570D01*
X2743000Y327570D01*
X2742000Y326570D01*
X2741000Y326570D01*
X2740000Y325570D01*
X2739000Y324570D01*
X2738000Y323570D01*
X2737000Y323570D01*
X2736000Y322570D01*
X2735000Y321570D01*
X2734000Y321570D01*
X2733000Y320570D01*
X2732000Y319570D01*
X2731000Y318570D01*
X2730000Y318570D01*
X2729000Y317570D01*
X2728000Y316570D01*
X2727000Y316570D01*
X2726000Y315570D01*
X2725000Y314570D01*
X2724000Y314570D01*
X2723000Y313570D01*
X2722000Y312570D01*
X2721000Y312570D01*
X2720000Y311570D01*
X2719000Y310570D01*
X2718000Y309570D01*
X2717000Y309570D01*
X2716000Y308570D01*
X2715000Y307570D01*
X2714000Y307570D01*
X2713000Y306570D01*
X2712000Y305570D01*
X2711000Y305570D01*
X2710000Y304570D01*
X2709000Y303570D01*
X2708000Y302570D01*
X2707000Y302570D01*
X2706000Y301570D01*
X2705000Y300570D01*
X2704000Y300570D01*
X2703000Y299570D01*
X2702000Y298570D01*
X2701000Y298570D01*
X2700000Y297570D01*
X2699000Y296570D01*
X2698000Y296570D01*
X2697000Y295570D01*
X2696000Y294570D01*
X2695000Y294570D01*
X2694000Y293570D01*
X2693000Y292570D01*
X2692000Y292570D01*
X2691000Y291570D01*
X2690000Y290570D01*
X2689000Y290570D01*
X2688000Y289570D01*
X2687000Y288570D01*
X2686000Y288570D01*
X2685000Y287570D01*
X2684000Y286570D01*
X2683000Y286570D01*
X2682000Y285570D01*
X2681000Y284570D01*
X2680000Y284570D01*
X2679000Y283570D01*
X2678000Y282570D01*
X2677000Y282570D01*
X2676000Y281570D01*
X2675000Y280570D01*
X2674000Y280570D01*
X2673000Y279570D01*
X2672000Y279570D01*
X2671000Y278570D01*
X2670000Y277570D01*
X2669000Y277570D01*
X2668000Y276570D01*
X2667000Y275570D01*
X2666000Y275570D01*
X2665000Y274570D01*
X2664000Y273570D01*
X2663000Y273570D01*
X2662000Y272570D01*
X2661000Y271570D01*
X2660000Y271570D01*
X2659000Y270570D01*
X2658000Y270570D01*
X2657000Y269570D01*
X2656000Y268570D01*
X2655000Y268570D01*
X2654000Y267570D01*
X2653000Y266570D01*
X2652000Y266570D01*
X2651000Y265570D01*
X2650000Y265570D01*
X2649000Y264570D01*
X2648000Y263570D01*
X2647000Y263570D01*
X2646000Y262570D01*
X2645000Y261570D01*
X2644000Y261570D01*
X2643000Y260570D01*
X2642000Y260570D01*
X2641000Y259570D01*
X2640000Y258570D01*
X2639000Y258570D01*
X2638000Y257570D01*
X2637000Y256570D01*
X2636000Y256570D01*
X2635000Y255570D01*
X2634000Y255570D01*
X2633000Y254570D01*
X2632000Y253570D01*
X2631000Y253570D01*
X2630000Y252570D01*
X2629000Y251570D01*
X2628000Y251570D01*
X2627000Y250570D01*
X2626000Y250570D01*
X2625000Y249570D01*
X2624000Y249570D01*
X2623000Y248570D01*
X2622000Y247570D01*
X2621000Y247570D01*
X2620000Y246570D01*
X2619000Y246570D01*
X2618000Y245570D01*
X2617000Y244570D01*
X2616000Y244570D01*
X2615000Y243570D01*
X2614000Y243570D01*
X2613000Y242570D01*
X2612000Y241570D01*
X2611000Y241570D01*
X2610000Y240570D01*
X2609000Y240570D01*
X2608000Y239570D01*
X2607000Y238570D01*
X2606000Y238570D01*
X2605000Y237570D01*
X2604000Y237570D01*
X2603000Y236570D01*
X2602000Y236570D01*
X2601000Y235570D01*
X2600000Y234570D01*
X2599000Y234570D01*
X2598000Y233570D01*
X2597000Y233570D01*
X2596000Y232570D01*
X2595000Y231570D01*
X2594000Y231570D01*
X2593000Y230570D01*
X2592000Y230570D01*
X2591000Y229570D01*
X2590000Y229570D01*
X2589000Y228570D01*
X2588000Y227570D01*
X2587000Y227570D01*
X2586000Y226570D01*
X2585000Y226570D01*
X2584000Y225570D01*
X2583000Y225570D01*
X2582000Y224570D01*
X2581000Y223570D01*
X2580000Y223570D01*
X2579000Y222570D01*
X2578000Y222570D01*
X2577000Y221570D01*
X2576000Y221570D01*
X2575000Y220570D01*
X2574000Y220570D01*
X2573000Y219570D01*
X2572000Y218570D01*
X2571000Y218570D01*
X2570000Y217570D01*
X2569000Y217570D01*
X2568000Y216570D01*
X2567000Y216570D01*
X2566000Y215570D01*
X2565000Y215570D01*
X2564000Y214570D01*
X2563000Y213570D01*
X2562000Y213570D01*
X2561000Y212570D01*
X2560000Y212570D01*
X2559000Y211570D01*
X2558000Y211570D01*
X2557000Y210570D01*
X2556000Y210570D01*
X2555000Y209570D01*
X2554000Y208570D01*
X2553000Y208570D01*
X2552000Y207570D01*
X2551000Y207570D01*
X2550000Y206570D01*
X2549000Y206570D01*
X2548000Y205570D01*
X2547000Y205570D01*
X2546000Y204570D01*
X2545000Y204570D01*
X2544000Y203570D01*
X2543000Y203570D01*
X2542000Y202570D01*
X2541000Y202570D01*
X2540000Y201570D01*
X2539000Y200570D01*
X2538000Y200570D01*
X2537000Y199570D01*
X2536000Y199570D01*
X2535000Y198570D01*
X2534000Y198570D01*
X2533000Y197570D01*
X2532000Y197570D01*
X2531000Y196570D01*
X2530000Y196570D01*
X2529000Y195570D01*
X2528000Y195570D01*
X2527000Y194570D01*
X2526000Y194570D01*
X2525000Y193570D01*
X2524000Y193570D01*
X2523000Y192570D01*
X2522000Y192570D01*
X2521000Y191570D01*
X2520000Y191570D01*
X2519000Y190570D01*
X2518000Y190570D01*
X2517000Y189570D01*
X2516000Y189570D01*
X2515000Y188570D01*
X2514000Y188570D01*
X2513000Y187570D01*
X2512000Y187570D01*
X2511000Y186570D01*
X2510000Y186570D01*
X2509000Y185570D01*
X2508000Y185570D01*
X2507000Y184570D01*
X2506000Y184570D01*
X2505000Y183570D01*
X2504000Y183570D01*
X2503000Y182570D01*
X2502000Y181570D01*
X2501000Y181570D01*
X2500000Y181570D01*
X2499000Y180570D01*
X2498000Y180570D01*
X2497000Y179570D01*
X2496000Y179570D01*
X2495000Y178570D01*
X2494000Y178570D01*
X2493000Y177570D01*
X2492000Y177570D01*
X2491000Y176570D01*
X2490000Y176570D01*
X2489000Y175570D01*
X2488000Y175570D01*
X2487000Y174570D01*
X2486000Y174570D01*
X2485000Y173570D01*
X2484000Y173570D01*
X2483000Y172570D01*
X2482000Y172570D01*
X2481000Y171570D01*
X2480000Y171570D01*
X2479000Y170570D01*
X2478000Y170570D01*
X2477000Y169570D01*
X2476000Y169570D01*
X2475000Y168570D01*
X2474000Y168570D01*
X2473000Y167570D01*
X2472000Y167570D01*
X2471000Y166570D01*
X2470000Y166570D01*
X2469000Y166570D01*
X2468000Y165570D01*
X2467000Y165570D01*
X2466000Y164570D01*
X2465000Y164570D01*
X2464000Y163570D01*
X2463000Y163570D01*
X2462000Y162570D01*
X2461000Y162570D01*
X2460000Y161570D01*
X2459000Y161570D01*
X2458000Y160570D01*
X2457000Y160570D01*
X2456000Y159570D01*
X2455000Y159570D01*
X2454000Y159570D01*
X2453000Y158570D01*
X2452000Y158570D01*
X2451000Y157570D01*
X2450000Y157570D01*
X2449000Y156570D01*
X2448000Y156570D01*
X2447000Y155570D01*
X2446000Y155570D01*
X2445000Y154570D01*
X2444000Y154570D01*
X2443000Y154570D01*
X2442000Y153570D01*
X2441000Y153570D01*
X2440000Y152570D01*
X2439000Y152570D01*
X2438000Y151570D01*
X2437000Y151570D01*
X2436000Y150570D01*
X2435000Y150570D01*
X2434000Y150570D01*
X2433000Y149570D01*
X2432000Y149570D01*
X2431000Y148570D01*
X2430000Y148570D01*
X2429000Y147570D01*
X2428000Y147570D01*
X2427000Y146570D01*
X2426000Y146570D01*
X2425000Y146570D01*
X2424000Y145570D01*
X2423000Y145570D01*
X2422000Y144570D01*
X2421000Y144570D01*
X2420000Y143570D01*
X2419000Y143570D01*
X2418000Y143570D01*
X2417000Y142570D01*
X2416000Y142570D01*
X2415000Y141570D01*
X2414000Y141570D01*
X2413000Y140570D01*
X2412000Y140570D01*
X2411000Y139570D01*
X2410000Y139570D01*
X2409000Y139570D01*
X2408000Y138570D01*
X2407000Y138570D01*
X2406000Y137570D01*
X2405000Y137570D01*
X2404000Y137570D01*
X2403000Y136570D01*
X2402000Y136570D01*
X2401000Y135570D01*
X2400000Y135570D01*
X2399000Y134570D01*
X2398000Y134570D01*
X2397000Y134570D01*
X2396000Y133570D01*
X2395000Y133570D01*
X2394000Y132570D01*
X2393000Y132570D01*
X2392000Y132570D01*
X2391000Y131570D01*
X2390000Y131570D01*
X2389000Y130570D01*
X2388000Y130570D01*
X2387000Y129570D01*
X2386000Y129570D01*
X2385000Y129570D01*
X2384000Y128570D01*
X2383000Y128570D01*
X2382000Y127570D01*
X2381000Y127570D01*
X2380000Y127570D01*
X2379000Y126570D01*
X2378000Y126570D01*
X2377000Y125570D01*
X2376000Y125570D01*
X2375000Y125570D01*
X2374000Y124570D01*
X2373000Y124570D01*
X2372000Y123570D01*
X2371000Y123570D01*
X2370000Y123570D01*
X2369000Y122570D01*
X2368000Y122570D01*
X2367000Y121570D01*
X2366000Y121570D01*
X2365000Y121570D01*
X2364000Y120570D01*
X2363000Y120570D01*
X2362000Y119570D01*
X2361000Y119570D01*
X2360000Y119570D01*
X2359000Y118570D01*
X2358000Y118570D01*
X2357000Y118570D01*
X2356000Y117570D01*
X2355000Y117570D01*
X2354000Y116570D01*
X2353000Y116570D01*
X2352000Y116570D01*
X2351000Y115570D01*
X2350000Y115570D01*
X2349000Y114570D01*
X2348000Y114570D01*
X2347000Y114570D01*
X2346000Y113570D01*
X2345000Y113570D01*
X2344000Y113570D01*
X2343000Y112570D01*
X2342000Y112570D01*
X2341000Y111570D01*
X2340000Y111570D01*
X2339000Y111570D01*
X2338000Y110570D01*
X2337000Y110570D01*
X2336000Y110570D01*
X2335000Y109570D01*
X2334000Y109570D01*
X2333000Y108570D01*
X2332000Y108570D01*
X2331000Y108570D01*
X2330000Y107570D01*
X2329000Y107570D01*
X2328000Y107570D01*
X2327000Y106570D01*
X2326000Y106570D01*
X2325000Y105570D01*
X2324000Y105570D01*
X2323000Y105570D01*
X2322000Y104570D01*
X2321000Y104570D01*
X2320000Y104570D01*
X2319000Y103570D01*
X2318000Y103570D01*
X2317000Y103570D01*
X2316000Y102570D01*
X2315000Y102570D01*
X2314000Y102570D01*
X2313000Y101570D01*
X2312000Y101570D01*
X2311000Y100570D01*
X2310000Y100570D01*
X2309000Y100570D01*
X2308000Y99570D01*
X2307000Y99570D01*
X2306000Y99570D01*
X2305000Y98570D01*
X2304000Y98570D01*
X2303000Y98570D01*
X2302000Y97570D01*
X2301000Y97570D01*
X2300000Y97570D01*
X2299000Y96570D01*
X2298000Y96570D01*
X2297000Y96570D01*
X2296000Y95570D01*
X2295000Y95570D01*
X2294000Y95570D01*
X2293000Y94570D01*
X2292000Y94570D01*
X2291000Y93570D01*
X2290000Y93570D01*
X2289000Y93570D01*
X2288000Y92570D01*
X2287000Y92570D01*
X2286000Y92570D01*
X2285000Y91570D01*
X2284000Y91570D01*
X2283000Y91570D01*
X2282000Y90570D01*
X2281000Y90570D01*
X2280000Y90570D01*
X2279000Y89570D01*
X2278000Y89570D01*
X2277000Y89570D01*
X2276000Y88570D01*
X2275000Y88570D01*
X2274000Y88570D01*
X2273000Y87570D01*
X2272000Y87570D01*
X2271000Y87570D01*
X2270000Y86570D01*
X2269000Y86570D01*
X2268000Y86570D01*
X2267000Y85570D01*
X2266000Y85570D01*
X2265000Y85570D01*
X2264000Y84570D01*
X2263000Y84570D01*
X2262000Y84570D01*
X2261000Y84570D01*
X2260000Y83570D01*
X2259000Y83570D01*
X2258000Y83570D01*
X2257000Y82570D01*
X2256000Y82570D01*
X2255000Y82570D01*
X2254000Y81570D01*
X2253000Y81570D01*
X2252000Y81570D01*
X2251000Y80570D01*
X2250000Y80570D01*
X2249000Y80570D01*
X2248000Y79570D01*
X2247000Y79570D01*
X2246000Y79570D01*
X2245000Y78570D01*
X2244000Y78570D01*
X2243000Y78570D01*
X2242000Y78570D01*
X2241000Y77570D01*
X2240000Y77570D01*
X2239000Y77570D01*
X2238000Y76570D01*
X2237000Y76570D01*
X2236000Y76570D01*
X2235000Y75570D01*
X2234000Y75570D01*
X2233000Y75570D01*
X2232000Y75570D01*
X2231000Y74570D01*
X2230000Y74570D01*
X2229000Y74570D01*
X2228000Y73570D01*
X2227000Y73570D01*
X2226000Y73570D01*
X2225000Y72570D01*
X2224000Y72570D01*
X2223000Y72570D01*
X2222000Y72570D01*
X2221000Y71570D01*
X2220000Y71570D01*
X2219000Y71570D01*
X2218000Y70570D01*
X2217000Y70570D01*
X2216000Y70570D01*
X2215000Y69570D01*
X2214000Y69570D01*
X2213000Y69570D01*
X2212000Y69570D01*
X2211000Y68570D01*
X2210000Y68570D01*
X2209000Y68570D01*
X2208000Y67570D01*
X2207000Y67570D01*
X2206000Y67570D01*
X2205000Y67570D01*
X2204000Y66570D01*
X2203000Y66570D01*
X2202000Y66570D01*
X2201000Y65570D01*
X2200000Y65570D01*
X2199000Y65570D01*
X2198000Y65570D01*
X2197000Y64570D01*
X2196000Y64570D01*
X2195000Y64570D01*
X2194000Y64570D01*
X2193000Y63570D01*
X2192000Y63570D01*
X2191000Y63570D01*
X2190000Y62570D01*
X2189000Y62570D01*
X2188000Y62570D01*
X2187000Y62570D01*
X2186000Y61570D01*
X2185000Y61570D01*
X2184000Y61570D01*
X2183000Y61570D01*
X2182000Y60570D01*
X2181000Y60570D01*
X2180000Y60570D01*
X2179000Y59570D01*
X2178000Y59570D01*
X2177000Y59570D01*
X2176000Y59570D01*
X2175000Y58570D01*
X2174000Y58570D01*
X2173000Y58570D01*
X2172000Y58570D01*
X2171000Y57570D01*
X2170000Y57570D01*
X2169000Y57570D01*
X2168000Y57570D01*
X2167000Y56570D01*
X2166000Y56570D01*
X2165000Y56570D01*
X2164000Y56570D01*
X2163000Y55570D01*
X2162000Y55570D01*
X2161000Y55570D01*
X2160000Y55570D01*
X2159000Y54570D01*
X2158000Y54570D01*
X2157000Y54570D01*
X2156000Y54570D01*
X2155000Y53570D01*
X2154000Y53570D01*
X2153000Y53570D01*
X2152000Y52570D01*
X2151000Y52570D01*
X2150000Y52570D01*
X2149000Y52570D01*
X2148000Y51570D01*
X2147000Y51570D01*
X2146000Y51570D01*
X2145000Y51570D01*
X2144000Y50570D01*
X2143000Y50570D01*
X2142000Y50570D01*
X2141000Y50570D01*
X2140000Y50570D01*
X2139000Y49570D01*
X2138000Y49570D01*
X2137000Y49570D01*
X2136000Y49570D01*
X2135000Y48570D01*
X2134000Y48570D01*
X2133000Y48570D01*
X2132000Y48570D01*
X2131000Y47570D01*
X2130000Y47570D01*
X2129000Y47570D01*
X2128000Y47570D01*
X2127000Y46570D01*
X2126000Y46570D01*
X2125000Y46570D01*
X2124000Y46570D01*
X2123000Y45570D01*
X2122000Y45570D01*
X2121000Y45570D01*
X2120000Y45570D01*
X2119000Y45570D01*
X2118000Y44570D01*
X2117000Y44570D01*
X2116000Y44570D01*
X2115000Y44570D01*
X2114000Y43570D01*
X2113000Y43570D01*
X2112000Y43570D01*
X2111000Y43570D01*
X2110000Y43570D01*
X2109000Y42570D01*
X2108000Y42570D01*
X2107000Y42570D01*
X2106000Y42570D01*
X2105000Y41570D01*
X2104000Y41570D01*
X2103000Y41570D01*
X2102000Y41570D01*
X2101000Y41570D01*
X2100000Y40570D01*
X2099000Y40570D01*
X2098000Y40570D01*
X2097000Y40570D01*
X2096000Y40570D01*
X2095000Y39570D01*
X2094000Y39570D01*
X2093000Y39570D01*
X2092000Y39570D01*
X2091000Y38570D01*
X2090000Y38570D01*
X2089000Y38570D01*
X2088000Y38570D01*
X2087000Y38570D01*
X2086000Y37570D01*
X2085000Y37570D01*
X2084000Y37570D01*
X2083000Y37570D01*
X2082000Y37570D01*
X2081000Y36570D01*
X2080000Y36570D01*
X2079000Y36570D01*
X2078000Y36570D01*
X2077000Y36570D01*
X2076000Y35570D01*
X2075000Y35570D01*
X2074000Y35570D01*
X2073000Y35570D01*
X2072000Y35570D01*
X2071000Y34570D01*
X2070000Y34570D01*
X2069000Y34570D01*
X2068000Y34570D01*
X2067000Y34570D01*
X2066000Y33570D01*
X2065000Y33570D01*
X2064000Y33570D01*
X2063000Y33570D01*
X2062000Y33570D01*
X2061000Y32570D01*
X2060000Y32570D01*
X2059000Y32570D01*
X2058000Y32570D01*
X2057000Y32570D01*
X2056000Y31570D01*
X2055000Y31570D01*
X2054000Y31570D01*
X2053000Y31570D01*
X2052000Y31570D01*
X2051000Y30570D01*
X2050000Y30570D01*
X2049000Y30570D01*
X2048000Y30570D01*
X2047000Y30570D01*
X2046000Y30570D01*
X2045000Y29570D01*
X2044000Y29570D01*
X2043000Y29570D01*
X2042000Y29570D01*
X2041000Y29570D01*
X2040000Y28570D01*
X2039000Y28570D01*
X2038000Y28570D01*
X2037000Y28570D01*
X2036000Y28570D01*
X2035000Y28570D01*
X2034000Y27570D01*
X2033000Y27570D01*
X2032000Y27570D01*
X2031000Y27570D01*
X2030000Y27570D01*
X2029000Y27570D01*
X2028000Y26570D01*
X2027000Y26570D01*
X2026000Y26570D01*
X2025000Y26570D01*
X2024000Y26570D01*
X2023000Y25570D01*
X2022000Y25570D01*
X2021000Y25570D01*
X2020000Y25570D01*
X2019000Y25570D01*
X2018000Y25570D01*
X2017000Y24570D01*
X2016000Y24570D01*
X2015000Y24570D01*
X2014000Y24570D01*
X2013000Y24570D01*
X2012000Y24570D01*
X2011000Y24570D01*
X2010000Y23570D01*
X2009000Y23570D01*
X2008000Y23570D01*
X2007000Y23570D01*
X2006000Y23570D01*
X2005000Y23570D01*
X2004000Y22570D01*
X2003000Y22570D01*
X2002000Y22570D01*
X2001000Y22570D01*
X2000000Y22570D01*
X1999000Y22570D01*
X1998000Y21570D01*
X1997000Y21570D01*
X1996000Y21570D01*
X1995000Y21570D01*
X1994000Y21570D01*
X1993000Y21570D01*
X1992000Y21570D01*
X1991000Y20570D01*
X1990000Y20570D01*
X1989000Y20570D01*
X1988000Y20570D01*
X1987000Y20570D01*
X1986000Y20570D01*
X1985000Y19570D01*
X1984000Y19570D01*
X1983000Y19570D01*
X1982000Y19570D01*
X1981000Y19570D01*
X1980000Y19570D01*
X1979000Y19570D01*
X1978000Y18570D01*
X1977000Y18570D01*
X1976000Y18570D01*
X1975000Y18570D01*
X1974000Y18570D01*
X1973000Y18570D01*
X1972000Y18570D01*
X1971000Y17570D01*
X1970000Y17570D01*
X1969000Y17570D01*
X1968000Y17570D01*
X1967000Y17570D01*
X1966000Y17570D01*
X1965000Y17570D01*
X1964000Y17570D01*
X1963000Y16570D01*
X1962000Y16570D01*
X1961000Y16570D01*
X1960000Y16570D01*
X1959000Y16570D01*
X1958000Y16570D01*
X1957000Y16570D01*
X1956000Y15570D01*
X1955000Y15570D01*
X1954000Y15570D01*
X1953000Y15570D01*
X1952000Y15570D01*
X1951000Y15570D01*
X1950000Y15570D01*
X1949000Y15570D01*
X1948000Y14570D01*
X1947000Y14570D01*
X1946000Y14570D01*
X1945000Y14570D01*
X1944000Y14570D01*
X1943000Y14570D01*
X1942000Y14570D01*
X1941000Y14570D01*
X1940000Y13570D01*
X1939000Y13570D01*
X1938000Y13570D01*
X1937000Y13570D01*
X1936000Y13570D01*
X1935000Y13570D01*
X1934000Y13570D01*
X1933000Y13570D01*
X1932000Y13570D01*
X1931000Y12570D01*
X1930000Y12570D01*
X1929000Y12570D01*
X1928000Y12570D01*
X1927000Y12570D01*
X1926000Y12570D01*
X1925000Y12570D01*
X1924000Y12570D01*
X1923000Y12570D01*
X1922000Y11570D01*
X1921000Y11570D01*
X1920000Y11570D01*
X1919000Y11570D01*
X1918000Y11570D01*
X1917000Y11570D01*
X1916000Y11570D01*
X1915000Y11570D01*
X1914000Y11570D01*
X1913000Y10570D01*
X1912000Y10570D01*
X1911000Y10570D01*
X1910000Y10570D01*
X1909000Y10570D01*
X1908000Y10570D01*
X1907000Y10570D01*
X1906000Y10570D01*
X1905000Y10570D01*
X1904000Y10570D01*
X1903000Y9570D01*
X1902000Y9570D01*
X1901000Y9570D01*
X1900000Y9570D01*
X1899000Y9570D01*
X1898000Y9570D01*
X1897000Y9570D01*
X1896000Y9570D01*
X1895000Y9570D01*
X1894000Y9570D01*
X1893000Y8570D01*
X1892000Y8570D01*
X1891000Y8570D01*
X1890000Y8570D01*
X1889000Y8570D01*
X1888000Y8570D01*
X1887000Y8570D01*
X1886000Y8570D01*
X1885000Y8570D01*
X1884000Y8570D01*
X1883000Y8570D01*
X1882000Y7570D01*
X1881000Y7570D01*
X1880000Y7570D01*
X1879000Y7570D01*
X1878000Y7570D01*
X1877000Y7570D01*
X1876000Y7570D01*
X1875000Y7570D01*
X1874000Y7570D01*
X1873000Y7570D01*
X1872000Y7570D01*
X1871000Y7570D01*
X1870000Y6570D01*
X1869000Y6570D01*
X1868000Y6570D01*
X1867000Y6570D01*
X1866000Y6570D01*
X1865000Y6570D01*
X1864000Y6570D01*
X1863000Y6570D01*
X1862000Y6570D01*
X1861000Y6570D01*
X1860000Y6570D01*
X1859000Y6570D01*
X1858000Y6570D01*
X1857000Y6570D01*
X1856000Y5570D01*
X1855000Y5570D01*
X1854000Y5570D01*
X1853000Y5570D01*
X1852000Y5570D01*
X1851000Y5570D01*
X1850000Y5570D01*
X1849000Y5570D01*
X1848000Y5570D01*
X1847000Y5570D01*
X1846000Y5570D01*
X1845000Y5570D01*
X1844000Y5570D01*
X1843000Y5570D01*
X1842000Y4570D01*
X1841000Y4570D01*
X1840000Y4570D01*
X1839000Y4570D01*
X1838000Y4570D01*
X1837000Y4570D01*
X1836000Y4570D01*
X1835000Y4570D01*
X1834000Y4570D01*
X1833000Y4570D01*
X1832000Y4570D01*
X1831000Y4570D01*
X1830000Y4570D01*
X1829000Y4570D01*
X1828000Y4570D01*
X1827000Y4570D01*
X1826000Y4570D01*
X1825000Y4570D01*
X1824000Y3570D01*
X1823000Y3570D01*
X1822000Y3570D01*
X1821000Y3570D01*
X1820000Y3570D01*
X1819000Y3570D01*
X1818000Y3570D01*
X1817000Y3570D01*
X1816000Y3570D01*
X1815000Y3570D01*
X1814000Y3570D01*
X1813000Y3570D01*
X1812000Y3570D01*
X1811000Y3570D01*
X1810000Y3570D01*
X1809000Y3570D01*
X1808000Y3570D01*
X1807000Y3570D01*
X1806000Y3570D01*
X1805000Y3570D01*
X1804000Y3570D01*
X1803000Y2570D01*
X1802000Y2570D01*
X1801000Y2570D01*
X1800000Y2570D01*
X1799000Y2570D01*
X1798000Y2570D01*
X1797000Y2570D01*
X1796000Y2570D01*
X1795000Y2570D01*
X1794000Y2570D01*
X1793000Y2570D01*
X1792000Y2570D01*
X1791000Y2570D01*
X1790000Y2570D01*
X1789000Y2570D01*
X1788000Y2570D01*
X1787000Y2570D01*
X1786000Y2570D01*
X1785000Y2570D01*
X1784000Y2570D01*
X1783000Y2570D01*
X1782000Y2570D01*
X1781000Y2570D01*
X1780000Y2570D01*
X1779000Y2570D01*
X1778000Y2570D01*
X1777000Y2570D01*
X1776000Y2570D01*
X1775000Y2570D01*
X1774000Y2570D01*
X1773000Y2570D01*
X1772000Y1570D01*
X1771000Y1570D01*
X1770000Y1570D01*
X1769000Y1570D01*
X1768000Y1570D01*
X1767000Y1570D01*
X1766000Y1570D01*
X1765000Y1570D01*
X1764000Y1570D01*
X1763000Y1570D01*
X1762000Y1570D01*
X1761000Y1570D01*
X1760000Y1570D01*
X1759000Y1570D01*
X1758000Y1570D01*
X1757000Y1570D01*
X1756000Y1570D01*
X1755000Y1570D01*
X1754000Y1570D01*
X1753000Y1570D01*
X1752000Y1570D01*
X1751000Y1570D01*
X1750000Y1570D01*
X1749000Y1570D01*
X1748000Y1570D01*
X1747000Y1570D01*
X1746000Y1570D01*
X1745000Y1570D01*
X1744000Y1570D01*
X1743000Y1570D01*
X1742000Y1570D01*
X1741000Y1570D01*
X1740000Y1570D01*
X1739000Y1570D01*
X1738000Y1570D01*
X1737000Y1570D01*
X1736000Y1570D01*
X1735000Y1570D01*
X1734000Y1570D01*
X1733000Y1570D01*
X1732000Y1570D01*
X1731000Y1570D01*
X1730000Y1570D01*
X1729000Y1570D01*
X1728000Y1570D01*
X1727000Y1570D01*
X1726000Y1570D01*
X1725000Y1570D01*
X1724000Y1570D01*
X1723000Y1570D01*
X1722000Y1570D01*
X1721000Y1570D01*
X1720000Y1570D01*
X1719000Y1570D01*
X1718000Y1570D01*
X1717000Y1570D01*
X1716000Y1570D01*
X1715000Y1570D01*
X1714000Y1570D01*
X1713000Y1570D01*
X1712000Y1570D01*
X1711000Y1570D01*
X1710000Y1570D01*
X1709000Y1570D01*
X1708000Y1570D01*
X1707000Y1570D01*
X1706000Y1570D01*
X1705000Y1570D01*
X1704000Y1570D01*
X1703000Y1570D01*
X1702000Y1570D01*
X1701000Y1570D01*
X1700000Y1570D01*
X1699000Y1570D01*
X1698000Y1570D01*
X1697000Y1570D01*
X1696000Y1570D01*
X1695000Y1570D01*
X1694000Y1570D01*
X1693000Y1570D01*
X1692000Y1570D01*
X1691000Y1570D01*
X1690000Y2570D01*
X1689000Y2570D01*
X1688000Y2570D01*
X1687000Y2570D01*
X1686000Y2570D01*
X1685000Y2570D01*
X1684000Y2570D01*
X1683000Y2570D01*
X1682000Y2570D01*
X1681000Y2570D01*
X1680000Y2570D01*
X1679000Y2570D01*
X1678000Y2570D01*
X1677000Y2570D01*
X1676000Y2570D01*
X1675000Y2570D01*
X1674000Y2570D01*
X1673000Y2570D01*
X1672000Y2570D01*
X1671000Y2570D01*
X1670000Y2570D01*
X1669000Y2570D01*
X1668000Y2570D01*
X1667000Y2570D01*
X1666000Y2570D01*
X1665000Y2570D01*
X1664000Y2570D01*
X1663000Y2570D01*
X1662000Y2570D01*
X1661000Y2570D01*
X1660000Y2570D01*
X1659000Y3570D01*
X1658000Y3570D01*
X1657000Y3570D01*
X1656000Y3570D01*
X1655000Y3570D01*
X1654000Y3570D01*
X1653000Y3570D01*
X1652000Y3570D01*
X1651000Y3570D01*
X1650000Y3570D01*
X1649000Y3570D01*
X1648000Y3570D01*
X1647000Y3570D01*
X1646000Y3570D01*
X1645000Y3570D01*
X1644000Y3570D01*
X1643000Y3570D01*
X1642000Y3570D01*
X1641000Y3570D01*
X1640000Y3570D01*
X1639000Y3570D01*
X1638000Y4570D01*
X1637000Y4570D01*
X1636000Y4570D01*
X1635000Y4570D01*
X1634000Y4570D01*
X1633000Y4570D01*
X1632000Y4570D01*
X1631000Y4570D01*
X1630000Y4570D01*
X1629000Y4570D01*
X1628000Y4570D01*
X1627000Y4570D01*
X1626000Y4570D01*
X1625000Y4570D01*
X1624000Y4570D01*
X1623000Y4570D01*
X1622000Y4570D01*
X1621000Y4570D01*
X1620000Y5570D01*
X1619000Y5570D01*
X1618000Y5570D01*
X1617000Y5570D01*
X1616000Y5570D01*
X1615000Y5570D01*
X1614000Y5570D01*
X1613000Y5570D01*
X1612000Y5570D01*
X1611000Y5570D01*
X1610000Y5570D01*
X1609000Y5570D01*
X1608000Y5570D01*
X1607000Y5570D01*
X1606000Y6570D01*
X1605000Y6570D01*
X1604000Y6570D01*
X1603000Y6570D01*
X1602000Y6570D01*
X1601000Y6570D01*
X1600000Y6570D01*
X1599000Y6570D01*
X1598000Y6570D01*
X1597000Y6570D01*
X1596000Y6570D01*
X1595000Y6570D01*
X1594000Y6570D01*
X1593000Y6570D01*
X1592000Y7570D01*
X1591000Y7570D01*
X1590000Y7570D01*
X1589000Y7570D01*
X1588000Y7570D01*
X1587000Y7570D01*
X1586000Y7570D01*
X1585000Y7570D01*
X1584000Y7570D01*
X1583000Y7570D01*
X1582000Y7570D01*
X1581000Y7570D01*
X1580000Y8570D01*
X1579000Y8570D01*
X1578000Y8570D01*
X1577000Y8570D01*
X1576000Y8570D01*
X1575000Y8570D01*
X1574000Y8570D01*
X1573000Y8570D01*
X1572000Y8570D01*
X1571000Y8570D01*
X1570000Y8570D01*
X1569000Y9570D01*
X1568000Y9570D01*
X1567000Y9570D01*
X1566000Y9570D01*
X1565000Y9570D01*
X1564000Y9570D01*
X1563000Y9570D01*
X1562000Y9570D01*
X1561000Y9570D01*
X1560000Y9570D01*
X1559000Y10570D01*
X1558000Y10570D01*
X1557000Y10570D01*
X1556000Y10570D01*
X1555000Y10570D01*
X1554000Y10570D01*
X1553000Y10570D01*
X1552000Y10570D01*
X1551000Y10570D01*
X1550000Y10570D01*
X1549000Y11570D01*
X1548000Y11570D01*
X1547000Y11570D01*
X1546000Y11570D01*
X1545000Y11570D01*
X1544000Y11570D01*
X1543000Y11570D01*
X1542000Y11570D01*
X1541000Y11570D01*
X1540000Y12570D01*
X1539000Y12570D01*
X1538000Y12570D01*
X1537000Y12570D01*
X1536000Y12570D01*
X1535000Y12570D01*
X1534000Y12570D01*
X1533000Y12570D01*
X1532000Y12570D01*
X1531000Y13570D01*
X1530000Y13570D01*
X1529000Y13570D01*
X1528000Y13570D01*
X1527000Y13570D01*
X1526000Y13570D01*
X1525000Y13570D01*
X1524000Y13570D01*
X1523000Y13570D01*
X1522000Y14570D01*
X1521000Y14570D01*
X1520000Y14570D01*
X1519000Y14570D01*
X1518000Y14570D01*
X1517000Y14570D01*
X1516000Y14570D01*
X1515000Y14570D01*
X1514000Y15570D01*
X1513000Y15570D01*
X1512000Y15570D01*
X1511000Y15570D01*
X1510000Y15570D01*
X1509000Y15570D01*
X1508000Y15570D01*
X1507000Y15570D01*
X1506000Y16570D01*
X1505000Y16570D01*
X1504000Y16570D01*
X1503000Y16570D01*
X1502000Y16570D01*
X1501000Y16570D01*
X1500000Y16570D01*
X1499000Y17570D01*
X1498000Y17570D01*
X1497000Y17570D01*
X1496000Y17570D01*
X1495000Y17570D01*
X1494000Y17570D01*
X1493000Y17570D01*
X1492000Y17570D01*
X1491000Y18570D01*
X1490000Y18570D01*
X1489000Y18570D01*
X1488000Y18570D01*
X1487000Y18570D01*
X1486000Y18570D01*
X1485000Y18570D01*
X1484000Y19570D01*
X1483000Y19570D01*
X1482000Y19570D01*
X1481000Y19570D01*
X1480000Y19570D01*
X1479000Y19570D01*
X1478000Y19570D01*
X1477000Y20570D01*
X1476000Y20570D01*
X1475000Y20570D01*
X1474000Y20570D01*
X1473000Y20570D01*
X1472000Y20570D01*
X1471000Y21570D01*
X1470000Y21570D01*
X1469000Y21570D01*
X1468000Y21570D01*
X1467000Y21570D01*
X1466000Y21570D01*
X1465000Y21570D01*
X1464000Y22570D01*
X1463000Y22570D01*
X1462000Y22570D01*
X1461000Y22570D01*
X1460000Y22570D01*
X1459000Y22570D01*
X1458000Y23570D01*
X1457000Y23570D01*
X1456000Y23570D01*
X1455000Y23570D01*
X1454000Y23570D01*
X1453000Y23570D01*
X1452000Y24570D01*
X1451000Y24570D01*
X1450000Y24570D01*
X1449000Y24570D01*
X1448000Y24570D01*
X1447000Y24570D01*
X1446000Y24570D01*
X1445000Y25570D01*
X1444000Y25570D01*
X1443000Y25570D01*
X1442000Y25570D01*
X1441000Y25570D01*
X1440000Y25570D01*
X1439000Y26570D01*
X1438000Y26570D01*
X1437000Y26570D01*
X1436000Y26570D01*
X1435000Y26570D01*
X1434000Y27570D01*
X1433000Y27570D01*
X1432000Y27570D01*
X1431000Y27570D01*
X1430000Y27570D01*
X1429000Y27570D01*
X1428000Y28570D01*
X1427000Y28570D01*
X1426000Y28570D01*
X1425000Y28570D01*
X1424000Y28570D01*
X1423000Y28570D01*
X1422000Y29570D01*
X1421000Y29570D01*
X1420000Y29570D01*
X1419000Y29570D01*
X1418000Y29570D01*
X1417000Y30570D01*
X1416000Y30570D01*
X1415000Y30570D01*
X1414000Y30570D01*
X1413000Y30570D01*
X1412000Y30570D01*
X1411000Y31570D01*
X1410000Y31570D01*
X1409000Y31570D01*
X1408000Y31570D01*
X1407000Y31570D01*
X1406000Y32570D01*
X1405000Y32570D01*
X1404000Y32570D01*
X1403000Y32570D01*
X1402000Y32570D01*
X1401000Y33570D01*
X1400000Y33570D01*
X1399000Y33570D01*
X1398000Y33570D01*
X1397000Y33570D01*
X1396000Y34570D01*
X1395000Y34570D01*
X1394000Y34570D01*
X1393000Y34570D01*
X1392000Y34570D01*
X1391000Y35570D01*
X1390000Y35570D01*
X1389000Y35570D01*
X1388000Y35570D01*
X1387000Y35570D01*
X1386000Y36570D01*
X1385000Y36570D01*
X1384000Y36570D01*
X1383000Y36570D01*
X1382000Y36570D01*
X1381000Y37570D01*
X1380000Y37570D01*
X1379000Y37570D01*
X1378000Y37570D01*
X1377000Y37570D01*
X1376000Y38570D01*
X1375000Y38570D01*
X1374000Y38570D01*
X1373000Y38570D01*
X1372000Y38570D01*
X1371000Y39570D01*
X1370000Y39570D01*
X1369000Y39570D01*
X1368000Y39570D01*
X1367000Y40570D01*
X1366000Y40570D01*
X1365000Y40570D01*
X1364000Y40570D01*
X1363000Y40570D01*
X1362000Y41570D01*
X1361000Y41570D01*
X1360000Y41570D01*
X1359000Y41570D01*
X1358000Y41570D01*
X1357000Y42570D01*
X1356000Y42570D01*
X1355000Y42570D01*
X1354000Y42570D01*
X1353000Y43570D01*
X1352000Y43570D01*
X1351000Y43570D01*
X1350000Y43570D01*
X1349000Y43570D01*
X1348000Y44570D01*
X1347000Y44570D01*
X1346000Y44570D01*
X1345000Y44570D01*
X1344000Y45570D01*
X1343000Y45570D01*
X1342000Y45570D01*
X1341000Y45570D01*
X1340000Y45570D01*
X1339000Y46570D01*
X1338000Y46570D01*
X1337000Y46570D01*
X1336000Y46570D01*
X1335000Y47570D01*
X1334000Y47570D01*
X1333000Y47570D01*
X1332000Y47570D01*
X1331000Y48570D01*
X1330000Y48570D01*
X1329000Y48570D01*
X1328000Y48570D01*
X1327000Y49570D01*
X1326000Y49570D01*
X1325000Y49570D01*
X1324000Y49570D01*
X1323000Y50570D01*
X1322000Y50570D01*
X1321000Y50570D01*
X1320000Y50570D01*
X1319000Y50570D01*
X1318000Y51570D01*
X1317000Y51570D01*
X1316000Y51570D01*
X1315000Y51570D01*
X1314000Y52570D01*
X1313000Y52570D01*
X1312000Y52570D01*
X1311000Y52570D01*
X1310000Y53570D01*
X1309000Y53570D01*
X1308000Y53570D01*
X1307000Y53570D01*
X1306000Y54570D01*
X1305000Y54570D01*
X1304000Y54570D01*
X1303000Y55570D01*
X1302000Y55570D01*
X1301000Y55570D01*
X1300000Y55570D01*
X1299000Y56570D01*
X1298000Y56570D01*
X1297000Y56570D01*
X1296000Y56570D01*
X1295000Y57570D01*
X1294000Y57570D01*
X1293000Y57570D01*
X1292000Y57570D01*
X1291000Y58570D01*
X1290000Y58570D01*
X1289000Y58570D01*
X1288000Y58570D01*
X1287000Y59570D01*
X1286000Y59570D01*
X1285000Y59570D01*
X1284000Y59570D01*
X1283000Y60570D01*
X1282000Y60570D01*
X1281000Y60570D01*
X1280000Y61570D01*
X1279000Y61570D01*
X1278000Y61570D01*
X1277000Y61570D01*
X1276000Y62570D01*
X1275000Y62570D01*
X1274000Y62570D01*
X1273000Y62570D01*
X1272000Y63570D01*
X1271000Y63570D01*
X1270000Y63570D01*
X1269000Y64570D01*
X1268000Y64570D01*
X1267000Y64570D01*
X1266000Y64570D01*
X1265000Y65570D01*
X1264000Y65570D01*
X1263000Y65570D01*
X1262000Y65570D01*
X1261000Y66570D01*
X1260000Y66570D01*
X1259000Y66570D01*
X1258000Y67570D01*
X1257000Y67570D01*
X1256000Y67570D01*
X1255000Y67570D01*
X1254000Y68570D01*
X1253000Y68570D01*
X1252000Y68570D01*
X1251000Y69570D01*
X1250000Y69570D01*
X1249000Y69570D01*
X1248000Y69570D01*
X1247000Y70570D01*
X1246000Y70570D01*
X1245000Y70570D01*
X1244000Y71570D01*
X1243000Y71570D01*
X1242000Y71570D01*
X1241000Y72570D01*
X1240000Y72570D01*
X1239000Y72570D01*
X1238000Y72570D01*
X1237000Y73570D01*
X1236000Y73570D01*
X1235000Y73570D01*
X1234000Y74570D01*
X1233000Y74570D01*
X1232000Y74570D01*
X1231000Y75570D01*
X1230000Y75570D01*
X1229000Y75570D01*
X1228000Y75570D01*
X1227000Y76570D01*
X1226000Y76570D01*
X1225000Y76570D01*
X1224000Y77570D01*
X1223000Y77570D01*
X1222000Y77570D01*
X1221000Y78570D01*
X1220000Y78570D01*
X1219000Y78570D01*
X1218000Y78570D01*
X1217000Y79570D01*
X1216000Y79570D01*
X1215000Y79570D01*
X1214000Y80570D01*
X1213000Y80570D01*
X1212000Y80570D01*
X1211000Y81570D01*
X1210000Y81570D01*
X1209000Y81570D01*
X1208000Y82570D01*
X1207000Y82570D01*
X1206000Y82570D01*
X1205000Y83570D01*
X1204000Y83570D01*
X1203000Y83570D01*
X1202000Y84570D01*
X1201000Y84570D01*
X1200000Y84570D01*
X1199000Y84570D01*
X1198000Y85570D01*
X1197000Y85570D01*
X1196000Y85570D01*
X1195000Y86570D01*
X1194000Y86570D01*
X1193000Y86570D01*
X1192000Y87570D01*
X1191000Y87570D01*
X1190000Y87570D01*
X1189000Y88570D01*
X1188000Y88570D01*
X1187000Y88570D01*
X1186000Y89570D01*
X1185000Y89570D01*
X1184000Y89570D01*
X1183000Y90570D01*
X1182000Y90570D01*
X1181000Y90570D01*
X1180000Y91570D01*
X1179000Y91570D01*
X1178000Y91570D01*
X1177000Y92570D01*
X1176000Y92570D01*
X1175000Y92570D01*
X1174000Y93570D01*
X1173000Y93570D01*
X1172000Y93570D01*
X1171000Y94570D01*
X1170000Y94570D01*
X1169000Y95570D01*
X1168000Y95570D01*
X1167000Y95570D01*
X1166000Y96570D01*
X1165000Y96570D01*
X1164000Y96570D01*
X1163000Y97570D01*
X1162000Y97570D01*
X1161000Y97570D01*
X1160000Y98570D01*
X1159000Y98570D01*
X1158000Y98570D01*
X1157000Y99570D01*
X1156000Y99570D01*
X1155000Y99570D01*
X1154000Y100570D01*
X1153000Y100570D01*
X1152000Y100570D01*
X1151000Y101570D01*
X1150000Y101570D01*
X1149000Y102570D01*
X1148000Y102570D01*
X1147000Y102570D01*
X1146000Y103570D01*
X1145000Y103570D01*
X1144000Y103570D01*
X1143000Y104570D01*
X1142000Y104570D01*
X1141000Y104570D01*
X1140000Y105570D01*
X1139000Y105570D01*
X1138000Y105570D01*
X1137000Y106570D01*
X1136000Y106570D01*
X1135000Y107570D01*
X1134000Y107570D01*
X1133000Y107570D01*
X1132000Y108570D01*
X1131000Y108570D01*
X1130000Y108570D01*
X1129000Y109570D01*
X1128000Y109570D01*
X1127000Y110570D01*
X1126000Y110570D01*
X1125000Y110570D01*
X1124000Y111570D01*
X1123000Y111570D01*
X1122000Y111570D01*
X1121000Y112570D01*
X1120000Y112570D01*
X1119000Y113570D01*
X1118000Y113570D01*
X1117000Y113570D01*
X1116000Y114570D01*
X1115000Y114570D01*
X1114000Y114570D01*
X1113000Y115570D01*
X1112000Y115570D01*
X1111000Y116570D01*
X1110000Y116570D01*
X1109000Y116570D01*
X1108000Y117570D01*
X1107000Y117570D01*
X1106000Y118570D01*
X1105000Y118570D01*
X1104000Y118570D01*
X1103000Y119570D01*
X1102000Y119570D01*
X1101000Y119570D01*
X1100000Y120570D01*
X1099000Y120570D01*
X1098000Y121570D01*
X1097000Y121570D01*
X1096000Y121570D01*
X1095000Y122570D01*
X1094000Y122570D01*
X1093000Y123570D01*
X1092000Y123570D01*
X1091000Y123570D01*
X1090000Y124570D01*
X1089000Y124570D01*
X1088000Y125570D01*
X1087000Y125570D01*
X1086000Y125570D01*
X1085000Y126570D01*
X1084000Y126570D01*
X1083000Y127570D01*
X1082000Y127570D01*
X1081000Y127570D01*
X1080000Y128570D01*
X1079000Y128570D01*
X1078000Y129570D01*
X1077000Y129570D01*
X1076000Y129570D01*
X1075000Y130570D01*
X1074000Y130570D01*
X1073000Y131570D01*
X1072000Y131570D01*
X1071000Y132570D01*
X1070000Y132570D01*
X1069000Y132570D01*
X1068000Y133570D01*
X1067000Y133570D01*
X1066000Y134570D01*
X1065000Y134570D01*
X1064000Y134570D01*
X1063000Y135570D01*
X1062000Y135570D01*
X1061000Y136570D01*
X1060000Y136570D01*
X1059000Y136570D01*
X1058000Y137570D01*
X1057000Y137570D01*
X1056000Y138570D01*
X1055000Y138570D01*
X1054000Y139570D01*
X1053000Y139570D01*
X1052000Y139570D01*
X1051000Y140570D01*
X1050000Y140570D01*
X1049000Y141570D01*
X1048000Y141570D01*
X1047000Y142570D01*
X1046000Y142570D01*
X1045000Y143570D01*
X1044000Y143570D01*
X1043000Y143570D01*
X1042000Y144570D01*
X1041000Y144570D01*
X1040000Y145570D01*
X1039000Y145570D01*
X1038000Y146570D01*
X1037000Y146570D01*
X1036000Y146570D01*
X1035000Y147570D01*
X1034000Y147570D01*
X1033000Y148570D01*
X1032000Y148570D01*
X1031000Y149570D01*
X1030000Y149570D01*
X1029000Y150570D01*
X1028000Y150570D01*
X1027000Y150570D01*
X1026000Y151570D01*
X1025000Y151570D01*
X1024000Y152570D01*
X1023000Y152570D01*
X1022000Y153570D01*
X1021000Y153570D01*
X1020000Y154570D01*
X1019000Y154570D01*
X1018000Y154570D01*
X1017000Y155570D01*
X1016000Y155570D01*
X1015000Y156570D01*
X1014000Y156570D01*
X1013000Y157570D01*
X1012000Y157570D01*
X1011000Y158570D01*
X1010000Y158570D01*
X1009000Y159570D01*
X1008000Y159570D01*
X1007000Y159570D01*
X1006000Y160570D01*
X1005000Y160570D01*
X1004000Y161570D01*
X1003000Y161570D01*
X1002000Y162570D01*
X1001000Y162570D01*
X1000000Y163570D01*
X999000Y163570D01*
X998000Y164570D01*
X997000Y164570D01*
X996000Y165570D01*
X995000Y165570D01*
X994000Y166570D01*
X993000Y166570D01*
X992000Y166570D01*
X991000Y167570D01*
X990000Y167570D01*
X989000Y168570D01*
X988000Y168570D01*
X987000Y169570D01*
X986000Y169570D01*
X985000Y170570D01*
X984000Y170570D01*
X983000Y171570D01*
X982000Y171570D01*
X981000Y172570D01*
X980000Y172570D01*
X979000Y173570D01*
X978000Y173570D01*
X977000Y174570D01*
X976000Y174570D01*
X975000Y175570D01*
X974000Y175570D01*
X973000Y176570D01*
X972000Y176570D01*
X971000Y177570D01*
X970000Y177570D01*
X969000Y178570D01*
X968000Y178570D01*
X967000Y179570D01*
X966000Y179570D01*
X965000Y180570D01*
X964000Y180570D01*
X963000Y181570D01*
X962000Y181570D01*
X961000Y181570D01*
X960000Y182570D01*
X959000Y183570D01*
X958000Y183570D01*
X957000Y184570D01*
X956000Y184570D01*
X955000Y185570D01*
X954000Y185570D01*
X953000Y186570D01*
X952000Y186570D01*
X951000Y187570D01*
X950000Y187570D01*
X949000Y188570D01*
X948000Y188570D01*
X947000Y189570D01*
X946000Y189570D01*
X945000Y190570D01*
X944000Y190570D01*
X943000Y191570D01*
X942000Y191570D01*
X941000Y192570D01*
X940000Y192570D01*
X939000Y193570D01*
X938000Y193570D01*
X937000Y194570D01*
X936000Y194570D01*
X935000Y195570D01*
X934000Y195570D01*
X933000Y196570D01*
X932000Y196570D01*
X931000Y197570D01*
X930000Y197570D01*
X929000Y198570D01*
X928000Y198570D01*
X927000Y199570D01*
X926000Y199570D01*
X925000Y200570D01*
X924000Y200570D01*
X923000Y201570D01*
X922000Y202570D01*
X921000Y202570D01*
X920000Y203570D01*
X919000Y203570D01*
X918000Y204570D01*
X917000Y204570D01*
X916000Y205570D01*
X915000Y205570D01*
X914000Y206570D01*
X913000Y206570D01*
X912000Y207570D01*
X911000Y207570D01*
X910000Y208570D01*
X909000Y208570D01*
X908000Y209570D01*
X907000Y210570D01*
X906000Y210570D01*
X905000Y211570D01*
X904000Y211570D01*
X903000Y212570D01*
X902000Y212570D01*
X901000Y213570D01*
X900000Y213570D01*
X899000Y214570D01*
X898000Y215570D01*
X897000Y215570D01*
X896000Y216570D01*
X895000Y216570D01*
X894000Y217570D01*
X893000Y217570D01*
X892000Y218570D01*
X891000Y218570D01*
X890000Y219570D01*
X889000Y220570D01*
X888000Y220570D01*
X887000Y221570D01*
X886000Y221570D01*
X885000Y222570D01*
X884000Y222570D01*
X883000Y223570D01*
X882000Y223570D01*
X881000Y224570D01*
X880000Y225570D01*
X879000Y225570D01*
X878000Y226570D01*
X877000Y226570D01*
X876000Y227570D01*
X875000Y227570D01*
X874000Y228570D01*
X873000Y229570D01*
X872000Y229570D01*
X871000Y230570D01*
X870000Y230570D01*
X869000Y231570D01*
X868000Y231570D01*
X867000Y232570D01*
X866000Y233570D01*
X865000Y233570D01*
X864000Y234570D01*
X863000Y234570D01*
X862000Y235570D01*
X861000Y235570D01*
X860000Y236570D01*
X859000Y237570D01*
X858000Y237570D01*
X857000Y238570D01*
X856000Y238570D01*
X855000Y239570D01*
X854000Y240570D01*
X853000Y240570D01*
X852000Y241570D01*
X851000Y241570D01*
X850000Y242570D01*
X849000Y243570D01*
X848000Y243570D01*
X847000Y244570D01*
X846000Y244570D01*
X845000Y245570D01*
X844000Y246570D01*
X843000Y246570D01*
X842000Y247570D01*
X841000Y247570D01*
X840000Y248570D01*
X839000Y249570D01*
X838000Y249570D01*
X837000Y250570D01*
X836000Y250570D01*
X835000Y251570D01*
X834000Y251570D01*
X833000Y252570D01*
X832000Y253570D01*
X831000Y253570D01*
X830000Y254570D01*
X829000Y255570D01*
X828000Y255570D01*
X827000Y256570D01*
X826000Y256570D01*
X825000Y257570D01*
X824000Y258570D01*
X823000Y258570D01*
X822000Y259570D01*
X821000Y260570D01*
X820000Y260570D01*
X819000Y261570D01*
X818000Y261570D01*
X817000Y262570D01*
X816000Y263570D01*
X815000Y263570D01*
X814000Y264570D01*
X813000Y265570D01*
X812000Y265570D01*
X811000Y266570D01*
X810000Y266570D01*
X809000Y267570D01*
X808000Y268570D01*
X807000Y268570D01*
X806000Y269570D01*
X805000Y270570D01*
X804000Y270570D01*
X803000Y271570D01*
X802000Y271570D01*
X801000Y272570D01*
X800000Y273570D01*
X799000Y273570D01*
X798000Y274570D01*
X797000Y275570D01*
X796000Y275570D01*
X795000Y276570D01*
X794000Y277570D01*
X793000Y277570D01*
X792000Y278570D01*
X791000Y279570D01*
X790000Y279570D01*
X789000Y280570D01*
X788000Y280570D01*
X787000Y281570D01*
X786000Y282570D01*
X785000Y282570D01*
X784000Y283570D01*
X783000Y284570D01*
X782000Y284570D01*
X781000Y285570D01*
X780000Y286570D01*
X779000Y286570D01*
X778000Y287570D01*
X777000Y288570D01*
X776000Y288570D01*
X775000Y289570D01*
X774000Y290570D01*
X773000Y290570D01*
X772000Y291570D01*
X771000Y292570D01*
X770000Y292570D01*
X769000Y293570D01*
X768000Y294570D01*
X767000Y294570D01*
X766000Y295570D01*
X765000Y296570D01*
X764000Y296570D01*
X763000Y297570D01*
X762000Y298570D01*
X761000Y298570D01*
X760000Y299570D01*
X759000Y300570D01*
X758000Y300570D01*
X757000Y301570D01*
X756000Y302570D01*
X755000Y302570D01*
X754000Y303570D01*
X753000Y304570D01*
X752000Y305570D01*
X751000Y305570D01*
X750000Y306570D01*
X749000Y307570D01*
X748000Y307570D01*
X747000Y308570D01*
X746000Y309570D01*
X745000Y309570D01*
X744000Y310570D01*
X743000Y311570D01*
X742000Y311570D01*
X741000Y312570D01*
X740000Y313570D01*
X739000Y314570D01*
X738000Y314570D01*
X737000Y315570D01*
X736000Y316570D01*
X735000Y316570D01*
X734000Y317570D01*
X733000Y318570D01*
X732000Y318570D01*
X731000Y319570D01*
X730000Y320570D01*
X729000Y321570D01*
X728000Y321570D01*
X727000Y322570D01*
X726000Y323570D01*
X725000Y323570D01*
X724000Y324570D01*
X723000Y325570D01*
X722000Y326570D01*
X721000Y326570D01*
X720000Y327570D01*
X719000Y328570D01*
X718000Y329570D01*
X717000Y329570D01*
X716000Y330570D01*
X715000Y331570D01*
X714000Y331570D01*
X713000Y332570D01*
X712000Y333570D01*
X711000Y334570D01*
X710000Y334570D01*
X709000Y335570D01*
X708000Y336570D01*
X707000Y337570D01*
X706000Y337570D01*
X705000Y338570D01*
X704000Y339570D01*
X703000Y339570D01*
X702000Y340570D01*
X701000Y341570D01*
X700000Y342570D01*
X699000Y342570D01*
X698000Y343570D01*
X697000Y344570D01*
X696000Y345570D01*
X695000Y345570D01*
X694000Y346570D01*
X693000Y347570D01*
X692000Y348570D01*
X691000Y348570D01*
X690000Y349570D01*
X689000Y350570D01*
X688000Y351570D01*
X687000Y351570D01*
X686000Y352570D01*
X685000Y353570D01*
X684000Y354570D01*
X683000Y354570D01*
X682000Y355570D01*
X681000Y356570D01*
X680000Y357570D01*
X679000Y358570D01*
X678000Y358570D01*
X677000Y359570D01*
X676000Y360570D01*
X675000Y361570D01*
X674000Y361570D01*
X673000Y362570D01*
X672000Y363570D01*
X671000Y364570D01*
X670000Y364570D01*
X669000Y365570D01*
X668000Y366570D01*
X667000Y367570D01*
X666000Y368570D01*
X665000Y368570D01*
X664000Y369570D01*
X663000Y370570D01*
X662000Y371570D01*
X661000Y371570D01*
X660000Y372570D01*
X659000Y373570D01*
X658000Y374570D01*
X657000Y375570D01*
X656000Y375570D01*
X655000Y376570D01*
X654000Y377570D01*
X653000Y378570D01*
X652000Y379570D01*
X651000Y379570D01*
X650000Y380570D01*
X649000Y381570D01*
X648000Y382570D01*
X647000Y383570D01*
X646000Y383570D01*
X645000Y384570D01*
X644000Y385570D01*
X643000Y386570D01*
X642000Y387570D01*
X641000Y387570D01*
X640000Y388570D01*
X639000Y389570D01*
X638000Y390570D01*
X637000Y391570D01*
X636000Y392570D01*
X635000Y392570D01*
X634000Y393570D01*
X633000Y394570D01*
X632000Y395570D01*
X631000Y396570D01*
X630000Y396570D01*
X629000Y397570D01*
X628000Y398570D01*
X627000Y399570D01*
X626000Y400570D01*
X625000Y401570D01*
X624000Y401570D01*
X623000Y402570D01*
X622000Y403570D01*
X621000Y404570D01*
X620000Y405570D01*
X619000Y406570D01*
X618000Y406570D01*
X617000Y407570D01*
X616000Y408570D01*
X615000Y409570D01*
X614000Y410570D01*
X613000Y411570D01*
X612000Y412570D01*
X611000Y412570D01*
X610000Y413570D01*
X609000Y414570D01*
X608000Y415570D01*
X607000Y416570D01*
X606000Y417570D01*
X605000Y417570D01*
X604000Y418570D01*
X603000Y419570D01*
X602000Y420570D01*
X601000Y421570D01*
X600000Y422570D01*
X599000Y423570D01*
X598000Y423570D01*
X597000Y424570D01*
X596000Y425570D01*
X595000Y426570D01*
X594000Y427570D01*
X593000Y428570D01*
X592000Y429570D01*
X591000Y430570D01*
X590000Y430570D01*
X589000Y431570D01*
X588000Y432570D01*
X587000Y433570D01*
X586000Y434570D01*
X585000Y435570D01*
X584000Y436570D01*
X583000Y437570D01*
X582000Y438570D01*
X581000Y438570D01*
X580000Y439570D01*
X579000Y440570D01*
X578000Y441570D01*
X577000Y442570D01*
X576000Y443570D01*
X575000Y444570D01*
X574000Y445570D01*
X573000Y446570D01*
X572000Y446570D01*
X571000Y447570D01*
X570000Y448570D01*
X569000Y449570D01*
X568000Y450570D01*
X567000Y451570D01*
X566000Y452570D01*
X565000Y453570D01*
X564000Y454570D01*
X563000Y455570D01*
X562000Y456570D01*
X561000Y456570D01*
X560000Y457570D01*
X559000Y458570D01*
X558000Y459570D01*
X557000Y460570D01*
X556000Y461570D01*
X555000Y462570D01*
X554000Y463570D01*
X553000Y464570D01*
X552000Y465570D01*
X551000Y466570D01*
X550000Y467570D01*
X549000Y468570D01*
X548000Y469570D01*
X547000Y470570D01*
X546000Y470570D01*
X545000Y471570D01*
X544000Y472570D01*
X543000Y473570D01*
X542000Y474570D01*
X541000Y475570D01*
X540000Y476570D01*
X539000Y477570D01*
X538000Y478570D01*
X537000Y479570D01*
X536000Y480570D01*
X535000Y481570D01*
X534000Y482570D01*
X533000Y483570D01*
X532000Y484570D01*
X531000Y485570D01*
X530000Y486570D01*
X529000Y487570D01*
X528000Y488570D01*
X527000Y489570D01*
X526000Y490570D01*
X525000Y491570D01*
X524000Y491570D01*
X523000Y492570D01*
X522000Y493570D01*
X521000Y494570D01*
X520000Y495570D01*
X519000Y496570D01*
X518000Y497570D01*
X517000Y498570D01*
X516000Y499570D01*
X515000Y500570D01*
X514000Y501570D01*
X513000Y502570D01*
X512000Y503570D01*
X511000Y504570D01*
X510000Y505570D01*
X509000Y506570D01*
X508000Y507570D01*
X507000Y508570D01*
X506000Y509570D01*
X505000Y510570D01*
X504000Y511570D01*
X503000Y512570D01*
X502000Y513570D01*
X501000Y514570D01*
X500000Y515570D01*
X499000Y516570D01*
X498000Y517570D01*
X497000Y518570D01*
X496000Y519570D01*
X495000Y520570D01*
X494000Y521570D01*
X493000Y522570D01*
X492000Y523570D01*
X491000Y524570D01*
X490000Y525570D01*
X490000Y526570D01*
X489000Y527570D01*
X488000Y528570D01*
X487000Y529570D01*
X486000Y530570D01*
X485000Y531570D01*
X484000Y532570D01*
X483000Y533570D01*
X482000Y534570D01*
X481000Y535570D01*
X480000Y536570D01*
X479000Y537570D01*
X478000Y538570D01*
X477000Y539570D01*
X476000Y540570D01*
X475000Y541570D01*
X474000Y542570D01*
X473000Y543570D01*
X472000Y544570D01*
X471000Y545570D01*
X470000Y546570D01*
X469000Y547570D01*
X469000Y548570D01*
X468000Y549570D01*
X467000Y550570D01*
X466000Y551570D01*
X465000Y552570D01*
X464000Y553570D01*
X463000Y554570D01*
X462000Y555570D01*
X461000Y556570D01*
X460000Y557570D01*
X459000Y558570D01*
X458000Y559570D01*
X457000Y560570D01*
X456000Y561570D01*
X455000Y562570D01*
X455000Y563570D01*
X454000Y564570D01*
X453000Y565570D01*
X452000Y566570D01*
X451000Y567570D01*
X450000Y568570D01*
X449000Y569570D01*
X448000Y570570D01*
X447000Y571570D01*
X446000Y572570D01*
X445000Y573570D01*
X445000Y574570D01*
X444000Y575570D01*
X443000Y576570D01*
X442000Y577570D01*
X441000Y578570D01*
X440000Y579570D01*
X439000Y580570D01*
X438000Y581570D01*
X437000Y582570D01*
X437000Y583570D01*
X436000Y584570D01*
X435000Y585570D01*
X434000Y586570D01*
X433000Y587570D01*
X432000Y588570D01*
X431000Y589570D01*
X430000Y590570D01*
X429000Y591570D01*
X429000Y592570D01*
X428000Y593570D01*
X427000Y594570D01*
X426000Y595570D01*
X425000Y596570D01*
X424000Y597570D01*
X423000Y598570D01*
X422000Y599570D01*
X422000Y600570D01*
X421000Y601570D01*
X420000Y602570D01*
X419000Y603570D01*
X418000Y604570D01*
X417000Y605570D01*
X416000Y606570D01*
X416000Y607570D01*
X415000Y608570D01*
X414000Y609570D01*
X413000Y610570D01*
X412000Y611570D01*
X411000Y612570D01*
X411000Y613570D01*
X410000Y614570D01*
X409000Y615570D01*
X408000Y616570D01*
X407000Y617570D01*
X406000Y618570D01*
X405000Y619570D01*
X405000Y620570D01*
X404000Y621570D01*
X403000Y622570D01*
X402000Y623570D01*
X401000Y624570D01*
X400000Y625570D01*
X400000Y626570D01*
X399000Y627570D01*
X398000Y628570D01*
X397000Y629570D01*
X396000Y630570D01*
X395000Y631570D01*
X395000Y632570D01*
X394000Y633570D01*
X393000Y634570D01*
X392000Y635570D01*
X391000Y636570D01*
X391000Y637570D01*
X390000Y638570D01*
X389000Y639570D01*
X388000Y640570D01*
X387000Y641570D01*
X387000Y642570D01*
X386000Y643570D01*
X385000Y644570D01*
X384000Y645570D01*
X383000Y646570D01*
X382000Y647570D01*
X382000Y648570D01*
X381000Y649570D01*
X380000Y650570D01*
X379000Y651570D01*
X378000Y652570D01*
X378000Y653570D01*
X377000Y654570D01*
X376000Y655570D01*
X375000Y656570D01*
X374000Y657570D01*
X374000Y658570D01*
X373000Y659570D01*
X372000Y660570D01*
X371000Y661570D01*
X370000Y662570D01*
X370000Y663570D01*
X369000Y664570D01*
X368000Y665570D01*
X367000Y666570D01*
X367000Y667570D01*
X366000Y668570D01*
X365000Y669570D01*
X364000Y670570D01*
X363000Y671570D01*
X363000Y672570D01*
X362000Y673570D01*
X361000Y674570D01*
X360000Y675570D01*
X360000Y676570D01*
X359000Y677570D01*
X358000Y678570D01*
X357000Y679570D01*
X357000Y680570D01*
X356000Y681570D01*
X355000Y682570D01*
X354000Y683570D01*
X353000Y684570D01*
X353000Y685570D01*
X352000Y686570D01*
X351000Y687570D01*
X350000Y688570D01*
X350000Y689570D01*
X349000Y690570D01*
X348000Y691570D01*
X347000Y692570D01*
X347000Y693570D01*
X346000Y694570D01*
X345000Y695570D01*
X344000Y696570D01*
X344000Y697570D01*
X343000Y698570D01*
X342000Y699570D01*
X341000Y700570D01*
X341000Y701570D01*
X340000Y702570D01*
X339000Y703570D01*
X338000Y704570D01*
X338000Y705570D01*
X337000Y706570D01*
X336000Y707570D01*
X336000Y708570D01*
X335000Y709570D01*
X334000Y710570D01*
X333000Y711570D01*
X333000Y712570D01*
X332000Y713570D01*
X331000Y714570D01*
X330000Y715570D01*
X330000Y716570D01*
X329000Y717570D01*
X328000Y718570D01*
X328000Y719570D01*
X327000Y720570D01*
X326000Y721570D01*
X325000Y722570D01*
X325000Y723570D01*
X324000Y724570D01*
X323000Y725570D01*
X322000Y726570D01*
X322000Y727570D01*
X321000Y728570D01*
X320000Y729570D01*
X320000Y730570D01*
X319000Y731570D01*
X318000Y732570D01*
X317000Y733570D01*
X317000Y734570D01*
X316000Y735570D01*
X315000Y736570D01*
X315000Y737570D01*
X314000Y738570D01*
X313000Y739570D01*
X313000Y740570D01*
X312000Y741570D01*
X311000Y742570D01*
X310000Y743570D01*
X310000Y744570D01*
X309000Y745570D01*
X308000Y746570D01*
X308000Y747570D01*
X307000Y748570D01*
X306000Y749570D01*
X306000Y750570D01*
X305000Y751570D01*
X304000Y752570D01*
X304000Y753570D01*
X303000Y754570D01*
X302000Y755570D01*
X301000Y756570D01*
X301000Y757570D01*
X300000Y758570D01*
X299000Y759570D01*
X299000Y760570D01*
X298000Y761570D01*
X297000Y762570D01*
X297000Y763570D01*
X296000Y764570D01*
X295000Y765570D01*
X295000Y766570D01*
X294000Y767570D01*
X293000Y768570D01*
X293000Y769570D01*
X292000Y770570D01*
X291000Y771570D01*
X291000Y772570D01*
X290000Y773570D01*
X289000Y774570D01*
X289000Y775570D01*
X288000Y776570D01*
X287000Y777570D01*
X287000Y778570D01*
X286000Y779570D01*
X285000Y780570D01*
X285000Y781570D01*
X284000Y782570D01*
X283000Y783570D01*
X283000Y784570D01*
X282000Y785570D01*
X281000Y786570D01*
X281000Y787570D01*
X280000Y788570D01*
X279000Y789570D01*
X279000Y790570D01*
X278000Y791570D01*
X278000Y792570D01*
X277000Y793570D01*
X276000Y794570D01*
X276000Y795570D01*
X275000Y796570D01*
X274000Y797570D01*
X274000Y798570D01*
X273000Y799570D01*
X272000Y800570D01*
X272000Y801570D01*
X271000Y802570D01*
X270000Y803570D01*
X270000Y804570D01*
X269000Y805570D01*
X269000Y806570D01*
X268000Y807570D01*
X267000Y808570D01*
X267000Y809570D01*
X266000Y810570D01*
X265000Y811570D01*
X265000Y812570D01*
X264000Y813570D01*
X264000Y814570D01*
X263000Y815570D01*
X262000Y816570D01*
X262000Y817570D01*
X261000Y818570D01*
X260000Y819570D01*
X260000Y820570D01*
X259000Y821570D01*
X259000Y822570D01*
X258000Y823570D01*
X257000Y824570D01*
X257000Y825570D01*
X256000Y826570D01*
X255000Y827570D01*
X255000Y828570D01*
X254000Y829570D01*
X254000Y830570D01*
X253000Y831570D01*
X252000Y832570D01*
X252000Y833570D01*
X251000Y834570D01*
X250000Y835570D01*
X250000Y836570D01*
X249000Y837570D01*
X249000Y838570D01*
X248000Y839570D01*
X248000Y840570D01*
X247000Y841570D01*
X246000Y842570D01*
X246000Y843570D01*
X245000Y844570D01*
X245000Y845570D01*
X244000Y846570D01*
X243000Y847570D01*
X243000Y848570D01*
X242000Y849570D01*
X242000Y850570D01*
X241000Y851570D01*
X240000Y852570D01*
X240000Y853570D01*
X239000Y854570D01*
X239000Y855570D01*
X238000Y856570D01*
X237000Y857570D01*
X237000Y858570D01*
X236000Y859570D01*
X236000Y860570D01*
X235000Y861570D01*
X234000Y862570D01*
X234000Y863570D01*
X233000Y864570D01*
X233000Y865570D01*
X232000Y866570D01*
X232000Y867570D01*
X231000Y868570D01*
X230000Y869570D01*
X230000Y870570D01*
X229000Y871570D01*
X229000Y872570D01*
X228000Y873570D01*
X228000Y874570D01*
X227000Y875570D01*
X226000Y876570D01*
X226000Y877570D01*
X225000Y878570D01*
X225000Y879570D01*
X224000Y880570D01*
X224000Y881570D01*
X223000Y882570D01*
X222000Y883570D01*
X222000Y884570D01*
X221000Y885570D01*
X221000Y886570D01*
X220000Y887570D01*
X220000Y888570D01*
X219000Y889570D01*
X219000Y890570D01*
X218000Y891570D01*
X217000Y892570D01*
X217000Y893570D01*
X216000Y894570D01*
X216000Y895570D01*
X215000Y896570D01*
X215000Y897570D01*
X214000Y898570D01*
X214000Y899570D01*
X213000Y900570D01*
X212000Y901570D01*
X212000Y902570D01*
X211000Y903570D01*
X211000Y904570D01*
X210000Y905570D01*
X210000Y906570D01*
X209000Y907570D01*
X209000Y908570D01*
X208000Y909570D01*
X207000Y910570D01*
X207000Y911570D01*
X206000Y912570D01*
X206000Y913570D01*
X205000Y914570D01*
X205000Y915570D01*
X204000Y916570D01*
X204000Y917570D01*
X203000Y918570D01*
X203000Y919570D01*
X202000Y920570D01*
X202000Y921570D01*
X201000Y922570D01*
X201000Y923570D01*
X200000Y924570D01*
X199000Y925570D01*
X199000Y926570D01*
X198000Y927570D01*
X198000Y928570D01*
X197000Y929570D01*
X197000Y930570D01*
X196000Y931570D01*
X196000Y932570D01*
X195000Y933570D01*
X195000Y934570D01*
X194000Y935570D01*
X194000Y936570D01*
X193000Y937570D01*
X193000Y938570D01*
X192000Y939570D01*
X192000Y940570D01*
X191000Y941570D01*
X191000Y942570D01*
X190000Y943570D01*
X190000Y944570D01*
X189000Y945570D01*
X189000Y946570D01*
X188000Y947570D01*
X188000Y948570D01*
X187000Y949570D01*
X187000Y950570D01*
X186000Y951570D01*
X186000Y952570D01*
X185000Y953570D01*
X185000Y954570D01*
X184000Y955570D01*
X184000Y956570D01*
X183000Y957570D01*
X182000Y958570D01*
X182000Y959570D01*
X181000Y960570D01*
X181000Y961570D01*
X180000Y962570D01*
X180000Y963570D01*
X179000Y964570D01*
X179000Y966570D01*
X178000Y967570D01*
X178000Y968570D01*
X177000Y969570D01*
X177000Y970570D01*
X176000Y971570D01*
X176000Y972570D01*
X175000Y973570D01*
X175000Y974570D01*
X174000Y975570D01*
X174000Y976570D01*
X173000Y977570D01*
X173000Y978570D01*
X172000Y979570D01*
X172000Y980570D01*
X171000Y981570D01*
X171000Y982570D01*
X170000Y983570D01*
X170000Y984570D01*
X169000Y985570D01*
X169000Y986570D01*
X168000Y987570D01*
X168000Y988570D01*
X167000Y989570D01*
X167000Y990570D01*
X166000Y991570D01*
X166000Y992570D01*
X165000Y993570D01*
X165000Y995570D01*
X164000Y996570D01*
X164000Y997570D01*
X163000Y998570D01*
X163000Y999570D01*
X162000Y1000570D01*
X162000Y1001570D01*
X161000Y1002570D01*
X161000Y1003570D01*
X160000Y1004570D01*
X160000Y1005570D01*
X159000Y1006570D01*
X159000Y1007570D01*
X158000Y1008570D01*
X158000Y1010570D01*
X157000Y1011570D01*
X157000Y1012570D01*
X156000Y1013570D01*
X156000Y1014570D01*
X155000Y1015570D01*
X155000Y1016570D01*
X154000Y1017570D01*
X154000Y1018570D01*
X153000Y1019570D01*
X153000Y1021570D01*
X152000Y1022570D01*
X152000Y1023570D01*
X151000Y1024570D01*
X151000Y1025570D01*
X150000Y1026570D01*
X150000Y1027570D01*
X149000Y1028570D01*
X149000Y1030570D01*
X148000Y1031570D01*
X148000Y1032570D01*
X147000Y1033570D01*
X147000Y1034570D01*
X146000Y1035570D01*
X146000Y1036570D01*
X145000Y1037570D01*
X145000Y1039570D01*
X144000Y1040570D01*
X144000Y1041570D01*
X143000Y1042570D01*
X143000Y1043570D01*
X142000Y1044570D01*
X142000Y1045570D01*
X141000Y1046570D01*
X141000Y1048570D01*
X140000Y1049570D01*
X140000Y1050570D01*
X139000Y1051570D01*
X139000Y1052570D01*
X138000Y1053570D01*
X138000Y1055570D01*
X137000Y1056570D01*
X137000Y1057570D01*
X136000Y1058570D01*
X136000Y1059570D01*
X135000Y1060570D01*
X135000Y1062570D01*
X134000Y1063570D01*
X134000Y1064570D01*
X133000Y1065570D01*
X133000Y1067570D01*
X132000Y1068570D01*
X132000Y1069570D01*
X131000Y1070570D01*
X131000Y1072570D01*
X130000Y1073570D01*
X130000Y1074570D01*
X129000Y1075570D01*
X129000Y1076570D01*
X128000Y1077570D01*
X128000Y1079570D01*
X127000Y1080570D01*
X127000Y1081570D01*
X126000Y1082570D01*
X126000Y1084570D01*
X125000Y1085570D01*
X125000Y1086570D01*
X124000Y1087570D01*
X124000Y1089570D01*
X123000Y1090570D01*
X123000Y1091570D01*
X122000Y1092570D01*
X122000Y1094570D01*
X121000Y1095570D01*
X121000Y1096570D01*
X120000Y1097570D01*
X120000Y1099570D01*
X119000Y1100570D01*
X119000Y1101570D01*
X118000Y1102570D01*
X118000Y1104570D01*
X117000Y1105570D01*
X117000Y1107570D01*
X116000Y1108570D01*
X116000Y1109570D01*
X115000Y1110570D01*
X115000Y1112570D01*
X114000Y1113570D01*
X114000Y1114570D01*
X113000Y1115570D01*
X113000Y1117570D01*
X112000Y1118570D01*
X112000Y1120570D01*
X111000Y1121570D01*
X111000Y1122570D01*
X110000Y1123570D01*
X110000Y1125570D01*
X109000Y1126570D01*
X109000Y1128570D01*
X108000Y1129570D01*
X108000Y1130570D01*
X107000Y1131570D01*
X107000Y1133570D01*
X106000Y1134570D01*
X106000Y1136570D01*
X105000Y1137570D01*
X105000Y1138570D01*
X104000Y1139570D01*
X104000Y1141570D01*
X103000Y1142570D01*
X103000Y1144570D01*
X102000Y1145570D01*
X102000Y1147570D01*
X101000Y1148570D01*
X101000Y1150570D01*
X100000Y1151570D01*
X100000Y1152570D01*
X99000Y1153570D01*
X99000Y1155570D01*
X98000Y1156570D01*
X98000Y1158570D01*
X97000Y1159570D01*
X97000Y1161570D01*
X96000Y1162570D01*
X96000Y1164570D01*
X95000Y1165570D01*
X95000Y1167570D01*
X94000Y1168570D01*
X94000Y1169570D01*
X93000Y1170570D01*
X93000Y1172570D01*
X92000Y1173570D01*
X92000Y1175570D01*
X91000Y1176570D01*
X91000Y1178570D01*
X90000Y1179570D01*
X90000Y1181570D01*
X89000Y1182570D01*
X89000Y1184570D01*
X88000Y1185570D01*
X88000Y1187570D01*
X87000Y1188570D01*
X87000Y1190570D01*
X86000Y1191570D01*
X86000Y1193570D01*
X85000Y1194570D01*
X85000Y1196570D01*
X84000Y1197570D01*
X84000Y1199570D01*
X83000Y1200570D01*
X83000Y1203570D01*
X82000Y1204570D01*
X82000Y1206570D01*
X81000Y1207570D01*
X81000Y1209570D01*
X80000Y1210570D01*
X80000Y1212570D01*
X79000Y1213570D01*
X79000Y1215570D01*
X78000Y1216570D01*
X78000Y1218570D01*
X77000Y1219570D01*
X77000Y1222570D01*
X76000Y1223570D01*
X76000Y1225570D01*
X75000Y1226570D01*
X75000Y1228570D01*
X74000Y1229570D01*
X74000Y1232570D01*
X73000Y1233570D01*
X73000Y1235570D01*
X72000Y1236570D01*
X72000Y1238570D01*
X71000Y1239570D01*
X71000Y1242570D01*
X70000Y1243570D01*
X70000Y1245570D01*
X69000Y1246570D01*
X69000Y1248570D01*
X68000Y1249570D01*
X68000Y1252570D01*
X67000Y1253570D01*
X67000Y1255570D01*
X66000Y1256570D01*
X66000Y1259570D01*
X65000Y1260570D01*
X65000Y1262570D01*
X64000Y1263570D01*
X64000Y1266570D01*
X63000Y1267570D01*
X63000Y1270570D01*
X62000Y1271570D01*
X62000Y1273570D01*
X61000Y1274570D01*
X61000Y1277570D01*
X60000Y1278570D01*
X60000Y1281570D01*
X59000Y1282570D01*
X59000Y1284570D01*
X58000Y1285570D01*
X58000Y1288570D01*
X57000Y1289570D01*
X57000Y1292570D01*
X56000Y1293570D01*
X56000Y1296570D01*
X55000Y1297570D01*
X55000Y1299570D01*
X54000Y1300570D01*
X54000Y1303570D01*
X53000Y1304570D01*
X53000Y1307570D01*
X52000Y1308570D01*
X52000Y1311570D01*
X51000Y1312570D01*
X51000Y1315570D01*
X50000Y1316570D01*
X50000Y1319570D01*
X49000Y1320570D01*
X49000Y1324570D01*
X48000Y1325570D01*
X48000Y1328570D01*
X47000Y1329570D01*
X47000Y1332570D01*
X46000Y1333570D01*
X46000Y1336570D01*
X45000Y1337570D01*
X45000Y1340570D01*
X44000Y1341570D01*
X44000Y1345570D01*
X43000Y1346570D01*
X43000Y1349570D01*
X42000Y1350570D01*
X42000Y1354570D01*
X41000Y1355570D01*
X41000Y1358570D01*
X40000Y1359570D01*
X40000Y1363570D01*
X39000Y1364570D01*
X39000Y1367570D01*
X38000Y1368570D01*
X38000Y1372570D01*
X37000Y1373570D01*
X37000Y1377570D01*
X36000Y1378570D01*
X36000Y1382570D01*
X35000Y1383570D01*
X35000Y1387570D01*
X34000Y1388570D01*
X34000Y1392570D01*
X33000Y1393570D01*
X33000Y1397570D01*
X32000Y1398570D01*
X32000Y1402570D01*
X31000Y1403570D01*
X31000Y1407570D01*
X30000Y1408570D01*
X30000Y1412570D01*
X29000Y1413570D01*
X29000Y1418570D01*
X28000Y1419570D01*
X28000Y1423570D01*
X27000Y1424570D01*
X27000Y1429570D01*
X26000Y1430570D01*
X26000Y1435570D01*
X25000Y1436570D01*
X25000Y1440570D01*
X24000Y1441570D01*
X24000Y1446570D01*
X23000Y1447570D01*
X23000Y1452570D01*
X22000Y1453570D01*
X22000Y1459570D01*
X21000Y1460570D01*
X21000Y1465570D01*
X20000Y1466570D01*
X20000Y1471570D01*
X19000Y1472570D01*
X19000Y1478570D01*
X18000Y1479570D01*
X18000Y1485570D01*
X17000Y1486570D01*
X17000Y1492570D01*
X16000Y1493570D01*
X16000Y1500570D01*
X15000Y1501570D01*
X15000Y1507570D01*
X14000Y1508570D01*
X14000Y1515570D01*
X13000Y1516570D01*
X13000Y1523570D01*
X12000Y1524570D01*
X12000Y1532570D01*
X11000Y1533570D01*
X11000Y1541570D01*
X10000Y1542570D01*
X10000Y1550570D01*
X9000Y1551570D01*
X9000Y1560570D01*
X8000Y1561570D01*
X8000Y1570570D01*
X7000Y1571570D01*
X7000Y1581570D01*
X6000Y1582570D01*
X6000Y1593570D01*
X5000Y1594570D01*
X5000Y1607570D01*
X4000Y1608570D01*
X4000Y1621570D01*
X3000Y1622570D01*
X3000Y1638570D01*
X2000Y1639570D01*
X2000Y1660570D01*
X1000Y1661570D01*
X1000Y1690570D01*
X0Y1691570D01*
X0Y1774570D01*
X1000Y1775570D01*
X1000Y1804570D01*
X2000Y1805570D01*
X2000Y1826570D01*
X3000Y1827570D01*
X3000Y1843570D01*
X4000Y1844570D01*
X4000Y1857570D01*
X5000Y1858570D01*
X5000Y1871570D01*
X6000Y1872570D01*
X6000Y1883570D01*
X7000Y1884570D01*
X7000Y1894570D01*
X8000Y1895570D01*
X8000Y1904570D01*
X9000Y1905570D01*
X9000Y1914570D01*
X10000Y1915570D01*
X10000Y1923570D01*
X11000Y1924570D01*
X11000Y1932570D01*
X12000Y1933570D01*
X12000Y1941570D01*
X13000Y1942570D01*
X13000Y1949570D01*
X14000Y1950570D01*
X14000Y1957570D01*
X15000Y1958570D01*
X15000Y1964570D01*
X16000Y1965570D01*
X16000Y1972570D01*
X17000Y1973570D01*
X17000Y1979570D01*
X18000Y1980570D01*
X18000Y1986570D01*
X19000Y1987570D01*
X19000Y1993570D01*
X20000Y1994570D01*
X20000Y1999570D01*
X21000Y2000570D01*
X21000Y2005570D01*
X22000Y2006570D01*
X22000Y2012570D01*
X23000Y2013570D01*
X23000Y2018570D01*
X24000Y2019570D01*
X24000Y2024570D01*
X25000Y2025570D01*
X25000Y2029570D01*
X26000Y2030570D01*
X26000Y2035570D01*
X27000Y2036570D01*
X27000Y2041570D01*
X28000Y2042570D01*
X28000Y2046570D01*
X29000Y2047570D01*
X29000Y2052570D01*
X30000Y2053570D01*
X30000Y2057570D01*
X31000Y2058570D01*
X31000Y2062570D01*
X32000Y2063570D01*
X32000Y2067570D01*
X33000Y2068570D01*
X33000Y2072570D01*
X34000Y2073570D01*
X34000Y2077570D01*
X35000Y2078570D01*
X35000Y2082570D01*
X36000Y2083570D01*
X36000Y2087570D01*
X37000Y2088570D01*
X37000Y2092570D01*
X38000Y2093570D01*
X38000Y2097570D01*
X39000Y2098570D01*
X39000Y2101570D01*
X40000Y2102570D01*
X40000Y2106570D01*
X41000Y2107570D01*
X41000Y2110570D01*
X42000Y2111570D01*
X42000Y2115570D01*
X43000Y2116570D01*
X43000Y2119570D01*
X44000Y2120570D01*
X44000Y2124570D01*
X45000Y2125570D01*
X45000Y2128570D01*
X46000Y2129570D01*
X46000Y2132570D01*
X47000Y2133570D01*
X47000Y2136570D01*
X48000Y2137570D01*
X48000Y2140570D01*
X49000Y2141570D01*
X49000Y2145570D01*
X50000Y2146570D01*
X50000Y2149570D01*
X51000Y2150570D01*
X51000Y2153570D01*
X52000Y2154570D01*
X52000Y2157570D01*
X53000Y2158570D01*
X53000Y2161570D01*
X54000Y2162570D01*
X54000Y2165570D01*
X55000Y2166570D01*
X55000Y2168570D01*
X56000Y2169570D01*
X56000Y2172570D01*
X57000Y2173570D01*
X57000Y2176570D01*
X58000Y2177570D01*
X58000Y2180570D01*
X59000Y2181570D01*
X59000Y2184570D01*
X60000Y2185570D01*
X60000Y2187570D01*
X61000Y2188570D01*
X61000Y2191570D01*
X62000Y2192570D01*
X62000Y2194570D01*
X63000Y2195570D01*
X63000Y2198570D01*
X64000Y2199570D01*
X64000Y2202570D01*
X65000Y2203570D01*
X65000Y2205570D01*
X66000Y2206570D01*
X66000Y2209570D01*
X67000Y2210570D01*
X67000Y2212570D01*
X68000Y2213570D01*
X68000Y2216570D01*
X69000Y2217570D01*
X69000Y2219570D01*
X70000Y2220570D01*
X70000Y2222570D01*
X71000Y2223570D01*
X71000Y2226570D01*
X72000Y2227570D01*
X72000Y2229570D01*
X73000Y2230570D01*
X73000Y2232570D01*
X74000Y2233570D01*
X74000Y2236570D01*
X75000Y2237570D01*
X75000Y2239570D01*
X76000Y2240570D01*
X76000Y2242570D01*
X77000Y2243570D01*
X77000Y2246570D01*
X78000Y2247570D01*
X78000Y2249570D01*
X79000Y2250570D01*
X79000Y2252570D01*
X80000Y2253570D01*
X80000Y2255570D01*
X81000Y2256570D01*
X81000Y2258570D01*
X82000Y2259570D01*
X82000Y2261570D01*
X83000Y2262570D01*
X83000Y2265570D01*
X84000Y2266570D01*
X84000Y2268570D01*
X85000Y2269570D01*
X85000Y2271570D01*
X86000Y2272570D01*
X86000Y2274570D01*
X87000Y2275570D01*
X87000Y2277570D01*
X88000Y2278570D01*
X88000Y2280570D01*
X89000Y2281570D01*
X89000Y2283570D01*
X90000Y2284570D01*
X90000Y2286570D01*
X91000Y2287570D01*
X91000Y2289570D01*
X92000Y2290570D01*
X92000Y2292570D01*
X93000Y2293570D01*
X93000Y2295570D01*
X94000Y2296570D01*
X94000Y2297570D01*
X95000Y2298570D01*
X95000Y2300570D01*
X96000Y2301570D01*
X96000Y2303570D01*
X97000Y2304570D01*
X97000Y2306570D01*
X98000Y2307570D01*
X98000Y2309570D01*
X99000Y2310570D01*
X99000Y2312570D01*
X100000Y2313570D01*
X100000Y2315570D01*
X101000Y2316570D01*
X101000Y2317570D01*
X102000Y2318570D01*
X102000Y2320570D01*
X103000Y2321570D01*
X103000Y2323570D01*
X104000Y2324570D01*
X104000Y2326570D01*
X105000Y2327570D01*
X105000Y2328570D01*
X106000Y2329570D01*
X106000Y2331570D01*
X107000Y2332570D01*
X107000Y2334570D01*
X108000Y2335570D01*
X108000Y2336570D01*
X109000Y2337570D01*
X109000Y2339570D01*
X110000Y2340570D01*
X110000Y2342570D01*
X111000Y2343570D01*
X111000Y2344570D01*
X112000Y2345570D01*
X112000Y2347570D01*
X113000Y2348570D01*
X113000Y2350570D01*
X114000Y2351570D01*
X114000Y2352570D01*
X115000Y2353570D01*
X115000Y2355570D01*
X116000Y2356570D01*
X116000Y2358570D01*
X117000Y2359570D01*
X117000Y2360570D01*
X118000Y2361570D01*
X118000Y2363570D01*
X119000Y2364570D01*
X119000Y2365570D01*
X120000Y2366570D01*
X120000Y2368570D01*
X121000Y2369570D01*
X121000Y2370570D01*
X122000Y2371570D01*
X122000Y2373570D01*
X123000Y2374570D01*
X123000Y2375570D01*
X124000Y2376570D01*
X124000Y2378570D01*
X125000Y2379570D01*
X125000Y2380570D01*
X126000Y2381570D01*
X126000Y2383570D01*
X127000Y2384570D01*
X127000Y2385570D01*
X128000Y2386570D01*
X128000Y2388570D01*
X129000Y2389570D01*
X129000Y2390570D01*
X130000Y2391570D01*
X130000Y2393570D01*
X131000Y2394570D01*
X131000Y2395570D01*
X132000Y2396570D01*
X132000Y2397570D01*
X133000Y2398570D01*
X133000Y2400570D01*
X134000Y2401570D01*
X134000Y2402570D01*
X135000Y2403570D01*
X135000Y2405570D01*
X136000Y2406570D01*
X136000Y2407570D01*
X137000Y2408570D01*
X137000Y2409570D01*
X138000Y2410570D01*
X138000Y2412570D01*
X139000Y2413570D01*
X139000Y2414570D01*
X140000Y2415570D01*
X140000Y2416570D01*
X141000Y2417570D01*
X141000Y2419570D01*
X142000Y2420570D01*
X142000Y2421570D01*
X143000Y2422570D01*
X143000Y2423570D01*
X144000Y2424570D01*
X144000Y2426570D01*
X145000Y2427570D01*
X145000Y2428570D01*
X146000Y2429570D01*
X146000Y2430570D01*
X147000Y2431570D01*
X147000Y2432570D01*
X148000Y2433570D01*
X148000Y2434570D01*
X149000Y2435570D01*
X149000Y2437570D01*
X150000Y2438570D01*
X150000Y2439570D01*
X151000Y2440570D01*
X151000Y2441570D01*
X152000Y2442570D01*
X152000Y2443570D01*
X153000Y2444570D01*
X153000Y2446570D01*
X154000Y2447570D01*
X154000Y2448570D01*
X155000Y2449570D01*
X155000Y2450570D01*
X156000Y2451570D01*
X156000Y2452570D01*
X157000Y2453570D01*
X157000Y2454570D01*
X158000Y2455570D01*
X158000Y2457570D01*
X159000Y2458570D01*
X159000Y2459570D01*
X160000Y2460570D01*
X160000Y2461570D01*
X161000Y2462570D01*
X161000Y2463570D01*
X162000Y2464570D01*
X162000Y2465570D01*
X163000Y2466570D01*
X163000Y2467570D01*
X164000Y2468570D01*
X164000Y2469570D01*
X165000Y2470570D01*
X165000Y2472570D01*
X166000Y2473570D01*
X166000Y2474570D01*
X167000Y2475570D01*
X167000Y2476570D01*
X168000Y2477570D01*
X168000Y2478570D01*
X169000Y2479570D01*
X169000Y2480570D01*
X170000Y2481570D01*
X170000Y2482570D01*
X171000Y2483570D01*
X171000Y2484570D01*
X172000Y2485570D01*
X172000Y2486570D01*
X173000Y2487570D01*
X173000Y2488570D01*
X174000Y2489570D01*
X174000Y2490570D01*
X175000Y2491570D01*
X175000Y2492570D01*
X176000Y2493570D01*
X176000Y2494570D01*
X177000Y2495570D01*
X177000Y2496570D01*
X178000Y2497570D01*
X178000Y2498570D01*
X179000Y2499570D01*
X179000Y2501570D01*
X180000Y2502570D01*
X180000Y2503570D01*
X181000Y2504570D01*
X181000Y2505570D01*
X182000Y2506570D01*
X182000Y2507570D01*
X183000Y2508570D01*
X183000Y2509570D01*
X184000Y2510570D01*
X185000Y2511570D01*
X185000Y2512570D01*
X186000Y2513570D01*
X186000Y2514570D01*
X187000Y2515570D01*
X187000Y2516570D01*
X188000Y2517570D01*
X188000Y2518570D01*
X189000Y2519570D01*
X189000Y2520570D01*
X190000Y2521570D01*
X190000Y2522570D01*
X191000Y2523570D01*
X191000Y2524570D01*
X192000Y2525570D01*
X192000Y2526570D01*
X193000Y2527570D01*
X193000Y2528570D01*
X194000Y2529570D01*
X194000Y2530570D01*
X195000Y2531570D01*
X195000Y2532570D01*
X196000Y2533570D01*
X196000Y2534570D01*
X197000Y2535570D01*
X197000Y2536570D01*
X198000Y2537570D01*
X198000Y2538570D01*
X199000Y2539570D01*
X199000Y2540570D01*
X200000Y2541570D01*
X201000Y2542570D01*
X201000Y2543570D01*
X202000Y2544570D01*
X202000Y2545570D01*
X203000Y2546570D01*
X203000Y2547570D01*
X204000Y2548570D01*
X204000Y2549570D01*
X205000Y2550570D01*
X205000Y2551570D01*
X206000Y2552570D01*
X206000Y2553570D01*
X207000Y2554570D01*
X207000Y2555570D01*
X208000Y2556570D01*
X209000Y2557570D01*
X209000Y2558570D01*
X210000Y2559570D01*
X210000Y2560570D01*
X211000Y2561570D01*
X211000Y2562570D01*
X212000Y2563570D01*
X212000Y2564570D01*
X213000Y2565570D01*
X214000Y2566570D01*
X214000Y2567570D01*
X215000Y2568570D01*
X215000Y2569570D01*
X216000Y2570570D01*
X216000Y2571570D01*
X217000Y2572570D01*
X217000Y2573570D01*
X218000Y2574570D01*
X219000Y2575570D01*
X219000Y2576570D01*
X220000Y2577570D01*
X220000Y2578570D01*
X221000Y2579570D01*
X221000Y2580570D01*
X222000Y2581570D01*
X222000Y2582570D01*
X223000Y2583570D01*
X224000Y2584570D01*
X224000Y2585570D01*
X225000Y2586570D01*
X225000Y2587570D01*
X226000Y2588570D01*
X226000Y2589570D01*
X227000Y2590570D01*
X228000Y2591570D01*
X228000Y2592570D01*
X229000Y2593570D01*
X229000Y2594570D01*
X230000Y2595570D01*
X230000Y2596570D01*
X231000Y2597570D01*
X232000Y2598570D01*
X232000Y2599570D01*
X233000Y2600570D01*
X233000Y2601570D01*
X234000Y2602570D01*
X234000Y2603570D01*
X235000Y2604570D01*
X236000Y2605570D01*
X236000Y2606570D01*
X237000Y2607570D01*
X237000Y2608570D01*
X238000Y2609570D01*
X239000Y2610570D01*
X239000Y2611570D01*
X240000Y2612570D01*
X240000Y2613570D01*
X241000Y2614570D01*
X242000Y2615570D01*
X242000Y2616570D01*
X243000Y2617570D01*
X243000Y2618570D01*
X244000Y2619570D01*
X245000Y2620570D01*
X245000Y2621570D01*
X246000Y2622570D01*
X246000Y2623570D01*
X247000Y2624570D01*
X248000Y2625570D01*
X248000Y2626570D01*
X249000Y2627570D01*
X249000Y2628570D01*
X250000Y2629570D01*
X250000Y2630570D01*
X251000Y2631570D01*
X252000Y2632570D01*
X252000Y2633570D01*
X253000Y2634570D01*
X254000Y2635570D01*
X254000Y2636570D01*
X255000Y2637570D01*
X255000Y2638570D01*
X256000Y2639570D01*
X257000Y2640570D01*
X257000Y2641570D01*
X258000Y2642570D01*
X259000Y2643570D01*
X259000Y2644570D01*
X260000Y2645570D01*
X260000Y2646570D01*
X261000Y2647570D01*
X262000Y2648570D01*
X262000Y2649570D01*
X263000Y2650570D01*
X264000Y2651570D01*
X264000Y2652570D01*
X265000Y2653570D01*
X265000Y2654570D01*
X266000Y2655570D01*
X267000Y2656570D01*
X267000Y2657570D01*
X268000Y2658570D01*
X269000Y2659570D01*
X269000Y2660570D01*
X270000Y2661570D01*
X270000Y2662570D01*
X271000Y2663570D01*
X272000Y2664570D01*
X272000Y2665570D01*
X273000Y2666570D01*
X274000Y2667570D01*
X274000Y2668570D01*
X275000Y2669570D01*
X276000Y2670570D01*
X276000Y2671570D01*
X277000Y2672570D01*
X278000Y2673570D01*
X278000Y2674570D01*
X279000Y2675570D01*
X279000Y2676570D01*
X280000Y2677570D01*
X281000Y2678570D01*
X281000Y2679570D01*
X282000Y2680570D01*
X283000Y2681570D01*
X283000Y2682570D01*
X284000Y2683570D01*
X285000Y2684570D01*
X285000Y2685570D01*
X286000Y2686570D01*
X287000Y2687570D01*
X287000Y2688570D01*
X288000Y2689570D01*
X289000Y2690570D01*
X289000Y2691570D01*
X290000Y2692570D01*
X291000Y2693570D01*
X291000Y2694570D01*
X292000Y2695570D01*
X293000Y2696570D01*
X293000Y2697570D01*
X294000Y2698570D01*
X295000Y2699570D01*
X295000Y2700570D01*
X296000Y2701570D01*
X297000Y2702570D01*
X297000Y2703570D01*
X298000Y2704570D01*
X299000Y2705570D01*
X299000Y2706570D01*
X300000Y2707570D01*
X301000Y2708570D01*
X301000Y2709570D01*
X302000Y2710570D01*
X303000Y2711570D01*
X304000Y2712570D01*
X304000Y2713570D01*
X305000Y2714570D01*
X306000Y2715570D01*
X306000Y2716570D01*
X307000Y2717570D01*
X308000Y2718570D01*
X308000Y2719570D01*
X309000Y2720570D01*
X310000Y2721570D01*
X310000Y2722570D01*
X311000Y2723570D01*
X312000Y2724570D01*
X313000Y2725570D01*
X313000Y2726570D01*
X314000Y2727570D01*
X315000Y2728570D01*
X315000Y2729570D01*
X316000Y2730570D01*
X317000Y2731570D01*
X317000Y2732570D01*
X318000Y2733570D01*
X319000Y2734570D01*
X319000Y2735570D01*
X320000Y2736570D01*
X321000Y2737570D01*
X322000Y2738570D01*
X322000Y2739570D01*
X323000Y2740570D01*
X324000Y2741570D01*
X325000Y2742570D01*
X325000Y2743570D01*
X326000Y2744570D01*
X327000Y2745570D01*
X328000Y2746570D01*
X328000Y2747570D01*
X329000Y2748570D01*
X330000Y2749570D01*
X330000Y2750570D01*
X331000Y2751570D01*
X332000Y2752570D01*
X333000Y2753570D01*
X333000Y2754570D01*
X334000Y2755570D01*
X335000Y2756570D01*
X336000Y2757570D01*
X336000Y2758570D01*
X337000Y2759570D01*
X338000Y2760570D01*
X338000Y2761570D01*
X339000Y2762570D01*
X340000Y2763570D01*
X341000Y2764570D01*
X341000Y2765570D01*
X342000Y2766570D01*
X343000Y2767570D01*
X344000Y2768570D01*
X344000Y2769570D01*
X345000Y2770570D01*
X346000Y2771570D01*
X347000Y2772570D01*
X347000Y2773570D01*
X348000Y2774570D01*
X349000Y2775570D01*
X350000Y2776570D01*
X350000Y2777570D01*
X351000Y2778570D01*
X352000Y2779570D01*
X353000Y2780570D01*
X353000Y2781570D01*
X354000Y2782570D01*
X355000Y2783570D01*
X356000Y2784570D01*
X357000Y2785570D01*
X357000Y2786570D01*
X358000Y2787570D01*
X359000Y2788570D01*
X360000Y2789570D01*
X360000Y2790570D01*
X361000Y2791570D01*
X362000Y2792570D01*
X363000Y2793570D01*
X363000Y2794570D01*
X364000Y2795570D01*
X365000Y2796570D01*
X366000Y2797570D01*
X367000Y2798570D01*
X367000Y2799570D01*
X368000Y2800570D01*
X369000Y2801570D01*
X370000Y2802570D01*
X370000Y2803570D01*
X371000Y2804570D01*
X372000Y2805570D01*
X373000Y2806570D01*
X374000Y2807570D01*
X374000Y2808570D01*
X375000Y2809570D01*
X376000Y2810570D01*
X377000Y2811570D01*
X378000Y2812570D01*
X378000Y2813570D01*
X379000Y2814570D01*
X380000Y2815570D01*
X381000Y2816570D01*
X382000Y2817570D01*
X382000Y2818570D01*
X383000Y2819570D01*
X384000Y2820570D01*
X385000Y2821570D01*
X386000Y2822570D01*
X386000Y2823570D01*
X387000Y2824570D01*
X388000Y2825570D01*
X389000Y2826570D01*
X390000Y2827570D01*
X391000Y2828570D01*
X391000Y2829570D01*
X392000Y2830570D01*
X393000Y2831570D01*
X394000Y2832570D01*
X395000Y2833570D01*
X395000Y2834570D01*
X396000Y2835570D01*
X397000Y2836570D01*
X398000Y2837570D01*
X399000Y2838570D01*
X400000Y2839570D01*
X400000Y2840570D01*
X401000Y2841570D01*
X402000Y2842570D01*
X403000Y2843570D01*
X404000Y2844570D01*
X405000Y2845570D01*
X405000Y2846570D01*
X406000Y2847570D01*
X407000Y2848570D01*
X408000Y2849570D01*
X409000Y2850570D01*
X410000Y2851570D01*
X411000Y2852570D01*
X411000Y2853570D01*
X412000Y2854570D01*
X413000Y2855570D01*
X414000Y2856570D01*
X415000Y2857570D01*
X416000Y2858570D01*
X416000Y2859570D01*
X417000Y2860570D01*
X418000Y2861570D01*
X419000Y2862570D01*
X420000Y2863570D01*
X421000Y2864570D01*
X422000Y2865570D01*
X422000Y2866570D01*
X423000Y2867570D01*
X424000Y2868570D01*
X425000Y2869570D01*
X426000Y2870570D01*
X427000Y2871570D01*
X428000Y2872570D01*
X429000Y2873570D01*
X429000Y2874570D01*
X430000Y2875570D01*
X431000Y2876570D01*
X432000Y2877570D01*
X433000Y2878570D01*
X434000Y2879570D01*
X435000Y2880570D01*
X436000Y2881570D01*
X437000Y2882570D01*
X437000Y2883570D01*
X438000Y2884570D01*
X439000Y2885570D01*
X440000Y2886570D01*
X441000Y2887570D01*
X442000Y2888570D01*
X443000Y2889570D01*
X444000Y2890570D01*
X445000Y2891570D01*
X445000Y2892570D01*
X446000Y2893570D01*
X447000Y2894570D01*
X448000Y2895570D01*
X449000Y2896570D01*
X450000Y2897570D01*
X451000Y2898570D01*
X452000Y2899570D01*
X453000Y2900570D01*
X454000Y2901570D01*
X455000Y2902570D01*
X455000Y2903570D01*
X456000Y2904570D01*
X457000Y2905570D01*
X458000Y2906570D01*
X459000Y2907570D01*
X460000Y2908570D01*
X461000Y2909570D01*
X462000Y2910570D01*
X463000Y2911570D01*
X464000Y2912570D01*
X465000Y2913570D01*
X466000Y2914570D01*
X467000Y2915570D01*
X468000Y2916570D01*
X468000Y2917570D01*
X469000Y2918570D01*
X470000Y2919570D01*
X471000Y2920570D01*
X472000Y2921570D01*
X473000Y2922570D01*
X474000Y2923570D01*
X475000Y2924570D01*
X476000Y2925570D01*
X477000Y2926570D01*
X478000Y2927570D01*
X479000Y2928570D01*
X480000Y2929570D01*
X481000Y2930570D01*
X482000Y2931570D01*
X483000Y2932570D01*
X484000Y2933570D01*
X485000Y2934570D01*
X486000Y2935570D01*
X487000Y2936570D01*
X488000Y2937570D01*
X489000Y2938570D01*
X490000Y2939570D01*
X490000Y2940570D01*
X491000Y2941570D01*
X492000Y2942570D01*
X493000Y2943570D01*
X494000Y2944570D01*
X495000Y2945570D01*
X496000Y2946570D01*
X497000Y2947570D01*
X498000Y2948570D01*
X499000Y2949570D01*
X500000Y2950570D01*
X501000Y2951570D01*
X502000Y2952570D01*
X503000Y2953570D01*
X504000Y2954570D01*
X505000Y2955570D01*
X506000Y2956570D01*
X507000Y2957570D01*
X508000Y2958570D01*
X509000Y2959570D01*
X510000Y2960570D01*
X511000Y2961570D01*
X512000Y2962570D01*
X513000Y2963570D01*
X514000Y2964570D01*
X515000Y2965570D01*
X516000Y2966570D01*
X517000Y2967570D01*
X518000Y2968570D01*
X519000Y2969570D01*
X520000Y2970570D01*
X521000Y2971570D01*
X522000Y2972570D01*
X523000Y2973570D01*
X524000Y2974570D01*
X525000Y2974570D01*
X526000Y2975570D01*
X527000Y2976570D01*
X528000Y2977570D01*
X529000Y2978570D01*
X530000Y2979570D01*
X531000Y2980570D01*
X532000Y2981570D01*
X533000Y2982570D01*
X534000Y2983570D01*
X535000Y2984570D01*
X536000Y2985570D01*
X537000Y2986570D01*
X538000Y2987570D01*
X539000Y2988570D01*
X540000Y2989570D01*
X541000Y2990570D01*
X542000Y2991570D01*
X543000Y2992570D01*
X544000Y2993570D01*
X545000Y2994570D01*
X546000Y2995570D01*
X547000Y2996570D01*
X548000Y2996570D01*
X549000Y2997570D01*
X550000Y2998570D01*
X551000Y2999570D01*
X552000Y3000570D01*
X553000Y3001570D01*
X554000Y3002570D01*
X555000Y3003570D01*
X556000Y3004570D01*
X557000Y3005570D01*
X558000Y3006570D01*
X559000Y3007570D01*
X560000Y3008570D01*
X561000Y3009570D01*
X562000Y3009570D01*
X563000Y3010570D01*
X564000Y3011570D01*
X565000Y3012570D01*
X566000Y3013570D01*
X567000Y3014570D01*
X568000Y3015570D01*
X569000Y3016570D01*
X570000Y3017570D01*
X571000Y3018570D01*
X572000Y3019570D01*
X573000Y3019570D01*
X574000Y3020570D01*
X575000Y3021570D01*
X576000Y3022570D01*
X577000Y3023570D01*
X578000Y3024570D01*
X579000Y3025570D01*
X580000Y3026570D01*
X581000Y3027570D01*
X582000Y3027570D01*
X583000Y3028570D01*
X584000Y3029570D01*
X585000Y3030570D01*
X586000Y3031570D01*
X587000Y3032570D01*
X588000Y3033570D01*
X589000Y3034570D01*
X590000Y3035570D01*
X591000Y3035570D01*
X592000Y3036570D01*
X593000Y3037570D01*
X594000Y3038570D01*
X595000Y3039570D01*
X596000Y3040570D01*
X597000Y3041570D01*
X598000Y3042570D01*
X599000Y3042570D01*
X600000Y3043570D01*
X601000Y3044570D01*
X602000Y3045570D01*
X603000Y3046570D01*
X604000Y3047570D01*
X605000Y3048570D01*
X606000Y3048570D01*
X607000Y3049570D01*
X608000Y3050570D01*
X609000Y3051570D01*
X610000Y3052570D01*
X611000Y3053570D01*
X612000Y3053570D01*
X613000Y3054570D01*
X614000Y3055570D01*
X615000Y3056570D01*
X616000Y3057570D01*
X617000Y3058570D01*
X618000Y3059570D01*
X619000Y3059570D01*
X620000Y3060570D01*
X621000Y3061570D01*
X622000Y3062570D01*
X623000Y3063570D01*
X624000Y3064570D01*
X625000Y3064570D01*
X626000Y3065570D01*
X627000Y3066570D01*
X628000Y3067570D01*
X629000Y3068570D01*
X630000Y3069570D01*
X631000Y3069570D01*
X632000Y3070570D01*
X633000Y3071570D01*
X634000Y3072570D01*
X635000Y3073570D01*
X636000Y3073570D01*
X637000Y3074570D01*
X638000Y3075570D01*
X639000Y3076570D01*
X640000Y3077570D01*
X641000Y3078570D01*
X642000Y3078570D01*
X643000Y3079570D01*
X644000Y3080570D01*
X645000Y3081570D01*
X646000Y3082570D01*
X647000Y3082570D01*
X648000Y3083570D01*
X649000Y3084570D01*
X650000Y3085570D01*
X651000Y3086570D01*
X652000Y3086570D01*
X653000Y3087570D01*
X654000Y3088570D01*
X655000Y3089570D01*
X656000Y3090570D01*
X657000Y3090570D01*
X658000Y3091570D01*
X659000Y3092570D01*
X660000Y3093570D01*
X661000Y3094570D01*
X662000Y3094570D01*
X663000Y3095570D01*
X664000Y3096570D01*
X665000Y3097570D01*
X666000Y3097570D01*
X667000Y3098570D01*
X668000Y3099570D01*
X669000Y3100570D01*
X670000Y3101570D01*
X671000Y3101570D01*
X672000Y3102570D01*
X673000Y3103570D01*
X674000Y3104570D01*
X675000Y3104570D01*
X676000Y3105570D01*
X677000Y3106570D01*
X678000Y3107570D01*
X679000Y3107570D01*
X680000Y3108570D01*
X681000Y3109570D01*
X682000Y3110570D01*
X683000Y3111570D01*
X684000Y3111570D01*
X685000Y3112570D01*
X686000Y3113570D01*
X687000Y3114570D01*
X688000Y3114570D01*
X689000Y3115570D01*
X690000Y3116570D01*
X691000Y3117570D01*
X692000Y3117570D01*
X693000Y3118570D01*
X694000Y3119570D01*
X695000Y3120570D01*
X696000Y3120570D01*
X697000Y3121570D01*
X698000Y3122570D01*
X699000Y3123570D01*
X700000Y3123570D01*
X701000Y3124570D01*
X702000Y3125570D01*
X703000Y3126570D01*
X704000Y3126570D01*
X705000Y3127570D01*
X706000Y3128570D01*
X707000Y3128570D01*
X708000Y3129570D01*
X709000Y3130570D01*
X710000Y3131570D01*
X711000Y3131570D01*
X712000Y3132570D01*
X713000Y3133570D01*
X714000Y3134570D01*
X715000Y3134570D01*
X716000Y3135570D01*
X717000Y3136570D01*
X718000Y3137570D01*
X719000Y3137570D01*
X720000Y3138570D01*
X721000Y3139570D01*
X722000Y3139570D01*
X723000Y3140570D01*
X724000Y3141570D01*
X725000Y3142570D01*
X726000Y3142570D01*
X727000Y3143570D01*
X728000Y3144570D01*
X729000Y3145570D01*
X730000Y3145570D01*
X731000Y3146570D01*
X732000Y3147570D01*
X733000Y3147570D01*
X734000Y3148570D01*
X735000Y3149570D01*
X736000Y3149570D01*
X737000Y3150570D01*
X738000Y3151570D01*
X739000Y3151570D01*
X740000Y3152570D01*
X741000Y3153570D01*
X742000Y3154570D01*
X743000Y3154570D01*
X744000Y3155570D01*
X745000Y3156570D01*
X746000Y3156570D01*
X747000Y3157570D01*
X748000Y3158570D01*
X749000Y3158570D01*
X750000Y3159570D01*
X751000Y3160570D01*
X752000Y3160570D01*
X753000Y3161570D01*
X754000Y3162570D01*
X755000Y3163570D01*
X756000Y3163570D01*
X757000Y3164570D01*
X758000Y3165570D01*
X759000Y3165570D01*
X760000Y3166570D01*
X761000Y3167570D01*
X762000Y3167570D01*
X763000Y3168570D01*
X764000Y3169570D01*
X765000Y3169570D01*
X766000Y3170570D01*
X767000Y3171570D01*
X768000Y3171570D01*
X769000Y3172570D01*
X770000Y3173570D01*
X771000Y3173570D01*
X772000Y3174570D01*
X773000Y3175570D01*
X774000Y3175570D01*
X775000Y3176570D01*
X776000Y3177570D01*
X777000Y3177570D01*
X778000Y3178570D01*
X779000Y3179570D01*
X780000Y3179570D01*
X781000Y3180570D01*
X782000Y3181570D01*
X783000Y3181570D01*
X784000Y3182570D01*
X785000Y3183570D01*
X786000Y3183570D01*
X787000Y3184570D01*
X788000Y3185570D01*
X789000Y3185570D01*
X790000Y3186570D01*
X791000Y3186570D01*
X792000Y3187570D01*
X793000Y3188570D01*
X794000Y3188570D01*
X795000Y3189570D01*
X796000Y3190570D01*
X797000Y3190570D01*
X798000Y3191570D01*
X799000Y3192570D01*
X800000Y3192570D01*
X801000Y3193570D01*
X802000Y3194570D01*
X803000Y3194570D01*
X804000Y3195570D01*
X805000Y3195570D01*
X806000Y3196570D01*
X807000Y3197570D01*
X808000Y3197570D01*
X809000Y3198570D01*
X810000Y3199570D01*
X811000Y3199570D01*
X812000Y3200570D01*
X813000Y3200570D01*
X814000Y3201570D01*
X815000Y3202570D01*
X816000Y3202570D01*
X817000Y3203570D01*
X818000Y3204570D01*
X819000Y3204570D01*
X820000Y3205570D01*
X821000Y3205570D01*
X822000Y3206570D01*
X823000Y3207570D01*
X824000Y3207570D01*
X825000Y3208570D01*
X826000Y3209570D01*
X827000Y3209570D01*
X828000Y3210570D01*
X829000Y3210570D01*
X830000Y3211570D01*
X831000Y3212570D01*
X832000Y3212570D01*
X833000Y3213570D01*
X834000Y3214570D01*
X835000Y3214570D01*
X836000Y3215570D01*
X837000Y3215570D01*
X838000Y3216570D01*
X839000Y3216570D01*
X840000Y3217570D01*
X841000Y3218570D01*
X842000Y3218570D01*
X843000Y3219570D01*
X844000Y3219570D01*
X845000Y3220570D01*
X846000Y3221570D01*
X847000Y3221570D01*
X848000Y3222570D01*
X849000Y3222570D01*
X850000Y3223570D01*
X851000Y3224570D01*
X852000Y3224570D01*
X853000Y3225570D01*
X854000Y3225570D01*
X855000Y3226570D01*
X856000Y3227570D01*
X857000Y3227570D01*
X858000Y3228570D01*
X859000Y3228570D01*
X860000Y3229570D01*
X861000Y3230570D01*
X862000Y3230570D01*
X863000Y3231570D01*
X864000Y3231570D01*
X865000Y3232570D01*
X866000Y3232570D01*
X867000Y3233570D01*
X868000Y3234570D01*
X869000Y3234570D01*
X870000Y3235570D01*
X871000Y3235570D01*
X872000Y3236570D01*
X873000Y3236570D01*
X874000Y3237570D01*
X875000Y3238570D01*
X876000Y3238570D01*
X877000Y3239570D01*
X878000Y3239570D01*
X879000Y3240570D01*
X880000Y3240570D01*
X881000Y3241570D01*
X882000Y3242570D01*
X883000Y3242570D01*
X884000Y3243570D01*
X885000Y3243570D01*
X886000Y3244570D01*
X887000Y3244570D01*
X888000Y3245570D01*
X889000Y3245570D01*
X890000Y3246570D01*
X891000Y3247570D01*
X892000Y3247570D01*
X893000Y3248570D01*
X894000Y3248570D01*
X895000Y3249570D01*
X896000Y3249570D01*
X897000Y3250570D01*
X898000Y3250570D01*
X899000Y3251570D01*
X900000Y3252570D01*
X901000Y3252570D01*
X902000Y3253570D01*
X903000Y3253570D01*
X904000Y3254570D01*
X905000Y3254570D01*
X906000Y3255570D01*
X907000Y3255570D01*
X908000Y3256570D01*
X909000Y3257570D01*
X910000Y3257570D01*
X911000Y3258570D01*
X912000Y3258570D01*
X913000Y3259570D01*
X914000Y3259570D01*
X915000Y3260570D01*
X916000Y3260570D01*
X917000Y3261570D01*
X918000Y3261570D01*
X919000Y3262570D01*
X920000Y3262570D01*
X921000Y3263570D01*
X922000Y3264570D01*
X923000Y3264570D01*
X924000Y3265570D01*
X925000Y3265570D01*
X926000Y3266570D01*
X927000Y3266570D01*
X928000Y3267570D01*
X929000Y3267570D01*
X930000Y3268570D01*
X931000Y3268570D01*
X932000Y3269570D01*
X933000Y3269570D01*
X934000Y3270570D01*
X935000Y3270570D01*
X936000Y3271570D01*
X937000Y3271570D01*
X938000Y3272570D01*
X939000Y3272570D01*
X940000Y3273570D01*
X941000Y3273570D01*
X942000Y3274570D01*
X943000Y3274570D01*
X944000Y3275570D01*
X945000Y3275570D01*
X946000Y3276570D01*
X947000Y3276570D01*
X948000Y3277570D01*
X949000Y3277570D01*
X950000Y3278570D01*
X951000Y3278570D01*
X952000Y3279570D01*
X953000Y3279570D01*
X954000Y3280570D01*
X955000Y3281570D01*
X956000Y3281570D01*
X957000Y3282570D01*
X958000Y3282570D01*
X959000Y3283570D01*
X960000Y3283570D01*
X961000Y3284570D01*
X962000Y3284570D01*
X963000Y3285570D01*
X964000Y3285570D01*
X965000Y3285570D01*
X966000Y3286570D01*
X967000Y3286570D01*
X968000Y3287570D01*
X969000Y3287570D01*
X970000Y3288570D01*
X971000Y3288570D01*
X972000Y3289570D01*
X973000Y3289570D01*
X974000Y3290570D01*
X975000Y3290570D01*
X976000Y3291570D01*
X977000Y3291570D01*
X978000Y3292570D01*
X979000Y3292570D01*
X980000Y3293570D01*
X981000Y3293570D01*
X982000Y3294570D01*
X983000Y3294570D01*
X984000Y3295570D01*
X985000Y3295570D01*
X986000Y3296570D01*
X987000Y3296570D01*
X988000Y3297570D01*
X989000Y3297570D01*
X990000Y3298570D01*
X991000Y3298570D01*
X992000Y3299570D01*
X993000Y3299570D01*
X994000Y3299570D01*
X995000Y3300570D01*
X996000Y3300570D01*
X997000Y3301570D01*
X998000Y3301570D01*
X999000Y3302570D01*
X1000000Y3302570D01*
X1001000Y3303570D01*
X1002000Y3303570D01*
X1003000Y3304570D01*
X1004000Y3304570D01*
X1005000Y3305570D01*
X1006000Y3305570D01*
X1007000Y3306570D01*
X1008000Y3306570D01*
X1009000Y3306570D01*
X1010000Y3307570D01*
X1011000Y3307570D01*
X1012000Y3308570D01*
X1013000Y3308570D01*
X1014000Y3309570D01*
X1015000Y3309570D01*
X1016000Y3310570D01*
X1017000Y3310570D01*
X1018000Y3311570D01*
X1019000Y3311570D01*
X1020000Y3311570D01*
X1021000Y3312570D01*
X1022000Y3312570D01*
X1023000Y3313570D01*
X1024000Y3313570D01*
X1025000Y3314570D01*
X1026000Y3314570D01*
X1027000Y3315570D01*
X1028000Y3315570D01*
X1029000Y3315570D01*
X1030000Y3316570D01*
X1031000Y3316570D01*
X1032000Y3317570D01*
X1033000Y3317570D01*
X1034000Y3318570D01*
X1035000Y3318570D01*
X1036000Y3319570D01*
X1037000Y3319570D01*
X1038000Y3320570D01*
X1039000Y3320570D01*
X1040000Y3320570D01*
X1041000Y3321570D01*
X1042000Y3321570D01*
X1043000Y3322570D01*
X1044000Y3322570D01*
X1045000Y3323570D01*
X1046000Y3323570D01*
X1047000Y3323570D01*
X1048000Y3324570D01*
X1049000Y3324570D01*
X1050000Y3325570D01*
X1051000Y3325570D01*
X1052000Y3326570D01*
X1053000Y3326570D01*
X1054000Y3326570D01*
X1055000Y3327570D01*
X1056000Y3327570D01*
X1057000Y3328570D01*
X1058000Y3328570D01*
X1059000Y3329570D01*
X1060000Y3329570D01*
X1061000Y3329570D01*
X1062000Y3330570D01*
X1063000Y3330570D01*
X1064000Y3331570D01*
X1065000Y3331570D01*
X1066000Y3331570D01*
X1067000Y3332570D01*
X1068000Y3332570D01*
X1069000Y3333570D01*
X1070000Y3333570D01*
X1071000Y3334570D01*
X1072000Y3334570D01*
X1073000Y3334570D01*
X1074000Y3335570D01*
X1075000Y3335570D01*
X1076000Y3336570D01*
X1077000Y3336570D01*
X1078000Y3336570D01*
X1079000Y3337570D01*
X1080000Y3337570D01*
X1081000Y3338570D01*
X1082000Y3338570D01*
X1083000Y3338570D01*
X1084000Y3339570D01*
X1085000Y3339570D01*
X1086000Y3340570D01*
X1087000Y3340570D01*
X1088000Y3340570D01*
X1089000Y3341570D01*
X1090000Y3341570D01*
X1091000Y3342570D01*
X1092000Y3342570D01*
X1093000Y3342570D01*
X1094000Y3343570D01*
X1095000Y3343570D01*
X1096000Y3344570D01*
X1097000Y3344570D01*
X1098000Y3344570D01*
X1099000Y3345570D01*
X1100000Y3345570D01*
X1101000Y3346570D01*
X1102000Y3346570D01*
X1103000Y3346570D01*
X1104000Y3347570D01*
X1105000Y3347570D01*
X1106000Y3348570D01*
X1107000Y3348570D01*
X1108000Y3348570D01*
X1109000Y3349570D01*
X1110000Y3349570D01*
X1111000Y3349570D01*
X1112000Y3350570D01*
X1113000Y3350570D01*
X1114000Y3351570D01*
X1115000Y3351570D01*
X1116000Y3351570D01*
X1117000Y3352570D01*
X1118000Y3352570D01*
X1119000Y3352570D01*
X1120000Y3353570D01*
X1121000Y3353570D01*
X1122000Y3354570D01*
X1123000Y3354570D01*
X1124000Y3354570D01*
X1125000Y3355570D01*
X1126000Y3355570D01*
X1127000Y3355570D01*
X1128000Y3356570D01*
X1129000Y3356570D01*
X1130000Y3357570D01*
X1131000Y3357570D01*
X1132000Y3357570D01*
X1133000Y3358570D01*
X1134000Y3358570D01*
X1135000Y3358570D01*
X1136000Y3359570D01*
X1137000Y3359570D01*
X1138000Y3360570D01*
X1139000Y3360570D01*
X1140000Y3360570D01*
X1141000Y3361570D01*
X1142000Y3361570D01*
X1143000Y3361570D01*
X1144000Y3362570D01*
X1145000Y3362570D01*
X1146000Y3362570D01*
X1147000Y3363570D01*
X1148000Y3363570D01*
X1149000Y3364570D01*
X1150000Y3364570D01*
X1151000Y3364570D01*
X1152000Y3365570D01*
X1153000Y3365570D01*
X1154000Y3365570D01*
X1155000Y3366570D01*
X1156000Y3366570D01*
X1157000Y3366570D01*
X1158000Y3367570D01*
X1159000Y3367570D01*
X1160000Y3367570D01*
X1161000Y3368570D01*
X1162000Y3368570D01*
X1163000Y3368570D01*
X1164000Y3369570D01*
X1165000Y3369570D01*
X1166000Y3369570D01*
X1167000Y3370570D01*
X1168000Y3370570D01*
X1169000Y3371570D01*
X1170000Y3371570D01*
X1171000Y3371570D01*
X1172000Y3372570D01*
X1173000Y3372570D01*
X1174000Y3372570D01*
X1175000Y3373570D01*
X1176000Y3373570D01*
X1177000Y3373570D01*
X1178000Y3374570D01*
X1179000Y3374570D01*
X1180000Y3374570D01*
X1181000Y3375570D01*
X1182000Y3375570D01*
X1183000Y3375570D01*
X1184000Y3376570D01*
X1185000Y3376570D01*
X1186000Y3376570D01*
X1187000Y3377570D01*
X1188000Y3377570D01*
X1189000Y3377570D01*
X1190000Y3378570D01*
X1191000Y3378570D01*
X1192000Y3378570D01*
X1193000Y3379570D01*
X1194000Y3379570D01*
X1195000Y3379570D01*
X1196000Y3380570D01*
X1197000Y3380570D01*
X1198000Y3380570D01*
X1199000Y3381570D01*
X1200000Y3381570D01*
X1201000Y3381570D01*
X1202000Y3381570D01*
X1203000Y3382570D01*
X1204000Y3382570D01*
X1205000Y3382570D01*
X1206000Y3383570D01*
X1207000Y3383570D01*
X1208000Y3383570D01*
X1209000Y3384570D01*
X1210000Y3384570D01*
X1211000Y3384570D01*
X1212000Y3385570D01*
X1213000Y3385570D01*
X1214000Y3385570D01*
X1215000Y3386570D01*
X1216000Y3386570D01*
X1217000Y3386570D01*
X1218000Y3387570D01*
X1219000Y3387570D01*
X1220000Y3387570D01*
X1221000Y3387570D01*
X1222000Y3388570D01*
X1223000Y3388570D01*
X1224000Y3388570D01*
X1225000Y3389570D01*
X1226000Y3389570D01*
X1227000Y3389570D01*
X1228000Y3390570D01*
X1229000Y3390570D01*
X1230000Y3390570D01*
X1231000Y3390570D01*
X1232000Y3391570D01*
X1233000Y3391570D01*
X1234000Y3391570D01*
X1235000Y3392570D01*
X1236000Y3392570D01*
X1237000Y3392570D01*
X1238000Y3393570D01*
X1239000Y3393570D01*
X1240000Y3393570D01*
X1241000Y3393570D01*
X1242000Y3394570D01*
X1243000Y3394570D01*
X1244000Y3394570D01*
X1245000Y3395570D01*
X1246000Y3395570D01*
X1247000Y3395570D01*
X1248000Y3396570D01*
X1249000Y3396570D01*
X1250000Y3396570D01*
X1251000Y3396570D01*
X1252000Y3397570D01*
X1253000Y3397570D01*
X1254000Y3397570D01*
X1255000Y3398570D01*
X1256000Y3398570D01*
X1257000Y3398570D01*
X1258000Y3398570D01*
X1259000Y3399570D01*
X1260000Y3399570D01*
X1261000Y3399570D01*
X1262000Y3400570D01*
X1263000Y3400570D01*
X1264000Y3400570D01*
X1265000Y3400570D01*
X1266000Y3401570D01*
X1267000Y3401570D01*
X1268000Y3401570D01*
X1269000Y3401570D01*
X1270000Y3402570D01*
X1271000Y3402570D01*
X1272000Y3402570D01*
X1273000Y3403570D01*
X1274000Y3403570D01*
X1275000Y3403570D01*
X1276000Y3403570D01*
X1277000Y3404570D01*
X1278000Y3404570D01*
X1279000Y3404570D01*
X1280000Y3405570D01*
X1281000Y3405570D01*
X1282000Y3405570D01*
X1283000Y3405570D01*
X1284000Y3406570D01*
X1285000Y3406570D01*
X1286000Y3406570D01*
X1287000Y3406570D01*
X1288000Y3407570D01*
X1289000Y3407570D01*
X1290000Y3407570D01*
X1291000Y3407570D01*
X1292000Y3408570D01*
X1293000Y3408570D01*
X1294000Y3408570D01*
X1295000Y3408570D01*
X1296000Y3409570D01*
X1297000Y3409570D01*
X1298000Y3409570D01*
X1299000Y3410570D01*
X1300000Y3410570D01*
X1301000Y3410570D01*
X1302000Y3410570D01*
X1303000Y3411570D01*
X1304000Y3411570D01*
X1305000Y3411570D01*
X1306000Y3411570D01*
X1307000Y3412570D01*
X1308000Y3412570D01*
X1309000Y3412570D01*
X1310000Y3412570D01*
X1311000Y3413570D01*
X1312000Y3413570D01*
X1313000Y3413570D01*
X1314000Y3413570D01*
X1315000Y3414570D01*
X1316000Y3414570D01*
X1317000Y3414570D01*
X1318000Y3414570D01*
X1319000Y3415570D01*
X1320000Y3415570D01*
X1321000Y3415570D01*
X1322000Y3415570D01*
X1323000Y3415570D01*
X1324000Y3416570D01*
X1325000Y3416570D01*
X1326000Y3416570D01*
X1327000Y3416570D01*
X1328000Y3417570D01*
X1329000Y3417570D01*
X1330000Y3417570D01*
X1331000Y3417570D01*
X1332000Y3418570D01*
X1333000Y3418570D01*
X1334000Y3418570D01*
X1335000Y3418570D01*
X1336000Y3419570D01*
X1337000Y3419570D01*
X1338000Y3419570D01*
X1339000Y3419570D01*
X1340000Y3420570D01*
X1341000Y3420570D01*
X1342000Y3420570D01*
X1343000Y3420570D01*
X1344000Y3420570D01*
X1345000Y3421570D01*
X1346000Y3421570D01*
X1347000Y3421570D01*
X1348000Y3421570D01*
X1349000Y3422570D01*
X1350000Y3422570D01*
X1351000Y3422570D01*
X1352000Y3422570D01*
X1353000Y3422570D01*
X1354000Y3423570D01*
X1355000Y3423570D01*
X1356000Y3423570D01*
X1357000Y3423570D01*
X1358000Y3424570D01*
X1359000Y3424570D01*
X1360000Y3424570D01*
X1361000Y3424570D01*
X1362000Y3424570D01*
X1363000Y3425570D01*
X1364000Y3425570D01*
X1365000Y3425570D01*
X1366000Y3425570D01*
X1367000Y3426570D01*
X1368000Y3426570D01*
X1369000Y3426570D01*
X1370000Y3426570D01*
X1371000Y3426570D01*
X1372000Y3427570D01*
X1373000Y3427570D01*
X1374000Y3427570D01*
X1375000Y3427570D01*
X1376000Y3427570D01*
X1377000Y3428570D01*
X1378000Y3428570D01*
X1379000Y3428570D01*
X1380000Y3428570D01*
X1381000Y3428570D01*
X1382000Y3429570D01*
X1383000Y3429570D01*
X1384000Y3429570D01*
X1385000Y3429570D01*
X1386000Y3429570D01*
X1387000Y3430570D01*
X1388000Y3430570D01*
X1389000Y3430570D01*
X1390000Y3430570D01*
X1391000Y3430570D01*
X1392000Y3431570D01*
X1393000Y3431570D01*
X1394000Y3431570D01*
X1395000Y3431570D01*
X1396000Y3431570D01*
X1397000Y3432570D01*
X1398000Y3432570D01*
X1399000Y3432570D01*
X1400000Y3432570D01*
X1401000Y3432570D01*
X1402000Y3433570D01*
X1403000Y3433570D01*
X1404000Y3433570D01*
X1405000Y3433570D01*
X1406000Y3433570D01*
X1407000Y3434570D01*
X1408000Y3434570D01*
X1409000Y3434570D01*
X1410000Y3434570D01*
X1411000Y3434570D01*
X1412000Y3435570D01*
X1413000Y3435570D01*
X1414000Y3435570D01*
X1415000Y3435570D01*
X1416000Y3435570D01*
X1417000Y3435570D01*
X1418000Y3436570D01*
X1419000Y3436570D01*
X1420000Y3436570D01*
X1421000Y3436570D01*
X1422000Y3436570D01*
X1423000Y3437570D01*
X1424000Y3437570D01*
X1425000Y3437570D01*
X1426000Y3437570D01*
X1427000Y3437570D01*
X1428000Y3437570D01*
X1429000Y3438570D01*
X1430000Y3438570D01*
X1431000Y3438570D01*
X1432000Y3438570D01*
X1433000Y3438570D01*
X1434000Y3438570D01*
X1435000Y3439570D01*
X1436000Y3439570D01*
X1437000Y3439570D01*
X1438000Y3439570D01*
X1439000Y3439570D01*
X1440000Y3440570D01*
X1441000Y3440570D01*
X1442000Y3440570D01*
X1443000Y3440570D01*
X1444000Y3440570D01*
X1445000Y3440570D01*
X1446000Y3441570D01*
X1447000Y3441570D01*
X1448000Y3441570D01*
X1449000Y3441570D01*
X1450000Y3441570D01*
X1451000Y3441570D01*
X1452000Y3442570D01*
X1453000Y3442570D01*
X1454000Y3442570D01*
X1455000Y3442570D01*
X1456000Y3442570D01*
X1457000Y3442570D01*
X1458000Y3442570D01*
X1459000Y3443570D01*
X1460000Y3443570D01*
X1461000Y3443570D01*
X1462000Y3443570D01*
X1463000Y3443570D01*
X1464000Y3443570D01*
X1465000Y3444570D01*
X1466000Y3444570D01*
X1467000Y3444570D01*
X1468000Y3444570D01*
X1469000Y3444570D01*
X1470000Y3444570D01*
X1471000Y3445570D01*
X1472000Y3445570D01*
X1473000Y3445570D01*
X1474000Y3445570D01*
X1475000Y3445570D01*
X1476000Y3445570D01*
X1477000Y3445570D01*
X1478000Y3446570D01*
X1479000Y3446570D01*
X1480000Y3446570D01*
X1481000Y3446570D01*
X1482000Y3446570D01*
X1483000Y3446570D01*
X1484000Y3446570D01*
X1485000Y3447570D01*
X1486000Y3447570D01*
X1487000Y3447570D01*
X1488000Y3447570D01*
X1489000Y3447570D01*
X1490000Y3447570D01*
X1491000Y3447570D01*
X1492000Y3448570D01*
X1493000Y3448570D01*
X1494000Y3448570D01*
X1495000Y3448570D01*
X1496000Y3448570D01*
X1497000Y3448570D01*
X1498000Y3448570D01*
X1499000Y3448570D01*
X1500000Y3449570D01*
X1501000Y3449570D01*
X1502000Y3449570D01*
X1503000Y3449570D01*
X1504000Y3449570D01*
X1505000Y3449570D01*
X1506000Y3449570D01*
X1507000Y3450570D01*
X1508000Y3450570D01*
X1509000Y3450570D01*
X1510000Y3450570D01*
X1511000Y3450570D01*
X1512000Y3450570D01*
X1513000Y3450570D01*
X1514000Y3450570D01*
X1515000Y3451570D01*
X1516000Y3451570D01*
X1517000Y3451570D01*
X1518000Y3451570D01*
X1519000Y3451570D01*
X1520000Y3451570D01*
X1521000Y3451570D01*
X1522000Y3451570D01*
X1523000Y3452570D01*
X1524000Y3452570D01*
X1525000Y3452570D01*
X1526000Y3452570D01*
X1527000Y3452570D01*
X1528000Y3452570D01*
X1529000Y3452570D01*
X1530000Y3452570D01*
X1531000Y3452570D01*
X1532000Y3453570D01*
X1533000Y3453570D01*
X1534000Y3453570D01*
X1535000Y3453570D01*
X1536000Y3453570D01*
X1537000Y3453570D01*
X1538000Y3453570D01*
X1539000Y3453570D01*
X1540000Y3453570D01*
X1541000Y3454570D01*
X1542000Y3454570D01*
X1543000Y3454570D01*
X1544000Y3454570D01*
X1545000Y3454570D01*
X1546000Y3454570D01*
X1547000Y3454570D01*
X1548000Y3454570D01*
X1549000Y3454570D01*
X1550000Y3455570D01*
X1551000Y3455570D01*
X1552000Y3455570D01*
X1553000Y3455570D01*
X1554000Y3455570D01*
X1555000Y3455570D01*
X1556000Y3455570D01*
X1557000Y3455570D01*
X1558000Y3455570D01*
X1559000Y3455570D01*
X1560000Y3456570D01*
X1561000Y3456570D01*
X1562000Y3456570D01*
X1563000Y3456570D01*
X1564000Y3456570D01*
X1565000Y3456570D01*
X1566000Y3456570D01*
X1567000Y3456570D01*
X1568000Y3456570D01*
X1569000Y3456570D01*
X1570000Y3457570D01*
X1571000Y3457570D01*
X1572000Y3457570D01*
X1573000Y3457570D01*
X1574000Y3457570D01*
X1575000Y3457570D01*
X1576000Y3457570D01*
X1577000Y3457570D01*
X1578000Y3457570D01*
X1579000Y3457570D01*
X1580000Y3457570D01*
X1581000Y3458570D01*
X1582000Y3458570D01*
X1583000Y3458570D01*
X1584000Y3458570D01*
X1585000Y3458570D01*
X1586000Y3458570D01*
X1587000Y3458570D01*
X1588000Y3458570D01*
X1589000Y3458570D01*
X1590000Y3458570D01*
X1591000Y3458570D01*
X1592000Y3458570D01*
X1593000Y3459570D01*
X1594000Y3459570D01*
X1595000Y3459570D01*
X1596000Y3459570D01*
X1597000Y3459570D01*
X1598000Y3459570D01*
X1599000Y3459570D01*
X1600000Y3459570D01*
X1601000Y3459570D01*
X1602000Y3459570D01*
X1603000Y3459570D01*
X1604000Y3459570D01*
X1605000Y3459570D01*
X1606000Y3459570D01*
X1607000Y3460570D01*
X1608000Y3460570D01*
X1609000Y3460570D01*
X1610000Y3460570D01*
X1611000Y3460570D01*
X1612000Y3460570D01*
X1613000Y3460570D01*
X1614000Y3460570D01*
X1615000Y3460570D01*
X1616000Y3460570D01*
X1617000Y3460570D01*
X1618000Y3460570D01*
X1619000Y3460570D01*
X1620000Y3460570D01*
X1621000Y3461570D01*
X1622000Y3461570D01*
X1623000Y3461570D01*
X1624000Y3461570D01*
X1625000Y3461570D01*
X1626000Y3461570D01*
X1627000Y3461570D01*
X1628000Y3461570D01*
X1629000Y3461570D01*
X1630000Y3461570D01*
X1631000Y3461570D01*
X1632000Y3461570D01*
X1633000Y3461570D01*
X1634000Y3461570D01*
X1635000Y3461570D01*
X1636000Y3461570D01*
X1637000Y3461570D01*
X1638000Y3462570D01*
X1639000Y3462570D01*
X1640000Y3462570D01*
X1641000Y3462570D01*
X1642000Y3462570D01*
X1643000Y3462570D01*
X1644000Y3462570D01*
X1645000Y3462570D01*
X1646000Y3462570D01*
X1647000Y3462570D01*
X1648000Y3462570D01*
X1649000Y3462570D01*
X1650000Y3462570D01*
X1651000Y3462570D01*
X1652000Y3462570D01*
X1653000Y3462570D01*
X1654000Y3462570D01*
X1655000Y3462570D01*
X1656000Y3462570D01*
X1657000Y3462570D01*
X1658000Y3462570D01*
X1659000Y3462570D01*
X1660000Y3463570D01*
X1661000Y3463570D01*
X1662000Y3463570D01*
X1663000Y3463570D01*
X1664000Y3463570D01*
X1665000Y3463570D01*
X1666000Y3463570D01*
X1667000Y3463570D01*
X1668000Y3463570D01*
X1669000Y3463570D01*
X1670000Y3463570D01*
X1671000Y3463570D01*
X1672000Y3463570D01*
X1673000Y3463570D01*
X1674000Y3463570D01*
X1675000Y3463570D01*
X1676000Y3463570D01*
X1677000Y3463570D01*
X1678000Y3463570D01*
X1679000Y3463570D01*
X1680000Y3463570D01*
X1681000Y3463570D01*
X1682000Y3463570D01*
X1683000Y3463570D01*
X1684000Y3463570D01*
X1685000Y3463570D01*
X1686000Y3463570D01*
X1687000Y3463570D01*
X1688000Y3463570D01*
X1689000Y3463570D01*
X1690000Y3464570D01*
D02*
G04 End of contour*
M02*