; NON-PLATED HOLES START AT T1
; THROUGH (PLATED) HOLES START AT T100
M48
INCH
T1C0.125984
T100C0.046472
T101C0.039370
T102C0.035000
T103C0.098425
T104C0.040000
T105C0.015748
T106C0.038000
%
T1
X017620Y033117
X016940Y001834
X032562Y018597
X001995Y017856
T100
X017956Y011719
X018956Y011719
X016956Y011719
T101
X023865Y016677
X012908Y019933
X011908Y019933
X008737Y011727
X026865Y016677
X007908Y024932
X028865Y011677
X010908Y024932
X007737Y011727
X010737Y011727
X012737Y011727
X009908Y019933
X024058Y020896
X008908Y024932
X025865Y016677
X023058Y020896
X024865Y016677
X025058Y020896
X009737Y011727
X027865Y011677
X028058Y020896
X022058Y020896
X011737Y011727
X025865Y011677
X009908Y024932
X024865Y011677
X008908Y019933
X027865Y016677
X026058Y020896
X023865Y011677
X007908Y019933
X010908Y019933
X006737Y011727
X011908Y024932
X026865Y011677
X028865Y016677
X027058Y020896
X012908Y024932
T102
X024660Y014025
X021716Y022059
X024176Y020637
X030758Y020068
X022814Y030079
X015960Y028551
X007990Y030093
X014250Y018439
X019294Y027537
X012507Y030152
X023028Y005505
X023207Y020470
X015219Y021868
X015960Y032551
X028288Y027446
X025890Y027522
X019225Y016592
X027758Y020068
X023814Y030079
X019411Y024711
X020190Y024013
X012052Y022085
X013507Y030152
X019294Y031537
T103
X021058Y025896
X013737Y016727
X005737Y016727
X030365Y016677
X030365Y011677
X014408Y019933
X006408Y019933
X029058Y025896
X006408Y024932
X014408Y024932
X022365Y011677
X022365Y016677
T104
X022203Y016553
X011319Y016910
X013879Y015130
X024763Y014773
X005479Y016910
X008039Y016910
X005479Y015130
X022203Y014773
X008039Y015130
X029120Y014824
X026560Y014824
X026560Y016604
X029120Y016604
X011319Y015130
X013879Y016910
X024763Y016553
T105
X019714Y026493
X007261Y028196
X010862Y018596
X026942Y025556
X012782Y025796
X026727Y027562
X025982Y020996
X013989Y013719
X007981Y021236
X013272Y027150
X021662Y010436
X017822Y004916
X016217Y021476
X015422Y023876
X029582Y026516
X025035Y030063
X023102Y018116
X030712Y027217
X006061Y023156
T106
X014307Y008625
X014307Y006625
X014307Y007625
T00
M30
